{"glyphs":{"0":{"ha":907,"x_min":64,"x_max":843,"o":"m 454 992 q 663 929 576 992 q 797 753 750 867 q 843 486 843 640 q 797 219 843 332 q 663 43 750 106 q 454 -19 576 -19 q 244 43 332 -19 q 110 219 157 106 q 64 486 64 332 q 110 753 64 640 q 244 929 157 867 q 454 992 332 992 m 454 933 q 324 820 368 933 q 279 486 279 707 q 324 152 279 265 q 454 39 368 39 q 583 152 539 39 q 628 486 628 265 q 583 820 628 707 q 454 933 539 933 z "},"1":{"ha":546,"x_min":58,"x_max":488,"o":"m 488 0 l 488 14 l 458 14 q 405 35 428 14 q 382 88 382 57 l 382 992 l 368 992 q 295 953 336 969 q 210 927 254 938 q 126 911 167 917 q 58 903 86 906 l 58 889 l 94 889 q 153 869 132 889 q 175 804 175 850 l 175 89 q 153 36 175 58 q 99 14 131 14 l 69 14 l 68 0 l 488 0 z "},"2":{"ha":857,"x_min":63,"x_max":808,"o":"m 132 676 l 65 890 q 153 944 101 922 q 266 979 206 967 q 385 992 326 992 q 571 958 489 992 q 699 862 653 924 q 744 711 744 800 q 715 578 744 643 q 638 456 686 514 q 535 347 590 399 q 425 254 479 296 q 329 179 371 213 l 615 179 q 688 193 657 179 q 745 237 719 207 q 794 314 771 267 l 808 314 l 726 0 l 63 0 l 63 14 q 181 147 118 76 q 304 290 244 217 q 414 439 364 364 q 493 586 464 514 q 522 726 522 658 q 472 882 522 825 q 336 933 422 939 q 195 863 244 928 q 146 676 146 799 l 132 676 z "},"3":{"ha":782,"x_min":58,"x_max":710,"o":"m 354 989 q 526 963 454 990 q 636 884 597 935 q 675 763 675 833 q 653 664 675 707 q 594 592 631 621 q 514 553 557 564 q 432 554 471 543 q 523 540 475 554 q 614 494 571 525 q 683 411 657 463 q 710 286 710 360 q 672 133 710 201 q 569 18 635 65 q 421 -53 504 -29 q 246 -76 338 -78 q 65 -44 154 -75 l 68 -31 q 228 -9 153 -32 q 363 58 304 14 q 454 164 421 101 q 488 301 488 226 q 449 435 488 385 q 350 510 411 486 q 219 533 289 533 l 222 547 q 342 576 286 546 q 433 660 399 606 q 460 785 467 714 q 435 865 457 832 q 376 916 413 899 q 290 931 339 933 q 166 866 206 926 q 129 693 126 806 l 115 693 l 58 890 q 178 960 104 932 q 354 989 253 988 z "},"4":{"ha":860,"x_min":10,"x_max":817,"o":"m 450 756 l 644 992 l 658 992 l 658 1 l 450 1 l 450 756 m 644 992 l 657 910 l 193 414 l 718 414 q 774 426 757 414 q 803 458 790 438 l 817 458 l 779 296 l 10 296 l 10 310 l 644 992 m 658 89 q 681 36 658 58 q 735 14 704 14 l 750 14 l 750 0 l 357 0 l 358 14 l 372 14 q 427 35 404 14 q 450 89 450 57 l 658 89 z "},"5":{"ha":769,"x_min":36,"x_max":692,"o":"m 615 789 l 228 760 l 188 604 q 397 622 303 632 q 557 569 490 611 q 658 460 624 528 q 688 303 692 392 q 634 126 683 200 q 509 7 585 53 q 347 -59 433 -39 q 178 -74 260 -79 q 36 -43 97 -69 l 39 -29 q 126 -20 74 -31 q 234 14 178 -10 q 340 74 290 38 q 424 163 390 111 q 461 283 457 215 q 418 418 468 368 q 281 476 368 468 q 86 443 194 485 l 74 450 l 186 922 l 544 951 q 614 971 589 951 q 654 1021 639 990 l 668 1021 l 615 789 z "},"6":{"ha":875,"x_min":68,"x_max":811,"o":"m 690 1019 l 696 1010 q 488 910 567 969 q 369 774 410 851 q 314 603 328 697 q 300 396 300 508 q 313 207 300 285 q 358 88 325 129 q 449 46 390 46 q 538 81 506 46 q 583 174 569 117 q 597 294 597 231 q 583 417 597 369 q 544 488 569 464 q 482 517 518 513 q 413 513 446 525 q 358 479 381 500 l 349 492 q 417 562 374 535 q 514 598 461 589 q 618 594 567 607 q 713 548 669 582 q 784 456 757 514 q 811 311 811 397 q 772 147 811 222 q 652 27 732 72 q 451 -21 572 -18 q 246 26 332 -22 q 114 171 160 74 q 69 414 68 268 q 108 660 69 547 q 223 857 146 774 q 417 984 300 940 q 690 1019 533 1028 z "},"7":{"ha":756,"x_min":24,"x_max":728,"o":"m 24 711 l 38 711 q 76 774 53 753 q 142 794 100 794 l 565 794 l 474 575 q 428 477 456 535 q 369 354 401 419 q 305 224 338 289 q 242 100 272 158 q 190 0 213 42 l 372 0 q 400 99 382 40 q 440 222 418 157 q 483 353 461 288 q 526 473 506 418 q 561 564 546 528 l 728 972 l 63 969 l 24 711 z "},"8":{"ha":838,"x_min":53,"x_max":783,"o":"m 110 725 q 149 867 110 807 q 257 959 188 926 q 415 992 326 992 q 569 963 500 992 q 681 882 639 935 q 722 756 722 829 q 688 647 722 693 q 598 573 654 600 q 476 539 542 546 l 433 547 q 499 606 475 567 q 533 691 524 646 q 542 775 543 736 q 507 886 540 842 q 414 932 474 931 q 322 893 354 933 q 290 794 290 853 q 308 719 290 753 q 365 655 325 686 q 471 588 404 624 q 582 529 526 558 q 683 465 638 500 q 756 383 729 431 q 783 264 783 335 q 736 111 783 175 q 603 14 689 47 q 401 -19 517 -19 q 273 -6 336 -19 q 160 38 210 8 q 82 116 111 68 q 54 233 53 164 q 75 328 54 288 q 128 397 96 368 q 199 444 161 425 q 272 476 236 464 q 335 494 308 488 l 389 493 q 281 408 325 467 q 238 253 238 350 q 283 99 236 156 q 410 39 329 43 q 503 56 464 36 q 565 112 543 76 q 588 189 588 147 q 574 252 588 225 q 533 303 560 279 q 466 349 506 326 q 375 399 426 372 q 285 450 332 422 q 199 516 239 478 q 135 606 160 554 q 110 725 110 658 z "},"9":{"ha":875,"x_min":64,"x_max":806,"o":"m 185 -53 l 179 -43 q 387 55 308 -4 q 506 191 465 114 q 561 362 547 268 q 575 567 575 456 q 563 761 575 682 q 518 881 550 840 q 426 921 486 921 q 337 886 369 921 q 291 795 304 851 q 278 674 278 739 q 293 551 279 599 q 333 479 307 504 q 394 450 358 454 q 463 455 431 443 q 517 488 496 467 l 526 476 q 457 405 500 432 q 361 369 414 378 q 256 374 308 361 q 160 421 204 386 q 90 514 117 456 q 64 657 64 572 q 106 826 65 751 q 227 943 147 900 q 424 988 307 986 q 706 882 606 990 q 806 553 806 774 q 767 308 806 421 q 652 110 729 194 q 459 -17 575 26 q 185 -53 343 -61 z "},"A":{"ha":996,"x_min":-39,"x_max":1035,"o":"m 492 1000 l 944 8 l 696 8 l 407 732 l 492 1000 m 193 101 q 189 54 182 74 q 213 24 196 35 q 246 14 229 14 l 258 14 l 258 0 l -39 0 l -39 14 q -33 14 -39 14 q -26 14 -26 14 q 40 34 6 14 q 96 101 74 54 l 193 101 m 492 1000 l 497 831 l 153 4 l 51 4 l 411 818 q 426 849 415 826 q 448 901 436 872 q 469 958 460 931 q 479 1000 479 985 l 492 1000 m 638 331 l 638 272 l 229 272 l 229 331 l 638 331 m 658 101 l 901 101 q 958 34 925 54 q 1024 14 992 14 q 1029 14 1024 14 q 1035 14 1035 14 l 1035 0 l 593 0 l 593 14 l 606 14 q 654 37 633 14 q 658 101 675 60 z "},"Á":{"ha":996,"x_min":-39,"x_max":1035,"o":"m 492 1000 l 944 8 l 696 8 l 407 732 l 492 1000 m 193 101 q 189 54 182 74 q 213 24 196 35 q 246 14 229 14 l 258 14 l 258 0 l -39 0 l -39 14 q -33 14 -39 14 q -26 14 -26 14 q 40 34 6 14 q 96 101 74 54 l 193 101 m 492 1000 l 497 831 l 153 4 l 51 4 l 411 818 q 426 849 415 826 q 448 901 436 872 q 469 958 460 931 q 479 1000 479 985 l 492 1000 m 638 331 l 638 272 l 229 272 l 229 331 l 638 331 m 658 101 l 901 101 q 958 34 925 54 q 1024 14 992 14 q 1029 14 1024 14 q 1035 14 1035 14 l 1035 0 l 593 0 l 593 14 l 606 14 q 654 37 633 14 q 658 101 675 60 z "},"Ă":{"ha":996,"x_min":-39,"x_max":1035,"o":"m 492 1000 l 944 8 l 696 8 l 407 732 l 492 1000 m 193 101 q 189 54 182 74 q 213 24 196 35 q 246 14 229 14 l 258 14 l 258 0 l -39 0 l -39 14 q -33 14 -39 14 q -26 14 -26 14 q 40 34 6 14 q 96 101 74 54 l 193 101 m 492 1000 l 497 831 l 153 4 l 51 4 l 411 818 q 426 849 415 826 q 448 901 436 872 q 469 958 460 931 q 479 1000 479 985 l 492 1000 m 638 331 l 638 272 l 229 272 l 229 331 l 638 331 m 658 101 l 901 101 q 958 34 925 54 q 1024 14 992 14 q 1029 14 1024 14 q 1035 14 1035 14 l 1035 0 l 593 0 l 593 14 l 606 14 q 654 37 633 14 q 658 101 675 60 z "},"Â":{"ha":996,"x_min":-39,"x_max":1035,"o":"m 492 1000 l 944 8 l 696 8 l 407 732 l 492 1000 m 193 101 q 189 54 182 74 q 213 24 196 35 q 246 14 229 14 l 258 14 l 258 0 l -39 0 l -39 14 q -33 14 -39 14 q -26 14 -26 14 q 40 34 6 14 q 96 101 74 54 l 193 101 m 492 1000 l 497 831 l 153 4 l 51 4 l 411 818 q 426 849 415 826 q 448 901 436 872 q 469 958 460 931 q 479 1000 479 985 l 492 1000 m 638 331 l 638 272 l 229 272 l 229 331 l 638 331 m 658 101 l 901 101 q 958 34 925 54 q 1024 14 992 14 q 1029 14 1024 14 q 1035 14 1035 14 l 1035 0 l 593 0 l 593 14 l 606 14 q 654 37 633 14 q 658 101 675 60 z "},"Ä":{"ha":996,"x_min":-39,"x_max":1035,"o":"m 492 1000 l 944 8 l 696 8 l 407 732 l 492 1000 m 193 101 q 189 54 182 74 q 213 24 196 35 q 246 14 229 14 l 258 14 l 258 0 l -39 0 l -39 14 q -33 14 -39 14 q -26 14 -26 14 q 40 34 6 14 q 96 101 74 54 l 193 101 m 492 1000 l 497 831 l 153 4 l 51 4 l 411 818 q 426 849 415 826 q 448 901 436 872 q 469 958 460 931 q 479 1000 479 985 l 492 1000 m 638 331 l 638 272 l 229 272 l 229 331 l 638 331 m 658 101 l 901 101 q 958 34 925 54 q 1024 14 992 14 q 1029 14 1024 14 q 1035 14 1035 14 l 1035 0 l 593 0 l 593 14 l 606 14 q 654 37 633 14 q 658 101 675 60 z "},"À":{"ha":996,"x_min":-39,"x_max":1035,"o":"m 492 1000 l 944 8 l 696 8 l 407 732 l 492 1000 m 193 101 q 189 54 182 74 q 213 24 196 35 q 246 14 229 14 l 258 14 l 258 0 l -39 0 l -39 14 q -33 14 -39 14 q -26 14 -26 14 q 40 34 6 14 q 96 101 74 54 l 193 101 m 492 1000 l 497 831 l 153 4 l 51 4 l 411 818 q 426 849 415 826 q 448 901 436 872 q 469 958 460 931 q 479 1000 479 985 l 492 1000 m 638 331 l 638 272 l 229 272 l 229 331 l 638 331 m 658 101 l 901 101 q 958 34 925 54 q 1024 14 992 14 q 1029 14 1024 14 q 1035 14 1035 14 l 1035 0 l 593 0 l 593 14 l 606 14 q 654 37 633 14 q 658 101 675 60 z "},"Ā":{"ha":996,"x_min":-39,"x_max":1035,"o":"m 492 1000 l 944 8 l 696 8 l 407 732 l 492 1000 m 193 101 q 189 54 182 74 q 213 24 196 35 q 246 14 229 14 l 258 14 l 258 0 l -39 0 l -39 14 q -33 14 -39 14 q -26 14 -26 14 q 40 34 6 14 q 96 101 74 54 l 193 101 m 492 1000 l 497 831 l 153 4 l 51 4 l 411 818 q 426 849 415 826 q 448 901 436 872 q 469 958 460 931 q 479 1000 479 985 l 492 1000 m 638 331 l 638 272 l 229 272 l 229 331 l 638 331 m 658 101 l 901 101 q 958 34 925 54 q 1024 14 992 14 q 1029 14 1024 14 q 1035 14 1035 14 l 1035 0 l 593 0 l 593 14 l 606 14 q 654 37 633 14 q 658 101 675 60 z "},"Ą":{"ha":1010,"x_min":-39,"x_max":1049,"o":"m 500 992 l 947 35 l 706 21 l 415 724 l 500 992 m 500 992 l 504 822 l 151 4 l 51 4 l 419 810 q 433 841 424 818 q 456 893 443 864 q 477 949 468 922 q 488 992 486 976 l 500 992 m 644 331 l 644 272 l 236 272 l 236 331 l 644 331 m 193 101 q 189 54 182 74 q 213 24 196 35 q 246 14 229 14 l 258 14 l 258 0 l -39 0 l -39 14 q -33 14 -39 14 q -26 14 -26 14 q 40 34 6 14 q 96 101 74 54 l 193 101 m 757 0 q 686 -39 706 -10 q 668 -100 667 -68 q 697 -165 671 -140 q 760 -189 724 -189 q 831 -158 797 -189 l 839 -167 q 801 -240 832 -215 q 730 -269 771 -265 q 651 -257 689 -274 q 588 -206 613 -240 q 571 -117 564 -171 q 600 -49 575 -74 q 656 -4 625 -24 q 685 35 682 11 q 672 101 689 58 l 918 99 q 973 36 940 53 q 1038 15 1006 19 q 1043 15 1038 15 q 1049 14 1049 14 l 1049 0 q 988 3 1024 0 q 910 8 951 6 q 828 8 868 10 q 757 0 788 7 z "},"Å":{"ha":996,"x_min":-39,"x_max":1035,"o":"m 492 992 l 944 8 l 696 8 l 407 724 l 492 992 m 193 101 q 189 54 182 74 q 213 24 196 35 q 246 14 229 14 l 258 14 l 258 0 l -39 0 l -39 14 q -33 14 -39 14 q -26 14 -26 14 q 40 34 6 14 q 96 101 74 54 l 193 101 m 492 992 l 497 822 l 153 4 l 51 4 l 411 810 q 426 841 415 818 q 448 893 436 864 q 469 949 460 922 q 479 992 479 976 l 492 992 m 638 331 l 638 272 l 229 272 l 229 331 l 638 331 m 658 101 l 901 101 q 958 34 925 54 q 1024 14 992 14 q 1029 14 1024 14 q 1035 14 1035 14 l 1035 0 l 593 0 l 593 14 l 606 14 q 654 37 633 14 q 658 101 675 60 m 488 1168 q 579 1141 542 1168 q 617 1068 617 1114 q 579 996 617 1025 q 488 967 542 967 q 395 995 433 967 q 358 1067 357 1024 q 395 1140 357 1113 q 488 1168 433 1168 m 488 1140 q 444 1121 461 1140 q 426 1067 426 1101 q 444 1015 426 1035 q 488 994 461 994 q 531 1015 514 994 q 547 1067 549 1035 q 531 1121 549 1101 q 488 1140 514 1140 z "},"Ã":{"ha":996,"x_min":-39,"x_max":1035,"o":"m 492 1000 l 944 8 l 696 8 l 407 732 l 492 1000 m 193 101 q 189 54 182 74 q 213 24 196 35 q 246 14 229 14 l 258 14 l 258 0 l -39 0 l -39 14 q -33 14 -39 14 q -26 14 -26 14 q 40 34 6 14 q 96 101 74 54 l 193 101 m 492 1000 l 497 831 l 153 4 l 51 4 l 411 818 q 426 849 415 826 q 448 901 436 872 q 469 958 460 931 q 479 1000 479 985 l 492 1000 m 638 331 l 638 272 l 229 272 l 229 331 l 638 331 m 658 101 l 901 101 q 958 34 925 54 q 1024 14 992 14 q 1029 14 1024 14 q 1035 14 1035 14 l 1035 0 l 593 0 l 593 14 l 606 14 q 654 37 633 14 q 658 101 675 60 z "},"Æ":{"ha":1350,"x_min":-33,"x_max":1313,"o":"m 217 99 q 207 55 203 74 q 228 25 211 36 q 263 14 244 14 l 276 14 l 276 0 l -33 0 l -33 14 q -28 14 -33 14 q -22 14 -22 14 q 42 37 11 14 q 103 100 74 60 l 217 99 m 856 972 l 856 0 l 647 0 l 647 908 l 856 972 m 650 81 l 650 0 l 564 0 l 565 14 q 572 14 565 14 q 578 14 578 14 q 626 34 606 14 q 647 81 646 54 l 650 81 m 1231 60 l 1231 0 l 851 0 l 851 60 l 1231 60 m 1163 500 l 1163 442 l 407 442 l 414 500 l 1163 500 m 1229 972 l 1229 913 l 732 913 l 678 857 l 160 4 l 39 4 l 635 899 q 640 940 650 922 q 606 958 629 958 l 599 958 l 599 972 l 1229 972 m 1313 271 l 1250 0 l 993 0 l 1039 60 q 1201 117 1133 60 q 1299 271 1268 174 l 1313 271 m 1163 446 l 1163 311 l 1149 311 l 1149 324 q 1115 408 1149 374 q 1031 442 1082 442 l 1031 446 l 1163 446 m 1163 632 l 1163 497 l 1031 497 l 1031 500 q 1115 535 1082 501 q 1149 619 1149 569 l 1149 632 l 1163 632 m 1229 917 l 1229 763 l 1215 763 l 1215 776 q 1180 876 1217 839 q 1081 913 1143 913 l 1081 917 l 1229 917 m 1229 997 l 1229 957 l 1060 972 q 1124 976 1090 972 q 1188 986 1158 981 q 1229 997 1217 992 z "},"B":{"ha":936,"x_min":58,"x_max":889,"o":"m 219 972 l 460 972 q 641 948 561 972 q 767 872 721 924 q 813 735 813 819 q 788 627 813 671 q 725 559 764 583 q 643 529 686 535 q 769 490 713 524 q 857 401 825 457 q 889 271 889 346 q 840 122 889 182 q 703 31 792 61 q 499 0 615 0 l 361 0 q 362 16 361 0 q 363 47 363 32 q 363 63 363 63 l 438 63 q 548 86 500 63 q 623 160 596 110 q 650 288 650 210 q 631 392 650 349 q 581 462 613 435 q 508 501 550 489 q 421 514 467 514 l 421 526 q 483 537 453 526 q 538 569 514 547 q 576 628 563 592 q 590 717 590 665 q 568 831 590 788 q 506 893 546 874 q 413 913 467 913 l 233 913 q 230 928 233 914 q 223 958 226 943 q 219 972 219 972 m 374 972 l 374 0 l 165 0 l 165 972 l 374 972 m 169 101 l 169 0 l 58 0 l 58 14 q 68 14 61 14 q 76 14 75 14 q 138 40 113 14 q 165 101 164 65 l 169 101 m 169 871 l 165 871 q 138 933 164 907 q 76 958 113 958 q 68 958 75 958 q 58 958 61 958 l 58 972 l 169 972 l 169 871 z "},"C":{"ha":1083,"x_min":63,"x_max":1015,"o":"m 1003 406 l 1015 167 q 933 74 985 115 q 806 6 882 32 q 625 -19 729 -19 q 328 42 456 -18 q 132 215 201 103 q 63 488 63 328 q 131 756 63 643 q 326 931 199 869 q 629 992 453 992 q 828 969 740 992 q 975 915 917 947 l 978 678 l 965 678 q 843 874 928 815 q 644 933 758 933 q 454 879 533 933 q 332 726 375 825 q 289 490 289 628 q 330 253 289 353 q 447 97 371 153 q 625 39 522 42 q 806 74 732 39 q 924 189 879 108 q 992 406 969 269 l 1003 406 z "},"Ć":{"ha":1083,"x_min":63,"x_max":1015,"o":"m 1003 406 l 1015 167 q 933 74 985 115 q 806 6 882 32 q 625 -19 729 -19 q 328 42 456 -18 q 132 215 201 103 q 63 488 63 328 q 131 756 63 643 q 326 931 199 869 q 629 992 453 992 q 828 969 740 992 q 975 915 917 947 l 978 678 l 965 678 q 843 874 928 815 q 644 933 758 933 q 454 879 533 933 q 332 726 375 825 q 289 490 289 628 q 330 253 289 353 q 447 97 371 153 q 625 39 522 42 q 806 74 732 39 q 924 189 879 108 q 992 406 969 269 l 1003 406 z "},"Č":{"ha":1083,"x_min":63,"x_max":1015,"o":"m 1003 406 l 1015 167 q 933 74 985 115 q 806 6 882 32 q 625 -19 729 -19 q 328 42 456 -18 q 132 215 201 103 q 63 488 63 328 q 131 756 63 643 q 326 931 199 869 q 629 992 453 992 q 828 969 740 992 q 975 915 917 947 l 978 678 l 965 678 q 843 874 928 815 q 644 933 758 933 q 454 879 533 933 q 332 726 375 825 q 289 490 289 628 q 330 253 289 353 q 447 97 371 153 q 625 39 522 42 q 806 74 732 39 q 924 189 879 108 q 992 406 969 269 l 1003 406 z "},"Ç":{"ha":1083,"x_min":63,"x_max":1015,"o":"m 1003 406 l 1015 167 q 933 74 985 115 q 806 6 882 32 q 625 -19 729 -19 q 328 42 456 -18 q 132 215 201 103 q 63 488 63 328 q 131 756 63 643 q 326 931 199 869 q 629 992 453 992 q 828 969 740 992 q 975 915 917 947 l 978 678 l 965 678 q 843 874 928 815 q 644 933 758 933 q 454 879 533 933 q 332 726 375 825 q 289 490 289 628 q 330 253 289 353 q 447 97 371 153 q 625 39 522 42 q 806 74 732 39 q 924 189 879 108 q 992 406 969 269 l 1003 406 z "},"Ċ":{"ha":1083,"x_min":63,"x_max":1015,"o":"m 1003 406 l 1015 167 q 933 74 985 115 q 806 6 882 32 q 625 -19 729 -19 q 328 42 456 -18 q 132 215 201 103 q 63 488 63 328 q 131 756 63 643 q 326 931 199 869 q 629 992 453 992 q 828 969 740 992 q 975 915 917 947 l 978 678 l 965 678 q 843 874 928 815 q 644 933 758 933 q 454 879 533 933 q 332 726 375 825 q 289 490 289 628 q 330 253 289 353 q 447 97 371 153 q 625 39 522 42 q 806 74 732 39 q 924 189 879 108 q 992 406 969 269 l 1003 406 z "},"D":{"ha":1150,"x_min":58,"x_max":1094,"o":"m 563 972 q 846 913 726 972 q 1030 745 965 854 q 1094 486 1094 636 q 1030 227 1094 336 q 846 59 965 118 q 563 0 726 0 l 232 0 l 231 58 q 315 58 271 58 q 399 58 358 58 q 474 58 440 58 q 526 58 507 58 q 546 58 546 58 q 718 110 646 58 q 829 258 790 163 q 868 486 868 354 q 829 714 868 618 q 718 862 790 810 q 546 914 646 914 q 526 914 546 914 q 471 914 506 914 q 393 914 436 914 q 304 914 350 914 q 217 914 258 914 l 217 972 l 563 972 m 374 972 l 374 0 l 165 0 l 165 972 l 374 972 m 169 101 l 169 0 l 58 0 l 58 14 q 67 14 58 14 q 76 14 76 14 q 138 40 113 14 q 165 101 164 65 l 169 101 m 169 871 l 165 871 q 139 933 165 907 q 76 958 113 958 q 68 958 76 958 q 60 958 60 958 l 58 972 l 169 972 l 169 871 z "},"Ð":{"ha":1150,"x_min":58,"x_max":1094,"o":"m 58 515 l 556 515 l 556 457 l 58 457 l 58 515 m 565 972 q 848 913 729 972 q 1031 745 967 854 q 1094 486 1094 636 q 1031 227 1094 336 q 848 59 967 118 q 565 0 729 0 l 235 0 l 233 58 q 317 58 274 58 q 402 58 361 58 q 476 58 443 58 q 529 58 510 58 q 549 58 549 58 q 722 110 649 58 q 835 258 794 163 q 875 486 875 354 q 835 714 875 618 q 722 862 794 810 q 549 914 649 914 q 528 914 549 914 q 472 914 507 914 q 395 914 438 914 q 307 914 353 914 q 219 914 261 914 l 219 972 l 565 972 m 376 972 l 376 0 l 168 0 l 168 972 l 376 972 m 172 101 l 172 0 l 61 0 l 61 14 q 70 14 61 14 q 79 14 79 14 q 141 40 115 14 q 168 101 167 65 l 172 101 m 172 871 l 168 871 q 141 933 167 907 q 79 958 115 958 q 71 958 79 958 q 61 958 63 958 l 61 972 l 172 972 l 172 871 z "},"Ď":{"ha":1150,"x_min":58,"x_max":1094,"o":"m 563 972 q 846 913 726 972 q 1030 745 965 854 q 1094 486 1094 636 q 1030 227 1094 336 q 846 59 965 118 q 563 0 726 0 l 232 0 l 231 58 q 315 58 271 58 q 399 58 358 58 q 474 58 440 58 q 526 58 507 58 q 546 58 546 58 q 718 110 646 58 q 829 258 790 163 q 868 486 868 354 q 829 714 868 618 q 718 862 790 810 q 546 914 646 914 q 526 914 546 914 q 471 914 506 914 q 393 914 436 914 q 304 914 350 914 q 217 914 258 914 l 217 972 l 563 972 m 374 972 l 374 0 l 165 0 l 165 972 l 374 972 m 169 101 l 169 0 l 58 0 l 58 14 q 67 14 58 14 q 76 14 76 14 q 138 40 113 14 q 165 101 164 65 l 169 101 m 169 871 l 165 871 q 139 933 165 907 q 76 958 113 958 q 68 958 76 958 q 60 958 60 958 l 58 972 l 169 972 l 169 871 z "},"Đ":{"ha":1150,"x_min":58,"x_max":1094,"o":"m 563 972 q 846 913 726 972 q 1030 745 965 854 q 1094 486 1094 636 q 1030 227 1094 336 q 846 59 965 118 q 563 0 726 0 l 232 0 l 231 58 q 315 58 271 58 q 399 58 358 58 q 474 58 440 58 q 526 58 507 58 q 546 58 546 58 q 718 110 646 58 q 829 258 790 163 q 868 486 868 354 q 829 714 868 618 q 718 862 790 810 q 546 914 646 914 q 526 914 546 914 q 471 914 506 914 q 393 914 436 914 q 304 914 350 914 q 217 914 258 914 l 217 972 l 563 972 m 374 972 l 374 0 l 165 0 l 165 972 l 374 972 m 169 101 l 169 0 l 58 0 l 58 14 q 67 14 58 14 q 76 14 76 14 q 138 40 113 14 q 165 101 164 65 l 169 101 m 169 871 l 165 871 q 139 933 165 907 q 76 958 113 958 q 68 958 76 958 q 60 958 60 958 l 58 972 l 169 972 l 169 871 z "},"E":{"ha":878,"x_min":58,"x_max":842,"o":"m 374 972 l 374 0 l 165 0 l 165 972 l 374 972 m 740 60 l 774 0 l 369 0 l 369 60 l 740 60 m 689 508 l 689 450 l 369 450 l 369 508 l 689 508 m 757 972 l 757 913 l 369 913 l 369 972 l 757 972 m 842 283 l 778 0 l 506 0 l 556 60 q 678 87 625 60 q 768 165 731 114 q 828 283 806 215 l 842 283 m 689 453 l 689 319 l 675 319 l 675 332 q 642 415 675 382 q 557 450 608 449 l 557 453 l 689 453 m 689 639 l 689 506 l 557 506 l 557 508 q 642 544 608 510 q 675 628 675 578 l 675 639 l 689 639 m 757 917 l 757 754 l 743 754 l 743 771 q 705 874 743 835 q 601 914 667 913 l 601 917 l 757 917 m 757 997 l 757 957 l 588 972 q 652 976 618 972 q 715 986 686 981 q 757 997 744 992 m 169 101 l 169 0 l 58 0 l 58 14 q 67 14 58 14 q 76 14 76 14 q 138 40 113 14 q 165 101 164 65 l 169 101 m 169 871 l 165 871 q 138 933 164 907 q 76 958 113 958 q 67 958 76 958 q 58 958 58 958 l 58 972 l 169 972 l 169 871 z "},"É":{"ha":878,"x_min":58,"x_max":842,"o":"m 374 972 l 374 0 l 165 0 l 165 972 l 374 972 m 740 60 l 774 0 l 369 0 l 369 60 l 740 60 m 689 508 l 689 450 l 369 450 l 369 508 l 689 508 m 757 972 l 757 913 l 369 913 l 369 972 l 757 972 m 842 283 l 778 0 l 506 0 l 556 60 q 678 87 625 60 q 768 165 731 114 q 828 283 806 215 l 842 283 m 689 453 l 689 319 l 675 319 l 675 332 q 642 415 675 382 q 557 450 608 449 l 557 453 l 689 453 m 689 639 l 689 506 l 557 506 l 557 508 q 642 544 608 510 q 675 628 675 578 l 675 639 l 689 639 m 757 917 l 757 754 l 743 754 l 743 771 q 705 874 743 835 q 601 914 667 913 l 601 917 l 757 917 m 757 997 l 757 957 l 588 972 q 652 976 618 972 q 715 986 686 981 q 757 997 744 992 m 169 101 l 169 0 l 58 0 l 58 14 q 67 14 58 14 q 76 14 76 14 q 138 40 113 14 q 165 101 164 65 l 169 101 m 169 871 l 165 871 q 138 933 164 907 q 76 958 113 958 q 67 958 76 958 q 58 958 58 958 l 58 972 l 169 972 l 169 871 z "},"Ě":{"ha":878,"x_min":58,"x_max":842,"o":"m 374 972 l 374 0 l 165 0 l 165 972 l 374 972 m 740 60 l 774 0 l 369 0 l 369 60 l 740 60 m 689 508 l 689 450 l 369 450 l 369 508 l 689 508 m 757 972 l 757 913 l 369 913 l 369 972 l 757 972 m 842 283 l 778 0 l 506 0 l 556 60 q 678 87 625 60 q 768 165 731 114 q 828 283 806 215 l 842 283 m 689 453 l 689 319 l 675 319 l 675 332 q 642 415 675 382 q 557 450 608 449 l 557 453 l 689 453 m 689 639 l 689 506 l 557 506 l 557 508 q 642 544 608 510 q 675 628 675 578 l 675 639 l 689 639 m 757 917 l 757 754 l 743 754 l 743 771 q 705 874 743 835 q 601 914 667 913 l 601 917 l 757 917 m 757 997 l 757 957 l 588 972 q 652 976 618 972 q 715 986 686 981 q 757 997 744 992 m 169 101 l 169 0 l 58 0 l 58 14 q 67 14 58 14 q 76 14 76 14 q 138 40 113 14 q 165 101 164 65 l 169 101 m 169 871 l 165 871 q 138 933 164 907 q 76 958 113 958 q 67 958 76 958 q 58 958 58 958 l 58 972 l 169 972 l 169 871 z "},"Ê":{"ha":878,"x_min":58,"x_max":842,"o":"m 374 972 l 374 0 l 165 0 l 165 972 l 374 972 m 740 60 l 774 0 l 369 0 l 369 60 l 740 60 m 689 508 l 689 450 l 369 450 l 369 508 l 689 508 m 757 972 l 757 913 l 369 913 l 369 972 l 757 972 m 842 283 l 778 0 l 506 0 l 556 60 q 678 87 625 60 q 768 165 731 114 q 828 283 806 215 l 842 283 m 689 453 l 689 319 l 675 319 l 675 332 q 642 415 675 382 q 557 450 608 449 l 557 453 l 689 453 m 689 639 l 689 506 l 557 506 l 557 508 q 642 544 608 510 q 675 628 675 578 l 675 639 l 689 639 m 757 917 l 757 754 l 743 754 l 743 771 q 705 874 743 835 q 601 914 667 913 l 601 917 l 757 917 m 757 997 l 757 957 l 588 972 q 652 976 618 972 q 715 986 686 981 q 757 997 744 992 m 169 101 l 169 0 l 58 0 l 58 14 q 67 14 58 14 q 76 14 76 14 q 138 40 113 14 q 165 101 164 65 l 169 101 m 169 871 l 165 871 q 138 933 164 907 q 76 958 113 958 q 67 958 76 958 q 58 958 58 958 l 58 972 l 169 972 l 169 871 z "},"Ë":{"ha":878,"x_min":58,"x_max":842,"o":"m 374 972 l 374 0 l 165 0 l 165 972 l 374 972 m 740 60 l 774 0 l 369 0 l 369 60 l 740 60 m 689 508 l 689 450 l 369 450 l 369 508 l 689 508 m 757 972 l 757 913 l 369 913 l 369 972 l 757 972 m 842 283 l 778 0 l 506 0 l 556 60 q 678 87 625 60 q 768 165 731 114 q 828 283 806 215 l 842 283 m 689 453 l 689 319 l 675 319 l 675 332 q 642 415 675 382 q 557 450 608 449 l 557 453 l 689 453 m 689 639 l 689 506 l 557 506 l 557 508 q 642 544 608 510 q 675 628 675 578 l 675 639 l 689 639 m 757 917 l 757 754 l 743 754 l 743 771 q 705 874 743 835 q 601 914 667 913 l 601 917 l 757 917 m 757 997 l 757 957 l 588 972 q 652 976 618 972 q 715 986 686 981 q 757 997 744 992 m 169 101 l 169 0 l 58 0 l 58 14 q 67 14 58 14 q 76 14 76 14 q 138 40 113 14 q 165 101 164 65 l 169 101 m 169 871 l 165 871 q 138 933 164 907 q 76 958 113 958 q 67 958 76 958 q 58 958 58 958 l 58 972 l 169 972 l 169 871 z "},"Ė":{"ha":878,"x_min":58,"x_max":842,"o":"m 374 972 l 374 0 l 165 0 l 165 972 l 374 972 m 740 60 l 774 0 l 369 0 l 369 60 l 740 60 m 689 508 l 689 450 l 369 450 l 369 508 l 689 508 m 757 972 l 757 913 l 369 913 l 369 972 l 757 972 m 842 283 l 778 0 l 506 0 l 556 60 q 678 87 625 60 q 768 165 731 114 q 828 283 806 215 l 842 283 m 689 453 l 689 319 l 675 319 l 675 332 q 642 415 675 382 q 557 450 608 449 l 557 453 l 689 453 m 689 639 l 689 506 l 557 506 l 557 508 q 642 544 608 510 q 675 628 675 578 l 675 639 l 689 639 m 757 917 l 757 754 l 743 754 l 743 771 q 705 874 743 835 q 601 914 667 913 l 601 917 l 757 917 m 757 997 l 757 957 l 588 972 q 652 976 618 972 q 715 986 686 981 q 757 997 744 992 m 169 101 l 169 0 l 58 0 l 58 14 q 67 14 58 14 q 76 14 76 14 q 138 40 113 14 q 165 101 164 65 l 169 101 m 169 871 l 165 871 q 138 933 164 907 q 76 958 113 958 q 67 958 76 958 q 58 958 58 958 l 58 972 l 169 972 l 169 871 z "},"È":{"ha":878,"x_min":58,"x_max":842,"o":"m 374 972 l 374 0 l 165 0 l 165 972 l 374 972 m 740 60 l 774 0 l 369 0 l 369 60 l 740 60 m 689 508 l 689 450 l 369 450 l 369 508 l 689 508 m 757 972 l 757 913 l 369 913 l 369 972 l 757 972 m 842 283 l 778 0 l 506 0 l 556 60 q 678 87 625 60 q 768 165 731 114 q 828 283 806 215 l 842 283 m 689 453 l 689 319 l 675 319 l 675 332 q 642 415 675 382 q 557 450 608 449 l 557 453 l 689 453 m 689 639 l 689 506 l 557 506 l 557 508 q 642 544 608 510 q 675 628 675 578 l 675 639 l 689 639 m 757 917 l 757 754 l 743 754 l 743 771 q 705 874 743 835 q 601 914 667 913 l 601 917 l 757 917 m 757 997 l 757 957 l 588 972 q 652 976 618 972 q 715 986 686 981 q 757 997 744 992 m 169 101 l 169 0 l 58 0 l 58 14 q 67 14 58 14 q 76 14 76 14 q 138 40 113 14 q 165 101 164 65 l 169 101 m 169 871 l 165 871 q 138 933 164 907 q 76 958 113 958 q 67 958 76 958 q 58 958 58 958 l 58 972 l 169 972 l 169 871 z "},"Ē":{"ha":878,"x_min":58,"x_max":842,"o":"m 374 972 l 374 0 l 165 0 l 165 972 l 374 972 m 740 60 l 774 0 l 369 0 l 369 60 l 740 60 m 689 508 l 689 450 l 369 450 l 369 508 l 689 508 m 757 972 l 757 913 l 369 913 l 369 972 l 757 972 m 842 283 l 778 0 l 506 0 l 556 60 q 678 87 625 60 q 768 165 731 114 q 828 283 806 215 l 842 283 m 689 453 l 689 319 l 675 319 l 675 332 q 642 415 675 382 q 557 450 608 449 l 557 453 l 689 453 m 689 639 l 689 506 l 557 506 l 557 508 q 642 544 608 510 q 675 628 675 578 l 675 639 l 689 639 m 757 917 l 757 754 l 743 754 l 743 771 q 705 874 743 835 q 601 914 667 913 l 601 917 l 757 917 m 757 997 l 757 957 l 588 972 q 652 976 618 972 q 715 986 686 981 q 757 997 744 992 m 169 101 l 169 0 l 58 0 l 58 14 q 67 14 58 14 q 76 14 76 14 q 138 40 113 14 q 165 101 164 65 l 169 101 m 169 871 l 165 871 q 138 933 164 907 q 76 958 113 958 q 67 958 76 958 q 58 958 58 958 l 58 972 l 169 972 l 169 871 z "},"Ę":{"ha":878,"x_min":58,"x_max":850,"o":"m 374 972 l 374 0 l 165 0 l 165 972 l 374 972 m 740 60 l 774 0 l 369 0 l 369 60 l 740 60 m 689 508 l 689 450 l 369 450 l 369 508 l 689 508 m 757 972 l 757 913 l 369 913 l 369 972 l 757 972 m 842 283 l 778 0 l 506 0 l 556 60 q 678 87 625 60 q 768 165 731 114 q 828 283 806 215 l 842 283 m 689 453 l 689 319 l 675 319 l 675 332 q 642 415 675 382 q 557 450 608 449 l 557 453 l 689 453 m 689 639 l 689 506 l 557 506 l 557 508 q 642 544 608 510 q 675 628 675 578 l 675 639 l 689 639 m 757 917 l 757 754 l 743 754 l 743 771 q 705 874 743 835 q 601 914 667 913 l 601 917 l 757 917 m 757 997 l 757 957 l 588 972 q 652 976 618 972 q 715 986 686 981 q 757 997 744 992 m 169 101 l 169 0 l 58 0 l 58 14 q 67 14 58 14 q 76 14 76 14 q 138 40 113 14 q 165 101 164 65 l 169 101 m 169 871 l 165 871 q 138 933 164 907 q 76 958 113 958 q 67 958 76 958 q 58 958 58 958 l 58 972 l 169 972 l 169 871 z "},"F":{"ha":828,"x_min":58,"x_max":757,"o":"m 374 972 l 374 0 l 165 0 l 165 972 l 374 972 m 689 508 l 689 450 l 369 450 l 369 508 l 689 508 m 757 972 l 757 913 l 369 913 l 369 972 l 757 972 m 689 453 l 689 319 l 675 319 l 675 332 q 642 415 675 382 q 557 450 608 449 l 557 453 l 689 453 m 689 639 l 689 506 l 557 506 l 557 508 q 642 544 608 510 q 675 628 675 578 l 675 639 l 689 639 m 757 917 l 757 763 l 743 763 l 743 776 q 706 876 743 839 q 607 913 669 913 l 607 917 l 757 917 m 757 997 l 757 957 l 588 972 q 652 976 618 972 q 715 986 686 981 q 757 997 744 992 m 169 101 l 169 0 l 58 0 l 58 14 q 67 14 58 14 q 76 14 76 14 q 138 40 113 14 q 165 101 164 65 l 169 101 m 169 871 l 165 871 q 138 933 164 907 q 76 958 113 958 q 67 958 76 958 q 58 958 58 958 l 58 972 l 169 972 l 169 871 m 369 101 l 374 101 q 401 40 375 65 q 463 14 426 14 q 471 14 463 14 q 481 14 479 14 l 481 0 l 369 0 l 369 101 z "},"G":{"ha":1161,"x_min":63,"x_max":1139,"o":"m 1049 389 l 1049 160 q 949 76 1015 118 q 791 8 883 35 q 588 -19 699 -19 q 311 42 429 -19 q 128 218 193 104 q 63 488 63 332 q 127 756 63 643 q 312 930 192 868 q 596 992 432 992 q 744 981 672 992 q 878 954 817 971 q 979 915 939 938 l 982 678 l 969 678 q 893 828 943 772 q 777 909 843 885 q 638 933 711 933 q 446 878 524 933 q 328 722 368 824 q 289 479 289 621 q 326 247 289 346 q 433 94 363 147 q 606 39 504 40 q 705 55 657 39 q 789 101 753 71 q 840 176 825 132 l 842 389 q 771 451 842 451 l 749 451 l 749 465 l 1139 465 l 1139 451 l 1118 451 q 1049 389 1046 451 z "},"Ğ":{"ha":1161,"x_min":63,"x_max":1139,"o":"m 1049 389 l 1049 160 q 949 76 1015 118 q 791 8 883 35 q 588 -19 699 -19 q 311 42 429 -19 q 128 218 193 104 q 63 488 63 332 q 127 756 63 643 q 312 930 192 868 q 596 992 432 992 q 744 981 672 992 q 878 954 817 971 q 979 915 939 938 l 982 678 l 969 678 q 893 828 943 772 q 777 909 843 885 q 638 933 711 933 q 446 878 524 933 q 328 722 368 824 q 289 479 289 621 q 326 247 289 346 q 433 94 363 147 q 606 39 504 40 q 705 55 657 39 q 789 101 753 71 q 840 176 825 132 l 842 389 q 771 451 842 451 l 749 451 l 749 465 l 1139 465 l 1139 451 l 1118 451 q 1049 389 1046 451 z "},"Ģ":{"ha":1161,"x_min":63,"x_max":1139,"o":"m 1049 389 l 1049 160 q 949 76 1015 118 q 791 8 883 35 q 588 -19 699 -19 q 311 42 429 -19 q 128 218 193 104 q 63 488 63 332 q 127 756 63 643 q 312 930 192 868 q 596 992 432 992 q 744 981 672 992 q 878 954 817 971 q 979 915 939 938 l 982 678 l 969 678 q 893 828 943 772 q 777 909 843 885 q 638 933 711 933 q 446 878 524 933 q 328 722 368 824 q 289 479 289 621 q 326 247 289 346 q 433 94 363 147 q 606 39 504 40 q 705 55 657 39 q 789 101 753 71 q 840 176 825 132 l 842 389 q 771 451 842 451 l 749 451 l 749 465 l 1139 465 l 1139 451 l 1118 451 q 1049 389 1046 451 m 531 -157 q 551 -107 531 -125 q 599 -89 571 -89 q 663 -123 642 -89 q 685 -200 685 -157 q 642 -304 685 -264 q 535 -346 600 -344 l 531 -332 q 566 -307 553 -324 q 579 -269 579 -290 q 574 -242 579 -256 q 557 -217 569 -229 q 538 -189 546 -204 q 531 -157 531 -174 z "},"Ġ":{"ha":1161,"x_min":63,"x_max":1139,"o":"m 1049 389 l 1049 160 q 949 76 1015 118 q 791 8 883 35 q 588 -19 699 -19 q 311 42 429 -19 q 128 218 193 104 q 63 488 63 332 q 127 756 63 643 q 312 930 192 868 q 596 992 432 992 q 744 981 672 992 q 878 954 817 971 q 979 915 939 938 l 982 678 l 969 678 q 893 828 943 772 q 777 909 843 885 q 638 933 711 933 q 446 878 524 933 q 328 722 368 824 q 289 479 289 621 q 326 247 289 346 q 433 94 363 147 q 606 39 504 40 q 705 55 657 39 q 789 101 753 71 q 840 176 825 132 l 842 389 q 771 451 842 451 l 749 451 l 749 465 l 1139 465 l 1139 451 l 1118 451 q 1049 389 1046 451 z "},"H":{"ha":1197,"x_min":58,"x_max":1139,"o":"m 1032 972 l 1032 0 l 824 0 l 824 972 l 1032 972 m 374 972 l 374 0 l 165 0 l 165 972 l 374 972 m 836 513 l 836 454 l 360 454 l 360 513 l 836 513 m 169 101 l 169 0 l 58 0 l 58 14 q 67 14 58 14 q 76 14 76 14 q 138 40 113 14 q 165 101 164 65 l 169 101 m 169 871 l 165 871 q 138 933 164 907 q 76 958 113 958 q 67 958 76 958 q 58 958 58 958 l 58 972 l 169 972 l 169 871 m 369 101 l 374 101 q 401 40 375 65 q 463 14 426 14 q 471 14 463 14 q 481 14 479 14 l 481 0 l 369 0 l 369 101 m 369 871 l 369 972 l 481 972 l 481 958 q 471 958 479 958 q 463 958 463 958 q 401 933 426 958 q 374 871 375 907 l 369 871 m 828 101 l 828 0 l 717 0 l 717 14 q 726 14 718 14 q 735 14 735 14 q 797 40 771 14 q 824 101 824 65 l 828 101 m 828 871 l 824 871 q 797 933 824 907 q 735 958 771 958 q 726 958 735 958 q 717 958 718 958 l 717 972 l 828 972 l 828 871 m 1028 101 l 1032 101 q 1059 40 1033 65 q 1121 14 1085 14 q 1130 14 1121 14 q 1139 14 1139 14 l 1139 0 l 1028 0 l 1028 101 m 1028 871 l 1028 972 l 1139 972 l 1139 958 q 1130 958 1139 958 q 1121 958 1121 958 q 1059 933 1085 958 q 1032 871 1033 907 l 1028 871 z "},"Ħ":{"ha":1178,"x_min":49,"x_max":1129,"o":"m 1115 742 l 1115 683 l 67 683 l 67 742 l 1115 742 m 1022 972 l 1022 0 l 814 0 l 814 972 l 1022 972 m 364 972 l 364 0 l 156 0 l 156 972 l 364 972 m 826 513 l 826 454 l 350 454 l 350 513 l 826 513 m 160 101 l 160 0 l 49 0 l 49 14 q 58 14 49 14 q 67 14 67 14 q 128 40 103 14 q 156 101 154 65 l 160 101 m 160 871 l 156 871 q 128 933 154 907 q 67 958 103 958 q 58 958 67 958 q 49 958 49 958 l 49 972 l 160 972 l 160 871 m 360 101 l 364 101 q 391 40 365 65 q 453 14 417 14 q 461 14 453 14 q 471 14 469 14 l 471 0 l 360 0 l 360 101 m 360 871 l 360 972 l 471 972 l 471 958 q 461 958 469 958 q 453 958 453 958 q 391 933 417 958 q 364 871 365 907 l 360 871 m 818 101 l 818 0 l 707 0 l 707 14 q 717 14 708 14 q 725 14 725 14 q 788 40 761 14 q 814 101 814 65 l 818 101 m 818 871 l 814 871 q 788 933 814 907 q 725 958 761 958 q 717 958 725 958 q 707 958 708 958 l 707 972 l 818 972 l 818 871 m 1018 101 l 1022 101 q 1049 40 1024 65 q 1111 14 1075 14 q 1120 14 1111 14 q 1129 14 1129 14 l 1129 0 l 1018 0 l 1018 101 m 1018 871 l 1018 972 l 1129 972 l 1129 958 q 1120 958 1129 958 q 1111 958 1111 958 q 1049 933 1075 958 q 1022 871 1024 907 l 1018 871 z "},"I":{"ha":538,"x_min":58,"x_max":481,"o":"m 374 972 l 374 0 l 165 0 l 165 972 l 374 972 m 169 101 l 169 0 l 58 0 l 58 14 q 67 14 58 14 q 76 14 76 14 q 138 40 113 14 q 165 101 164 65 l 169 101 m 169 871 l 165 871 q 138 933 164 907 q 76 958 113 958 q 67 958 76 958 q 58 958 58 958 l 58 972 l 169 972 l 169 871 m 369 101 l 374 101 q 401 40 375 65 q 463 14 426 14 q 471 14 463 14 q 481 14 479 14 l 481 0 l 369 0 l 369 101 m 369 871 l 369 972 l 481 972 l 481 958 q 471 958 479 958 q 463 958 463 958 q 401 933 426 958 q 374 871 375 907 l 369 871 z "},"Ĳ":{"ha":1071,"x_min":58,"x_max":1021,"o":"m 374 972 l 374 0 l 165 0 l 165 972 l 374 972 m 169 101 l 169 0 l 58 0 l 58 14 q 67 14 58 14 q 76 14 76 14 q 138 40 113 14 q 165 101 164 65 l 169 101 m 169 871 l 165 871 q 138 933 164 907 q 76 958 113 958 q 67 958 76 958 q 58 958 58 958 l 58 972 l 169 972 l 169 871 m 369 101 l 374 101 q 401 40 375 65 q 463 14 426 14 q 471 14 463 14 q 481 14 479 14 l 481 0 l 369 0 l 369 101 m 369 871 l 369 972 l 481 972 l 481 958 q 471 958 479 958 q 463 958 463 958 q 401 933 426 958 q 374 871 375 907 l 369 871 m 915 972 l 915 42 q 885 -97 915 -35 q 802 -201 854 -158 q 683 -265 750 -244 q 544 -278 617 -285 l 544 -265 q 639 -191 603 -240 q 691 -80 675 -142 q 707 46 707 -18 l 707 972 l 915 972 m 711 871 l 707 871 q 680 933 706 907 q 618 958 654 958 q 609 958 618 958 q 600 958 600 958 l 600 972 l 711 972 l 711 871 m 911 871 l 911 972 l 1022 972 l 1022 958 q 1013 958 1022 958 q 1004 958 1004 958 q 942 933 968 958 q 915 871 917 907 l 911 871 z "},"Í":{"ha":538,"x_min":58,"x_max":539,"o":"m 374 972 l 374 0 l 165 0 l 165 972 l 374 972 m 169 101 l 169 0 l 58 0 l 58 14 q 67 14 58 14 q 76 14 76 14 q 138 40 113 14 q 165 101 164 65 l 169 101 m 169 871 l 165 871 q 138 933 164 907 q 76 958 113 958 q 67 958 76 958 q 58 958 58 958 l 58 972 l 169 972 l 169 871 m 369 101 l 374 101 q 401 40 375 65 q 463 14 426 14 q 471 14 463 14 q 481 14 479 14 l 481 0 l 369 0 l 369 101 m 369 871 l 369 972 l 481 972 l 481 958 q 471 958 479 958 q 463 958 463 958 q 401 933 426 958 q 374 871 375 907 l 369 871 z "},"Î":{"ha":538,"x_min":58,"x_max":488,"o":"m 374 972 l 374 0 l 165 0 l 165 972 l 374 972 m 169 101 l 169 0 l 58 0 l 58 14 q 67 14 58 14 q 76 14 76 14 q 138 40 113 14 q 165 101 164 65 l 169 101 m 169 871 l 165 871 q 138 933 164 907 q 76 958 113 958 q 67 958 76 958 q 58 958 58 958 l 58 972 l 169 972 l 169 871 m 369 101 l 374 101 q 401 40 375 65 q 463 14 426 14 q 471 14 463 14 q 481 14 479 14 l 481 0 l 369 0 l 369 101 m 369 871 l 369 972 l 481 972 l 481 958 q 471 958 479 958 q 463 958 463 958 q 401 933 426 958 q 374 871 375 907 l 369 871 z "},"Ï":{"ha":538,"x_min":19,"x_max":510,"o":"m 374 972 l 374 0 l 165 0 l 165 972 l 374 972 m 169 101 l 169 0 l 58 0 l 58 14 q 67 14 58 14 q 76 14 76 14 q 138 40 113 14 q 165 101 164 65 l 169 101 m 169 871 l 165 871 q 138 933 164 907 q 76 958 113 958 q 67 958 76 958 q 58 958 58 958 l 58 972 l 169 972 l 169 871 m 369 101 l 374 101 q 401 40 375 65 q 463 14 426 14 q 471 14 463 14 q 481 14 479 14 l 481 0 l 369 0 l 369 101 m 369 871 l 369 972 l 481 972 l 481 958 q 471 958 479 958 q 463 958 463 958 q 401 933 426 958 q 374 871 375 907 l 369 871 z "},"İ":{"ha":538,"x_min":58,"x_max":481,"o":"m 374 972 l 374 0 l 165 0 l 165 972 l 374 972 m 169 101 l 169 0 l 58 0 l 58 14 q 67 14 58 14 q 76 14 76 14 q 138 40 113 14 q 165 101 164 65 l 169 101 m 169 871 l 165 871 q 138 933 164 907 q 76 958 113 958 q 67 958 76 958 q 58 958 58 958 l 58 972 l 169 972 l 169 871 m 369 101 l 374 101 q 401 40 375 65 q 463 14 426 14 q 471 14 463 14 q 481 14 479 14 l 481 0 l 369 0 l 369 101 m 369 871 l 369 972 l 481 972 l 481 958 q 471 958 479 958 q 463 958 463 958 q 401 933 426 958 q 374 871 375 907 l 369 871 z "},"Ì":{"ha":538,"x_min":8,"x_max":481,"o":"m 374 972 l 374 0 l 165 0 l 165 972 l 374 972 m 169 101 l 169 0 l 58 0 l 58 14 q 67 14 58 14 q 76 14 76 14 q 138 40 113 14 q 165 101 164 65 l 169 101 m 169 871 l 165 871 q 138 933 164 907 q 76 958 113 958 q 67 958 76 958 q 58 958 58 958 l 58 972 l 169 972 l 169 871 m 369 101 l 374 101 q 401 40 375 65 q 463 14 426 14 q 471 14 463 14 q 481 14 479 14 l 481 0 l 369 0 l 369 101 m 369 871 l 369 972 l 481 972 l 481 958 q 471 958 479 958 q 463 958 463 958 q 401 933 426 958 q 374 871 375 907 l 369 871 m 303 1071 l 293 1061 q 199 1092 249 1072 q 99 1135 149 1111 q 8 1186 50 1160 q 44 1251 22 1224 q 103 1299 67 1279 q 172 1234 133 1272 q 244 1153 210 1196 q 303 1071 279 1111 z "},"Ī":{"ha":538,"x_min":58,"x_max":481,"o":"m 374 972 l 374 0 l 165 0 l 165 972 l 374 972 m 169 101 l 169 0 l 58 0 l 58 14 q 67 14 58 14 q 76 14 76 14 q 138 40 113 14 q 165 101 164 65 l 169 101 m 169 871 l 165 871 q 138 933 164 907 q 76 958 113 958 q 67 958 76 958 q 58 958 58 958 l 58 972 l 169 972 l 169 871 m 369 101 l 374 101 q 401 40 375 65 q 463 14 426 14 q 471 14 463 14 q 481 14 479 14 l 481 0 l 369 0 l 369 101 m 369 871 l 369 972 l 481 972 l 481 958 q 471 958 479 958 q 463 958 463 958 q 401 933 426 958 q 374 871 375 907 l 369 871 z "},"Į":{"ha":538,"x_min":58,"x_max":481,"o":"m 374 972 l 374 0 l 165 0 l 165 972 l 374 972 m 169 101 l 169 0 l 58 0 l 58 14 q 67 14 58 14 q 76 14 76 14 q 138 40 113 14 q 165 101 164 65 l 169 101 m 169 871 l 165 871 q 138 933 164 907 q 76 958 113 958 q 67 958 76 958 q 58 958 58 958 l 58 972 l 169 972 l 169 871 m 369 101 l 374 101 q 401 40 375 65 q 463 14 426 14 q 471 14 463 14 q 481 14 479 14 l 481 0 l 369 0 l 369 101 m 369 871 l 369 972 l 481 972 l 481 958 q 471 958 479 958 q 463 958 463 958 q 401 933 426 958 q 374 871 375 907 l 369 871 z "},"J":{"ha":535,"x_min":7,"x_max":485,"o":"m 378 972 l 378 42 q 347 -97 378 -35 q 265 -201 317 -158 q 146 -265 213 -244 q 7 -278 79 -285 l 7 -265 q 101 -191 65 -240 q 153 -80 138 -142 q 169 46 169 -18 l 169 972 l 378 972 m 174 871 l 169 871 q 142 933 168 907 q 81 958 117 958 q 72 958 81 958 q 63 958 63 958 l 63 972 l 174 972 l 174 871 m 374 871 l 374 972 l 485 972 l 485 958 q 476 958 485 958 q 467 958 467 958 q 405 933 431 958 q 378 871 379 907 l 374 871 z "},"K":{"ha":1051,"x_min":58,"x_max":1079,"o":"m 574 599 l 938 100 q 1003 37 969 58 q 1079 14 1036 15 l 1079 0 l 965 0 q 915 1 950 0 q 835 13 879 3 q 745 47 790 22 q 667 115 700 71 q 639 153 660 125 q 590 219 618 181 q 533 299 563 258 q 476 376 503 340 q 434 435 450 413 q 418 458 418 458 l 574 599 m 922 963 l 504 467 l 418 458 l 800 963 l 922 963 m 1019 972 l 1019 960 l 1014 960 q 928 941 968 960 q 861 892 889 922 l 749 894 q 754 939 765 918 q 715 960 743 960 l 701 960 l 701 972 l 1014 972 l 1019 972 m 374 972 l 374 0 l 165 0 l 165 972 l 374 972 m 169 101 l 169 0 l 58 0 l 58 14 q 67 14 60 14 q 76 14 75 14 q 138 40 113 14 q 165 101 164 65 l 169 101 m 169 871 l 165 871 q 138 933 164 907 q 76 958 113 958 q 67 958 75 958 q 58 958 60 958 l 58 972 l 169 972 l 169 871 m 369 101 l 374 101 q 401 40 375 65 q 463 14 426 14 q 472 14 464 14 q 481 14 479 14 l 481 0 l 369 0 l 369 101 m 369 871 l 369 972 l 481 972 l 481 958 q 472 958 479 958 q 463 958 464 958 q 401 933 426 958 q 374 871 375 907 l 369 871 z "},"Ķ":{"ha":1051,"x_min":58,"x_max":1079,"o":"m 574 599 l 938 100 q 1003 37 969 58 q 1079 14 1036 15 l 1079 0 l 965 0 q 915 1 950 0 q 835 13 879 3 q 745 47 790 22 q 667 115 700 71 q 639 153 660 125 q 590 219 618 181 q 533 299 563 258 q 476 376 503 340 q 434 435 450 413 q 418 458 418 458 l 574 599 m 922 963 l 504 467 l 418 458 l 800 963 l 922 963 m 1019 972 l 1019 960 l 1014 960 q 928 941 968 960 q 861 892 889 922 l 749 894 q 754 939 765 918 q 715 960 743 960 l 701 960 l 701 972 l 1014 972 l 1019 972 m 374 972 l 374 0 l 165 0 l 165 972 l 374 972 m 169 101 l 169 0 l 58 0 l 58 14 q 67 14 60 14 q 76 14 75 14 q 138 40 113 14 q 165 101 164 65 l 169 101 m 169 871 l 165 871 q 138 933 164 907 q 76 958 113 958 q 67 958 75 958 q 58 958 60 958 l 58 972 l 169 972 l 169 871 m 369 101 l 374 101 q 401 40 375 65 q 463 14 426 14 q 472 14 464 14 q 481 14 479 14 l 481 0 l 369 0 l 369 101 m 369 871 l 369 972 l 481 972 l 481 958 q 472 958 479 958 q 463 958 464 958 q 401 933 426 958 q 374 871 375 907 l 369 871 m 535 -157 q 555 -107 535 -125 q 603 -89 575 -89 q 667 -123 646 -89 q 689 -200 689 -157 q 647 -304 689 -264 q 539 -346 604 -344 l 535 -332 q 570 -307 557 -324 q 583 -269 583 -290 q 578 -242 583 -256 q 561 -217 574 -229 q 542 -189 550 -204 q 535 -157 535 -174 z "},"L":{"ha":857,"x_min":58,"x_max":842,"o":"m 374 972 l 374 0 l 165 0 l 165 972 l 374 972 m 740 60 l 774 0 l 369 0 l 369 60 l 740 60 m 842 283 l 778 0 l 506 0 l 556 60 q 678 87 625 60 q 768 165 731 114 q 828 283 806 215 l 842 283 m 169 101 l 169 0 l 58 0 l 58 14 q 67 14 58 14 q 76 14 76 14 q 138 40 113 14 q 165 101 164 65 l 169 101 m 169 871 l 165 871 q 138 933 164 907 q 76 958 113 958 q 67 958 76 958 q 58 958 58 958 l 58 972 l 169 972 l 169 871 m 369 871 l 369 972 l 481 972 l 481 958 q 471 958 479 958 q 463 958 463 958 q 401 933 426 958 q 374 871 375 907 l 369 871 z "},"Ĺ":{"ha":857,"x_min":58,"x_max":842,"o":"m 374 972 l 374 0 l 165 0 l 165 972 l 374 972 m 740 60 l 774 0 l 369 0 l 369 60 l 740 60 m 842 283 l 778 0 l 506 0 l 556 60 q 678 87 625 60 q 768 165 731 114 q 828 283 806 215 l 842 283 m 169 101 l 169 0 l 58 0 l 58 14 q 67 14 58 14 q 76 14 76 14 q 138 40 113 14 q 165 101 164 65 l 169 101 m 169 871 l 165 871 q 138 933 164 907 q 76 958 113 958 q 67 958 76 958 q 58 958 58 958 l 58 972 l 169 972 l 169 871 m 369 871 l 369 972 l 481 972 l 481 958 q 471 958 479 958 q 463 958 463 958 q 401 933 426 958 q 374 871 375 907 l 369 871 z "},"Ľ":{"ha":857,"x_min":58,"x_max":842,"o":"m 374 972 l 374 0 l 165 0 l 165 972 l 374 972 m 740 60 l 774 0 l 369 0 l 369 60 l 740 60 m 842 283 l 778 0 l 506 0 l 556 60 q 678 87 625 60 q 768 165 731 114 q 828 283 806 215 l 842 283 m 169 101 l 169 0 l 58 0 l 58 14 q 67 14 58 14 q 76 14 76 14 q 138 40 113 14 q 165 101 164 65 l 169 101 m 169 871 l 165 871 q 138 933 164 907 q 76 958 113 958 q 67 958 76 958 q 58 958 58 958 l 58 972 l 169 972 l 169 871 m 369 871 l 369 972 l 481 972 l 481 958 q 471 958 479 958 q 463 958 463 958 q 401 933 426 958 q 374 871 375 907 l 369 871 m 582 963 q 622 982 599 979 q 668 973 646 985 q 701 935 690 961 q 715 857 719 896 q 688 787 710 818 q 635 740 667 756 q 564 728 603 724 l 561 739 q 598 767 586 749 q 608 810 610 786 q 586 856 607 833 q 564 910 567 879 q 582 963 561 942 z "},"Ļ":{"ha":857,"x_min":58,"x_max":842,"o":"m 374 972 l 374 0 l 165 0 l 165 972 l 374 972 m 740 60 l 774 0 l 369 0 l 369 60 l 740 60 m 842 283 l 778 0 l 506 0 l 556 60 q 678 87 625 60 q 768 165 731 114 q 828 283 806 215 l 842 283 m 169 101 l 169 0 l 58 0 l 58 14 q 67 14 58 14 q 76 14 76 14 q 138 40 113 14 q 165 101 164 65 l 169 101 m 169 871 l 165 871 q 138 933 164 907 q 76 958 113 958 q 67 958 76 958 q 58 958 58 958 l 58 972 l 169 972 l 169 871 m 369 871 l 369 972 l 481 972 l 481 958 q 471 958 479 958 q 463 958 463 958 q 401 933 426 958 q 374 871 375 907 l 369 871 m 393 -157 q 413 -107 393 -125 q 461 -89 433 -89 q 526 -123 504 -89 q 547 -200 547 -157 q 505 -304 547 -264 q 397 -346 463 -344 l 393 -332 q 428 -307 415 -324 q 442 -269 442 -290 q 437 -242 442 -256 q 419 -217 432 -229 q 401 -189 408 -204 q 393 -157 393 -174 z "},"Ŀ":{"ha":857,"x_min":58,"x_max":842,"o":"m 374 972 l 374 0 l 165 0 l 165 972 l 374 972 m 169 101 l 169 0 l 58 0 l 58 14 q 67 14 58 14 q 76 14 76 14 q 138 40 113 14 q 165 101 164 65 l 169 101 m 740 60 l 774 0 l 369 0 l 369 60 l 740 60 m 842 283 l 778 0 l 506 0 l 556 60 q 678 87 625 60 q 768 165 731 114 q 828 283 806 215 l 842 283 m 169 972 l 169 871 l 165 871 q 138 933 164 907 q 76 958 113 958 q 67 958 76 958 q 58 958 58 958 l 58 972 l 169 972 m 481 972 l 481 958 q 471 958 479 958 q 463 958 463 958 q 401 933 426 958 q 374 871 375 907 l 369 871 l 369 972 l 481 972 m 578 496 q 516 521 542 496 q 490 583 490 546 q 516 644 490 619 q 578 669 542 669 q 639 644 614 669 q 664 583 664 619 q 639 521 664 546 q 578 496 614 496 z "},"Ł":{"ha":857,"x_min":25,"x_max":842,"o":"m 374 972 l 374 0 l 165 0 l 165 972 l 374 972 m 169 972 l 169 871 l 165 871 q 138 933 164 907 q 76 958 113 958 q 67 958 76 958 q 58 958 58 958 l 58 972 l 169 972 m 481 972 l 481 958 q 471 958 479 958 q 463 958 463 958 q 401 933 426 958 q 374 871 375 907 l 369 871 l 369 972 l 481 972 m 169 101 l 169 0 l 58 0 l 58 14 q 67 14 58 14 q 76 14 76 14 q 138 40 113 14 q 165 101 164 65 l 169 101 m 740 60 l 774 0 l 369 0 l 369 60 l 740 60 m 842 283 l 778 0 l 506 0 l 556 60 q 678 87 625 60 q 768 165 731 114 q 828 283 806 215 l 842 283 m 25 381 l 506 658 l 536 606 l 56 328 l 25 381 z "},"M":{"ha":1324,"x_min":-12,"x_max":1338,"o":"m 1083 992 l 1094 840 l 682 125 q 668 101 682 125 q 641 42 654 76 q 628 -28 628 7 l 614 -28 l 560 93 l 1083 992 m 142 101 l 142 0 l -12 0 l -12 14 q -1 14 -11 14 q 10 14 10 14 q 76 37 47 14 q 111 101 106 60 l 142 101 m 203 79 q 203 76 203 78 q 203 72 203 75 q 219 31 203 50 q 257 13 235 13 l 279 13 l 279 0 l 193 0 l 193 79 l 203 79 m 226 992 l 239 992 l 288 853 l 194 0 l 99 0 l 226 992 m 239 992 l 693 246 l 614 -28 l 203 663 l 239 992 m 1096 992 l 1228 0 l 1004 0 l 935 639 l 1083 992 l 1096 992 m 1185 101 l 1214 101 q 1250 37 1221 60 q 1315 14 1279 14 q 1326 14 1315 14 q 1338 14 1338 14 l 1338 0 l 1185 0 l 1185 101 m 996 79 l 1006 79 l 1006 0 l 921 0 l 921 13 l 942 13 q 981 31 965 13 q 996 72 996 50 q 996 76 996 75 q 996 79 996 78 z "},"N":{"ha":1201,"x_min":42,"x_max":1160,"o":"m 150 993 l 1036 149 l 1053 -19 l 167 824 l 150 993 m 157 99 l 157 0 l 42 0 l 42 14 q 54 14 42 14 q 68 14 67 14 q 128 39 103 14 q 153 99 153 64 l 157 99 m 351 99 q 376 39 351 64 q 436 14 401 14 q 450 14 438 14 q 463 14 463 14 l 463 0 l 347 0 l 347 99 l 351 99 m 150 993 l 350 781 l 351 0 l 153 0 l 153 819 q 144 945 153 897 q 136 993 136 993 l 150 993 m 1049 972 l 1049 158 q 1053 66 1049 107 q 1061 3 1057 25 q 1065 -19 1065 -19 l 1053 -19 l 851 206 l 851 972 l 1049 972 m 1160 972 l 1160 958 q 1147 958 1160 958 q 1135 958 1135 958 q 1075 934 1100 958 q 1049 874 1050 910 l 1044 874 l 1044 972 l 1160 972 m 739 972 l 854 972 l 854 874 l 851 874 q 826 934 850 910 q 765 958 801 958 q 753 958 765 958 q 739 958 740 958 l 739 972 z "},"Ń":{"ha":1201,"x_min":42,"x_max":1160,"o":"m 150 993 l 1036 149 l 1053 -19 l 167 824 l 150 993 m 157 99 l 157 0 l 42 0 l 42 14 q 54 14 42 14 q 68 14 67 14 q 128 39 103 14 q 153 99 153 64 l 157 99 m 351 99 q 376 39 351 64 q 436 14 401 14 q 450 14 438 14 q 463 14 463 14 l 463 0 l 347 0 l 347 99 l 351 99 m 150 993 l 350 781 l 351 0 l 153 0 l 153 819 q 144 945 153 897 q 136 993 136 993 l 150 993 m 1049 972 l 1049 158 q 1053 66 1049 107 q 1061 3 1057 25 q 1065 -19 1065 -19 l 1053 -19 l 851 206 l 851 972 l 1049 972 m 1160 972 l 1160 958 q 1147 958 1160 958 q 1135 958 1135 958 q 1075 934 1100 958 q 1049 874 1050 910 l 1044 874 l 1044 972 l 1160 972 m 739 972 l 854 972 l 854 874 l 851 874 q 826 934 850 910 q 765 958 801 958 q 753 958 765 958 q 739 958 740 958 l 739 972 z "},"Ň":{"ha":1201,"x_min":42,"x_max":1160,"o":"m 150 993 l 1036 149 l 1053 -19 l 167 824 l 150 993 m 157 99 l 157 0 l 42 0 l 42 14 q 54 14 42 14 q 68 14 67 14 q 128 39 103 14 q 153 99 153 64 l 157 99 m 351 99 q 376 39 351 64 q 436 14 401 14 q 450 14 438 14 q 463 14 463 14 l 463 0 l 347 0 l 347 99 l 351 99 m 150 993 l 350 781 l 351 0 l 153 0 l 153 819 q 144 945 153 897 q 136 993 136 993 l 150 993 m 1049 972 l 1049 158 q 1053 66 1049 107 q 1061 3 1057 25 q 1065 -19 1065 -19 l 1053 -19 l 851 206 l 851 972 l 1049 972 m 1160 972 l 1160 958 q 1147 958 1160 958 q 1135 958 1135 958 q 1075 934 1100 958 q 1049 874 1050 910 l 1044 874 l 1044 972 l 1160 972 m 739 972 l 854 972 l 854 874 l 851 874 q 826 934 850 910 q 765 958 801 958 q 753 958 765 958 q 739 958 740 958 l 739 972 z "},"Ņ":{"ha":1201,"x_min":42,"x_max":1160,"o":"m 150 993 l 1036 149 l 1053 -19 l 167 824 l 150 993 m 157 99 l 157 0 l 42 0 l 42 14 q 54 14 42 14 q 68 14 67 14 q 128 39 103 14 q 153 99 153 64 l 157 99 m 351 99 q 376 39 351 64 q 436 14 401 14 q 450 14 438 14 q 463 14 463 14 l 463 0 l 347 0 l 347 99 l 351 99 m 150 993 l 350 781 l 351 0 l 153 0 l 153 819 q 144 945 153 897 q 136 993 136 993 l 150 993 m 1049 972 l 1049 158 q 1053 66 1049 107 q 1061 3 1057 25 q 1065 -19 1065 -19 l 1053 -19 l 851 206 l 851 972 l 1049 972 m 1160 972 l 1160 958 q 1147 958 1160 958 q 1135 958 1135 958 q 1075 934 1100 958 q 1049 874 1050 910 l 1044 874 l 1044 972 l 1160 972 m 739 972 l 854 972 l 854 874 l 851 874 q 826 934 850 910 q 765 958 801 958 q 753 958 765 958 q 739 958 740 958 l 739 972 m 589 -157 q 609 -107 589 -125 q 657 -89 629 -89 q 722 -123 700 -89 q 743 -200 743 -157 q 701 -304 743 -264 q 593 -346 658 -344 l 589 -332 q 624 -307 611 -324 q 638 -269 638 -290 q 633 -242 638 -256 q 615 -217 628 -229 q 597 -189 604 -204 q 589 -157 589 -174 z "},"Ŋ":{"ha":1199,"x_min":42,"x_max":1149,"o":"m 144 993 l 336 781 l 338 0 l 147 0 l 147 819 q 139 945 147 897 q 131 993 131 993 l 144 993 m 151 96 l 151 0 l 42 0 l 42 15 q 53 15 42 15 q 67 15 65 15 q 124 39 100 15 q 147 96 147 63 l 151 96 m 338 96 q 360 39 338 63 q 417 15 383 15 q 430 15 418 15 q 442 15 442 15 l 442 0 l 333 0 l 333 96 l 338 96 m 1046 -19 l 161 824 l 144 993 l 1031 150 l 1046 -19 m 1047 -21 q 1022 -141 1047 -89 q 953 -226 996 -193 q 855 -273 910 -260 q 739 -278 800 -286 l 732 -267 q 784 -224 761 -246 q 823 -172 807 -201 q 847 -96 839 -142 q 854 19 854 -50 l 854 972 l 1043 972 l 1047 -21 m 747 972 l 857 972 l 857 876 l 854 876 q 829 934 853 911 q 772 957 806 957 q 760 957 772 957 q 747 957 749 957 l 747 972 m 1149 972 l 1149 957 q 1137 957 1149 957 q 1125 957 1125 957 q 1068 934 1092 957 q 1043 876 1044 911 l 1039 876 l 1039 972 l 1149 972 z "},"Ñ":{"ha":1201,"x_min":42,"x_max":1160,"o":"m 150 993 l 1036 149 l 1053 -19 l 167 824 l 150 993 m 157 99 l 157 0 l 42 0 l 42 14 q 54 14 42 14 q 68 14 67 14 q 128 39 103 14 q 153 99 153 64 l 157 99 m 351 99 q 376 39 351 64 q 436 14 401 14 q 450 14 438 14 q 463 14 463 14 l 463 0 l 347 0 l 347 99 l 351 99 m 150 993 l 350 781 l 351 0 l 153 0 l 153 819 q 144 945 153 897 q 136 993 136 993 l 150 993 m 1049 972 l 1049 158 q 1053 66 1049 107 q 1061 3 1057 25 q 1065 -19 1065 -19 l 1053 -19 l 851 206 l 851 972 l 1049 972 m 1160 972 l 1160 958 q 1147 958 1160 958 q 1135 958 1135 958 q 1075 934 1100 958 q 1049 874 1050 910 l 1044 874 l 1044 972 l 1160 972 m 739 972 l 854 972 l 854 874 l 851 874 q 826 934 850 910 q 765 958 801 958 q 753 958 765 958 q 739 958 740 958 l 739 972 z "},"O":{"ha":1221,"x_min":68,"x_max":1161,"o":"m 614 992 q 903 930 781 992 q 1094 756 1026 868 q 1161 486 1161 643 q 1094 217 1161 331 q 903 42 1026 104 q 614 -19 781 -19 q 324 42 447 -19 q 135 217 201 104 q 68 486 68 329 q 135 755 68 642 q 324 930 201 868 q 614 992 447 992 m 614 39 q 784 94 713 39 q 894 249 856 149 q 932 486 932 349 q 894 724 932 624 q 784 878 856 824 q 614 933 713 933 q 445 878 517 933 q 335 724 374 824 q 296 486 296 624 q 335 249 296 349 q 445 94 374 149 q 614 39 517 39 z "},"Ó":{"ha":1221,"x_min":68,"x_max":1161,"o":"m 614 992 q 903 930 781 992 q 1094 756 1026 868 q 1161 486 1161 643 q 1094 217 1161 331 q 903 42 1026 104 q 614 -19 781 -19 q 324 42 447 -19 q 135 217 201 104 q 68 486 68 329 q 135 755 68 642 q 324 930 201 868 q 614 992 447 992 m 614 39 q 784 94 713 39 q 894 249 856 149 q 932 486 932 349 q 894 724 932 624 q 784 878 856 824 q 614 933 713 933 q 445 878 517 933 q 335 724 374 824 q 296 486 296 624 q 335 249 296 349 q 445 94 374 149 q 614 39 517 39 z "},"Ô":{"ha":1221,"x_min":68,"x_max":1161,"o":"m 614 992 q 903 930 781 992 q 1094 756 1026 868 q 1161 486 1161 643 q 1094 217 1161 331 q 903 42 1026 104 q 614 -19 781 -19 q 324 42 447 -19 q 135 217 201 104 q 68 486 68 329 q 135 755 68 642 q 324 930 201 868 q 614 992 447 992 m 614 39 q 784 94 713 39 q 894 249 856 149 q 932 486 932 349 q 894 724 932 624 q 784 878 856 824 q 614 933 713 933 q 445 878 517 933 q 335 724 374 824 q 296 486 296 624 q 335 249 296 349 q 445 94 374 149 q 614 39 517 39 z "},"Ö":{"ha":1221,"x_min":68,"x_max":1161,"o":"m 614 992 q 903 930 781 992 q 1094 756 1026 868 q 1161 486 1161 643 q 1094 217 1161 331 q 903 42 1026 104 q 614 -19 781 -19 q 324 42 447 -19 q 135 217 201 104 q 68 486 68 329 q 135 755 68 642 q 324 930 201 868 q 614 992 447 992 m 614 39 q 784 94 713 39 q 894 249 856 149 q 932 486 932 349 q 894 724 932 624 q 784 878 856 824 q 614 933 713 933 q 445 878 517 933 q 335 724 374 824 q 296 486 296 624 q 335 249 296 349 q 445 94 374 149 q 614 39 517 39 z "},"Ò":{"ha":1221,"x_min":68,"x_max":1161,"o":"m 614 992 q 903 930 781 992 q 1094 756 1026 868 q 1161 486 1161 643 q 1094 217 1161 331 q 903 42 1026 104 q 614 -19 781 -19 q 324 42 447 -19 q 135 217 201 104 q 68 486 68 329 q 135 755 68 642 q 324 930 201 868 q 614 992 447 992 m 614 39 q 788 94 715 39 q 898 249 860 149 q 936 486 936 349 q 898 724 936 624 q 788 878 860 824 q 614 933 715 933 q 442 878 514 933 q 331 724 369 824 q 292 486 292 624 q 331 249 292 349 q 442 94 369 149 q 614 39 514 39 m 640 1082 l 631 1072 q 535 1103 585 1085 q 437 1147 486 1122 q 346 1197 388 1172 q 381 1264 360 1236 q 440 1311 403 1292 q 509 1246 471 1283 q 582 1166 547 1208 q 640 1082 617 1124 z "},"Ő":{"ha":1221,"x_min":68,"x_max":1161,"o":"m 614 992 q 903 930 781 992 q 1094 756 1026 868 q 1161 486 1161 643 q 1094 217 1161 331 q 903 42 1026 104 q 614 -19 781 -19 q 324 42 447 -19 q 135 217 201 104 q 68 486 68 329 q 135 755 68 642 q 324 930 201 868 q 614 992 447 992 m 614 39 q 784 94 713 39 q 894 249 856 149 q 932 486 932 349 q 894 724 932 624 q 784 878 856 824 q 614 933 713 933 q 445 878 517 933 q 335 724 374 824 q 296 486 296 624 q 335 249 296 349 q 445 94 374 149 q 614 39 517 39 z "},"Ō":{"ha":1221,"x_min":68,"x_max":1161,"o":"m 614 992 q 903 930 781 992 q 1094 756 1026 868 q 1161 486 1161 643 q 1094 217 1161 331 q 903 42 1026 104 q 614 -19 781 -19 q 324 42 447 -19 q 135 217 201 104 q 68 486 68 329 q 135 755 68 642 q 324 930 201 868 q 614 992 447 992 m 614 39 q 784 94 713 39 q 894 249 856 149 q 932 486 932 349 q 894 724 932 624 q 784 878 856 824 q 614 933 713 933 q 445 878 517 933 q 335 724 374 824 q 296 486 296 624 q 335 249 296 349 q 445 94 374 149 q 614 39 517 39 z "},"Ø":{"ha":1215,"x_min":68,"x_max":1156,"o":"m 611 992 q 900 930 778 992 q 1089 756 1022 868 q 1156 486 1156 643 q 1089 217 1156 331 q 900 42 1022 104 q 611 -19 778 -19 q 322 42 444 -19 q 134 217 200 104 q 68 486 68 329 q 134 755 68 642 q 322 930 200 868 q 611 992 444 992 m 611 39 q 785 94 713 39 q 895 249 857 149 q 933 486 933 349 q 895 724 933 624 q 785 878 857 824 q 611 933 713 933 q 439 878 511 933 q 328 724 367 824 q 289 486 289 624 q 328 249 289 349 q 439 94 367 149 q 611 39 511 39 m 996 1006 l 1047 965 l 201 -32 l 151 10 l 996 1006 z "},"Õ":{"ha":1221,"x_min":68,"x_max":1161,"o":"m 614 992 q 903 930 781 992 q 1094 756 1026 868 q 1161 486 1161 643 q 1094 217 1161 331 q 903 42 1026 104 q 614 -19 781 -19 q 324 42 447 -19 q 135 217 201 104 q 68 486 68 329 q 135 755 68 642 q 324 930 201 868 q 614 992 447 992 m 614 39 q 784 94 713 39 q 894 249 856 149 q 932 486 932 349 q 894 724 932 624 q 784 878 856 824 q 614 933 713 933 q 445 878 517 933 q 335 724 374 824 q 296 486 296 624 q 335 249 296 349 q 445 94 374 149 q 614 39 517 39 z "},"Œ":{"ha":1493,"x_min":68,"x_max":1465,"o":"m 618 992 q 699 988 661 992 q 775 979 738 985 q 820 974 797 976 q 869 972 843 972 l 871 0 q 842 0 858 0 q 796 -3 825 0 q 740 -8 769 -4 q 677 -16 710 -12 q 608 -19 644 -19 q 324 42 446 -19 q 135 218 203 104 q 68 488 68 332 q 135 756 68 643 q 325 931 201 869 q 618 992 449 992 m 619 39 q 704 51 667 39 q 765 82 742 63 q 788 122 788 101 l 788 850 q 765 890 788 872 q 706 921 743 908 q 621 933 668 933 q 448 881 524 933 q 329 728 372 828 q 286 486 286 628 q 328 249 286 349 q 445 94 369 149 q 619 39 521 39 m 994 972 l 994 0 l 789 3 l 789 972 l 994 972 m 1364 60 l 1397 0 l 992 0 l 988 60 l 1364 60 m 1313 508 l 1313 450 l 990 450 l 990 508 l 1313 508 m 1381 972 l 1381 913 l 990 913 l 990 972 l 1381 972 m 1465 283 l 1401 0 l 1129 0 l 1179 60 q 1302 87 1249 60 q 1393 165 1356 114 q 1451 283 1431 215 l 1465 283 m 1313 453 l 1313 319 l 1299 319 l 1299 332 q 1265 415 1299 382 q 1181 450 1232 449 l 1181 453 l 1313 453 m 1313 639 l 1313 506 l 1181 506 l 1181 508 q 1266 544 1232 510 q 1299 628 1300 578 l 1299 639 l 1313 639 m 1381 917 l 1381 754 l 1365 754 l 1365 771 q 1327 874 1365 835 q 1225 914 1289 913 l 1225 917 l 1381 917 m 1381 997 l 1381 957 l 1211 972 q 1276 976 1242 972 q 1339 986 1310 981 q 1381 997 1368 992 z "},"P":{"ha":911,"x_min":63,"x_max":874,"o":"m 360 972 l 526 972 q 720 938 646 972 q 831 842 794 903 q 871 706 868 782 q 847 576 874 635 q 774 479 821 518 q 669 423 728 440 q 548 415 611 406 q 425 463 485 424 l 425 476 q 442 476 425 476 q 487 482 460 476 q 544 503 514 488 q 600 550 574 518 q 640 635 626 582 q 648 676 646 653 q 649 718 650 699 q 601 860 647 807 q 469 914 554 914 l 374 914 q 370 928 374 914 q 363 958 367 943 q 360 972 360 972 m 378 972 l 378 0 l 169 0 l 169 972 l 378 972 m 174 101 l 174 0 l 63 0 l 63 14 q 72 14 64 14 q 81 14 79 14 q 142 40 117 14 q 169 101 168 65 l 174 101 m 174 871 l 169 871 q 143 933 169 907 q 81 958 117 958 q 72 958 79 958 q 64 958 65 958 l 63 972 l 174 972 l 174 871 m 374 101 l 378 101 q 405 40 379 65 q 467 14 431 14 q 476 14 468 14 q 485 14 483 14 l 485 0 l 374 0 l 374 101 z "},"Þ":{"ha":899,"x_min":60,"x_max":861,"o":"m 375 972 l 375 0 l 167 0 l 167 972 l 375 972 m 169 101 l 169 0 l 60 0 l 60 14 q 68 14 60 14 q 78 14 76 14 q 140 40 114 14 q 167 101 165 65 l 169 101 m 169 871 l 167 871 q 140 933 165 907 q 78 958 114 958 q 68 958 76 958 q 60 958 60 958 l 60 972 l 169 972 l 169 871 m 371 101 l 375 101 q 401 40 375 65 q 464 14 428 14 q 472 14 464 14 q 481 14 481 14 l 481 0 l 371 0 l 371 101 m 371 871 l 371 972 l 481 972 l 481 958 q 472 958 481 958 q 464 958 464 958 q 401 933 428 958 q 375 871 375 907 l 371 871 m 350 769 l 517 769 q 712 734 638 769 q 822 639 786 699 q 860 503 857 579 q 835 374 861 432 q 764 277 810 317 q 660 220 718 238 q 538 212 601 203 q 415 260 475 221 l 415 274 q 433 274 415 274 q 477 279 450 274 q 534 300 504 285 q 590 348 564 315 q 631 432 617 381 q 638 473 636 450 q 639 515 640 496 q 590 658 636 604 q 461 711 544 711 l 364 711 q 360 726 364 711 q 353 755 357 740 q 350 769 350 769 z "},"Q":{"ha":1226,"x_min":67,"x_max":1885,"o":"m 604 -19 l 564 36 q 710 22 644 31 q 833 -1 775 13 q 951 -33 892 -14 q 1078 -78 1010 -53 q 1233 -136 1147 -103 q 1417 -189 1326 -172 q 1592 -201 1508 -206 q 1747 -172 1675 -197 q 1876 -100 1819 -147 l 1885 -106 q 1843 -228 1881 -171 q 1739 -325 1806 -285 q 1581 -380 1672 -365 q 1381 -376 1490 -394 q 1147 -294 1271 -357 q 1000 -210 1069 -256 q 865 -124 931 -165 q 735 -53 799 -82 q 604 -19 671 -25 m 613 992 q 902 930 779 992 q 1092 756 1025 868 q 1158 486 1158 643 q 1092 217 1158 331 q 901 42 1025 104 q 613 -19 778 -19 q 323 42 446 -19 q 133 217 200 104 q 67 486 67 329 q 133 755 67 642 q 323 930 200 868 q 613 992 446 992 m 613 39 q 783 94 711 39 q 892 249 854 149 q 931 486 931 349 q 892 724 931 624 q 783 878 854 824 q 613 933 711 933 q 442 878 514 933 q 332 724 371 824 q 293 486 293 624 q 333 249 293 349 q 444 94 372 149 q 613 39 515 39 z "},"R":{"ha":1038,"x_min":63,"x_max":1096,"o":"m 360 972 l 539 972 q 661 958 601 972 q 767 914 721 944 q 842 833 814 883 q 869 710 869 783 q 845 594 869 651 q 771 495 821 536 q 642 446 721 454 q 723 396 686 432 q 783 324 760 360 q 799 299 785 321 q 835 244 814 276 q 881 178 857 211 q 924 119 904 144 q 979 59 954 82 q 1032 26 1004 36 q 1096 14 1060 15 l 1096 0 l 960 0 q 824 14 885 0 q 715 59 763 28 q 633 144 668 90 q 609 187 622 161 q 582 242 596 213 q 555 298 568 271 q 532 347 542 325 q 518 382 522 369 q 476 449 500 426 q 424 475 451 471 l 424 489 q 440 489 428 489 q 467 489 453 489 q 540 504 504 489 q 603 554 575 519 q 642 650 631 589 q 647 679 644 663 q 647 717 649 696 q 597 863 643 817 q 483 911 551 910 q 441 912 464 913 q 399 911 418 911 q 374 911 381 911 q 370 927 374 913 q 363 957 367 942 q 360 972 360 972 m 378 972 l 378 0 l 169 0 l 169 972 l 378 972 m 174 101 l 174 0 l 63 0 l 63 14 q 72 14 64 14 q 81 14 79 14 q 142 40 117 14 q 169 101 168 65 l 174 101 m 174 871 l 169 871 q 142 933 168 907 q 81 958 117 958 q 72 958 79 958 q 63 958 64 958 l 63 972 l 174 972 l 174 871 m 374 101 l 378 101 q 404 40 378 65 q 467 14 431 14 q 476 14 469 14 q 483 14 483 14 l 483 0 l 374 0 l 374 101 z "},"Ŕ":{"ha":1038,"x_min":63,"x_max":1096,"o":"m 360 972 l 539 972 q 661 958 601 972 q 767 914 721 944 q 842 833 814 883 q 869 710 869 783 q 845 594 869 651 q 771 495 821 536 q 642 446 721 454 q 723 396 686 432 q 783 324 760 360 q 799 299 785 321 q 835 244 814 276 q 881 178 857 211 q 924 119 904 144 q 979 59 954 82 q 1032 26 1004 36 q 1096 14 1060 15 l 1096 0 l 960 0 q 824 14 885 0 q 715 59 763 28 q 633 144 668 90 q 609 187 622 161 q 582 242 596 213 q 555 298 568 271 q 532 347 542 325 q 518 382 522 369 q 476 449 500 426 q 424 475 451 471 l 424 489 q 440 489 428 489 q 467 489 453 489 q 540 504 504 489 q 603 554 575 519 q 642 650 631 589 q 647 679 644 663 q 647 717 649 696 q 597 863 643 817 q 483 911 551 910 q 441 912 464 913 q 399 911 418 911 q 374 911 381 911 q 370 927 374 913 q 363 957 367 942 q 360 972 360 972 m 378 972 l 378 0 l 169 0 l 169 972 l 378 972 m 174 101 l 174 0 l 63 0 l 63 14 q 72 14 64 14 q 81 14 79 14 q 142 40 117 14 q 169 101 168 65 l 174 101 m 174 871 l 169 871 q 142 933 168 907 q 81 958 117 958 q 72 958 79 958 q 63 958 64 958 l 63 972 l 174 972 l 174 871 m 374 101 l 378 101 q 404 40 378 65 q 467 14 431 14 q 476 14 469 14 q 483 14 483 14 l 483 0 l 374 0 l 374 101 z "},"Ř":{"ha":1038,"x_min":63,"x_max":1096,"o":"m 360 972 l 539 972 q 661 958 601 972 q 767 914 721 944 q 842 833 814 883 q 869 710 869 783 q 845 594 869 651 q 771 495 821 536 q 642 446 721 454 q 723 396 686 432 q 783 324 760 360 q 799 299 785 321 q 835 244 814 276 q 881 178 857 211 q 924 119 904 144 q 979 59 954 82 q 1032 26 1004 36 q 1096 14 1060 15 l 1096 0 l 960 0 q 824 14 885 0 q 715 59 763 28 q 633 144 668 90 q 609 187 622 161 q 582 242 596 213 q 555 298 568 271 q 532 347 542 325 q 518 382 522 369 q 476 449 500 426 q 424 475 451 471 l 424 489 q 440 489 428 489 q 467 489 453 489 q 540 504 504 489 q 603 554 575 519 q 642 650 631 589 q 647 679 644 663 q 647 717 649 696 q 597 863 643 817 q 483 911 551 910 q 441 912 464 913 q 399 911 418 911 q 374 911 381 911 q 370 927 374 913 q 363 957 367 942 q 360 972 360 972 m 378 972 l 378 0 l 169 0 l 169 972 l 378 972 m 174 101 l 174 0 l 63 0 l 63 14 q 72 14 64 14 q 81 14 79 14 q 142 40 117 14 q 169 101 168 65 l 174 101 m 174 871 l 169 871 q 142 933 168 907 q 81 958 117 958 q 72 958 79 958 q 63 958 64 958 l 63 972 l 174 972 l 174 871 m 374 101 l 378 101 q 404 40 378 65 q 467 14 431 14 q 476 14 469 14 q 483 14 483 14 l 483 0 l 374 0 l 374 101 z "},"Ŗ":{"ha":1038,"x_min":63,"x_max":1096,"o":"m 360 972 l 539 972 q 661 958 601 972 q 767 914 721 944 q 842 833 814 883 q 869 710 869 783 q 845 594 869 651 q 771 495 821 536 q 642 446 721 454 q 723 396 686 432 q 783 324 760 360 q 799 299 785 321 q 835 244 814 276 q 881 178 857 211 q 924 119 904 144 q 979 59 954 82 q 1032 26 1004 36 q 1096 14 1060 15 l 1096 0 l 960 0 q 824 14 885 0 q 715 59 763 28 q 633 144 668 90 q 609 187 622 161 q 582 242 596 213 q 555 298 568 271 q 532 347 542 325 q 518 382 522 369 q 476 449 500 426 q 424 475 451 471 l 424 489 q 440 489 428 489 q 467 489 453 489 q 540 504 504 489 q 603 554 575 519 q 642 650 631 589 q 647 679 644 663 q 647 717 649 696 q 597 863 643 817 q 483 911 551 910 q 441 912 464 913 q 399 911 418 911 q 374 911 381 911 q 370 927 374 913 q 363 957 367 942 q 360 972 360 972 m 378 972 l 378 0 l 169 0 l 169 972 l 378 972 m 174 101 l 174 0 l 63 0 l 63 14 q 72 14 64 14 q 81 14 79 14 q 142 40 117 14 q 169 101 168 65 l 174 101 m 174 871 l 169 871 q 142 933 168 907 q 81 958 117 958 q 72 958 79 958 q 63 958 64 958 l 63 972 l 174 972 l 174 871 m 374 101 l 378 101 q 404 40 378 65 q 467 14 431 14 q 476 14 469 14 q 483 14 483 14 l 483 0 l 374 0 l 374 101 m 539 -157 q 559 -107 539 -125 q 607 -89 579 -89 q 672 -123 650 -89 q 693 -200 693 -157 q 651 -304 693 -264 q 543 -346 608 -344 l 539 -332 q 574 -307 561 -324 q 588 -269 588 -290 q 583 -242 588 -256 q 565 -217 578 -229 q 547 -189 554 -204 q 539 -157 539 -174 z "},"S":{"ha":803,"x_min":68,"x_max":743,"o":"m 385 992 q 453 989 413 992 q 538 981 494 986 q 615 972 582 976 q 660 961 647 967 l 643 774 l 629 774 q 576 890 629 846 q 433 933 522 933 q 303 894 353 933 q 251 800 254 856 q 278 728 250 758 q 349 671 306 697 l 614 499 q 710 404 678 463 q 739 268 743 346 q 635 56 732 132 q 371 -19 538 -19 q 252 -9 310 -19 q 150 20 194 1 q 79 65 106 39 q 69 139 68 96 q 83 226 71 182 q 113 300 94 271 l 125 300 q 151 169 119 229 q 242 73 182 108 q 386 39 303 38 q 528 85 478 40 q 578 194 578 131 q 552 272 578 238 q 468 339 526 307 l 225 500 q 118 607 151 542 q 93 749 85 672 q 135 876 99 821 q 234 961 171 931 q 385 992 297 992 m 661 978 l 658 949 l 494 949 l 494 978 l 661 978 z "},"Ś":{"ha":803,"x_min":68,"x_max":743,"o":"m 385 992 q 453 989 413 992 q 538 981 494 986 q 615 972 582 976 q 660 961 647 967 l 643 774 l 629 774 q 576 890 629 846 q 433 933 522 933 q 303 894 353 933 q 251 800 254 856 q 278 728 250 758 q 349 671 306 697 l 614 499 q 710 404 678 463 q 739 268 743 346 q 635 56 732 132 q 371 -19 538 -19 q 252 -9 310 -19 q 150 20 194 1 q 79 65 106 39 q 69 139 68 96 q 83 226 71 182 q 113 300 94 271 l 125 300 q 151 169 119 229 q 242 73 182 108 q 386 39 303 38 q 528 85 478 40 q 578 194 578 131 q 552 272 578 238 q 468 339 526 307 l 225 500 q 118 607 151 542 q 93 749 85 672 q 135 876 99 821 q 234 961 171 931 q 385 992 297 992 m 661 978 l 658 949 l 494 949 l 494 978 l 661 978 z "},"Š":{"ha":803,"x_min":68,"x_max":743,"o":"m 385 992 q 453 989 413 992 q 538 981 494 986 q 615 972 582 976 q 660 961 647 967 l 643 774 l 629 774 q 576 890 629 846 q 433 933 522 933 q 303 894 353 933 q 251 800 254 856 q 278 728 250 758 q 349 671 306 697 l 614 499 q 710 404 678 463 q 739 268 743 346 q 635 56 732 132 q 371 -19 538 -19 q 252 -9 310 -19 q 150 20 194 1 q 79 65 106 39 q 69 139 68 96 q 83 226 71 182 q 113 300 94 271 l 125 300 q 151 169 119 229 q 242 73 182 108 q 386 39 303 38 q 528 85 478 40 q 578 194 578 131 q 552 272 578 238 q 468 339 526 307 l 225 500 q 118 607 151 542 q 93 749 85 672 q 135 876 99 821 q 234 961 171 931 q 385 992 297 992 m 661 978 l 658 949 l 494 949 l 494 978 l 661 978 z "},"Ş":{"ha":803,"x_min":68,"x_max":743,"o":"m 385 992 q 453 989 413 992 q 538 981 494 986 q 615 972 582 976 q 660 961 647 967 l 643 774 l 629 774 q 576 890 629 846 q 433 933 522 933 q 303 894 353 933 q 251 800 254 856 q 278 728 250 758 q 349 671 306 697 l 614 499 q 710 404 678 463 q 739 268 743 346 q 635 56 732 132 q 371 -19 538 -19 q 252 -9 310 -19 q 150 20 194 1 q 79 65 106 39 q 69 139 68 96 q 83 226 71 182 q 113 300 94 271 l 125 300 q 151 169 119 229 q 242 73 182 108 q 386 39 303 38 q 528 85 478 40 q 578 194 578 131 q 552 272 578 238 q 468 339 526 307 l 225 500 q 118 607 151 542 q 93 749 85 672 q 135 876 99 821 q 234 961 171 931 q 385 992 297 992 m 661 978 l 658 949 l 494 949 l 494 978 l 661 978 z "},"Ș":{"ha":801,"x_min":68,"x_max":742,"o":"m 378 992 q 449 990 407 992 q 533 983 490 988 q 610 974 576 979 q 658 961 643 968 l 642 782 l 628 782 q 610 847 628 815 q 558 900 592 879 q 499 925 533 917 q 428 933 465 933 q 336 915 375 933 q 275 867 297 897 q 251 800 253 838 q 276 728 249 758 q 347 671 304 697 l 613 497 q 708 405 674 463 q 738 268 742 347 q 634 56 731 132 q 374 -19 538 -19 q 194 4 274 -19 q 78 65 115 28 q 69 137 68 96 q 82 219 71 178 q 110 290 93 261 l 122 290 q 151 165 119 222 q 244 73 183 107 q 390 39 306 39 q 530 85 482 40 q 578 194 578 131 q 552 271 578 236 q 467 339 526 306 l 225 500 q 118 608 151 543 q 92 749 85 672 q 135 877 97 822 q 235 962 172 932 q 378 992 297 992 m 660 978 l 658 949 l 494 949 l 494 978 l 660 978 m 321 -157 q 341 -107 321 -125 q 389 -89 361 -89 q 453 -123 432 -89 q 475 -200 475 -157 q 433 -304 475 -264 q 325 -346 390 -344 l 321 -332 q 356 -307 343 -324 q 369 -269 369 -290 q 365 -242 369 -256 q 347 -217 360 -229 q 328 -189 336 -204 q 321 -157 321 -174 z "},"T":{"ha":926,"x_min":19,"x_max":908,"o":"m 568 968 l 568 0 l 360 0 l 360 968 l 568 968 m 908 974 l 908 915 l 19 915 l 19 974 l 908 974 m 908 919 l 908 756 l 894 757 l 894 772 q 856 876 894 838 q 753 915 818 914 l 753 919 l 908 919 m 908 999 l 908 958 l 739 974 q 803 978 769 974 q 867 988 838 982 q 908 999 896 993 m 364 101 l 364 0 l 253 0 l 253 14 q 262 14 253 14 q 271 14 271 14 q 333 40 307 14 q 360 101 358 65 l 364 101 m 564 101 l 568 101 q 595 40 569 65 q 657 14 621 14 q 666 14 657 14 q 675 14 675 14 l 675 0 l 564 0 l 564 101 m 174 919 l 174 915 q 72 876 110 914 q 33 772 33 838 l 33 757 l 19 756 l 19 919 l 174 919 m 19 999 q 62 988 33 993 q 125 978 90 982 q 189 974 160 974 l 19 958 l 19 999 z "},"Ŧ":{"ha":926,"x_min":19,"x_max":908,"o":"m 568 968 l 568 0 l 360 0 l 360 968 l 568 968 m 908 974 l 908 915 l 19 915 l 19 974 l 908 974 m 908 919 l 908 756 l 894 757 l 894 772 q 856 876 894 838 q 753 915 818 914 l 753 919 l 908 919 m 908 999 l 908 958 l 739 974 q 803 978 769 974 q 867 988 838 982 q 908 999 896 993 m 364 101 l 364 0 l 253 0 l 253 14 q 262 14 253 14 q 271 14 271 14 q 333 40 307 14 q 360 101 358 65 l 364 101 m 564 101 l 568 101 q 595 40 569 65 q 657 14 621 14 q 666 14 657 14 q 675 14 675 14 l 675 0 l 564 0 l 564 101 m 174 919 l 174 915 q 72 876 110 914 q 33 772 33 838 l 33 757 l 19 756 l 19 919 l 174 919 m 19 999 q 62 988 33 993 q 125 978 90 982 q 189 974 160 974 l 19 958 l 19 999 m 782 558 l 782 500 l 144 500 l 144 558 l 782 558 z "},"Ť":{"ha":926,"x_min":19,"x_max":908,"o":"m 568 968 l 568 0 l 360 0 l 360 968 l 568 968 m 908 974 l 908 915 l 19 915 l 19 974 l 908 974 m 908 919 l 908 756 l 894 757 l 894 772 q 856 876 894 838 q 753 915 818 914 l 753 919 l 908 919 m 908 999 l 908 958 l 739 974 q 803 978 769 974 q 867 988 838 982 q 908 999 896 993 m 364 101 l 364 0 l 253 0 l 253 14 q 262 14 253 14 q 271 14 271 14 q 333 40 307 14 q 360 101 358 65 l 364 101 m 564 101 l 568 101 q 595 40 569 65 q 657 14 621 14 q 666 14 657 14 q 675 14 675 14 l 675 0 l 564 0 l 564 101 m 174 919 l 174 915 q 72 876 110 914 q 33 772 33 838 l 33 757 l 19 756 l 19 919 l 174 919 m 19 999 q 62 988 33 993 q 125 978 90 982 q 189 974 160 974 l 19 958 l 19 999 z "},"Ţ":{"ha":926,"x_min":19,"x_max":908,"o":"m 568 968 l 568 0 l 360 0 l 360 968 l 568 968 m 908 974 l 908 915 l 19 915 l 19 974 l 908 974 m 908 919 l 908 756 l 894 757 l 894 772 q 856 876 894 838 q 753 915 818 914 l 753 919 l 908 919 m 908 999 l 908 958 l 739 974 q 803 978 769 974 q 867 988 838 982 q 908 999 896 993 m 364 101 l 364 0 l 253 0 l 253 14 q 262 14 253 14 q 271 14 271 14 q 333 40 307 14 q 360 101 358 65 l 364 101 m 564 101 l 568 101 q 595 40 569 65 q 657 14 621 14 q 666 14 657 14 q 675 14 675 14 l 675 0 l 564 0 l 564 101 m 174 919 l 174 915 q 72 876 110 914 q 33 772 33 838 l 33 757 l 19 756 l 19 919 l 174 919 m 19 999 q 62 988 33 993 q 125 978 90 982 q 189 974 160 974 l 19 958 l 19 999 z "},"Ț":{"ha":926,"x_min":19,"x_max":908,"o":"m 568 968 l 568 0 l 360 0 l 360 968 l 568 968 m 908 974 l 908 915 l 19 915 l 19 974 l 908 974 m 908 919 l 908 756 l 894 757 l 894 772 q 856 876 894 838 q 753 915 818 914 l 753 919 l 908 919 m 908 999 l 908 958 l 739 974 q 803 978 769 974 q 867 988 838 982 q 908 999 896 993 m 364 101 l 364 0 l 253 0 l 253 14 q 262 14 253 14 q 271 14 271 14 q 333 40 307 14 q 360 101 358 65 l 364 101 m 564 101 l 568 101 q 595 40 569 65 q 657 14 621 14 q 666 14 657 14 q 675 14 675 14 l 675 0 l 564 0 l 564 101 m 174 919 l 174 915 q 72 876 110 914 q 33 772 33 838 l 33 757 l 19 756 l 19 919 l 174 919 m 19 999 q 62 988 33 993 q 125 978 90 982 q 189 974 160 974 l 19 958 l 19 999 m 392 -157 q 412 -107 392 -125 q 460 -89 432 -89 q 524 -123 503 -89 q 546 -200 546 -157 q 503 -304 546 -264 q 396 -346 461 -344 l 392 -332 q 427 -307 414 -324 q 440 -269 440 -290 q 435 -242 440 -256 q 418 -217 431 -229 q 399 -189 407 -204 q 392 -157 392 -174 z "},"U":{"ha":1140,"x_min":53,"x_max":1097,"o":"m 357 972 l 357 361 q 390 190 357 263 q 483 79 422 118 q 626 40 543 40 q 773 77 711 40 q 868 182 835 114 q 901 343 901 250 l 901 972 l 1001 972 l 1001 351 q 953 154 1001 238 q 816 26 906 71 q 600 -19 726 -19 q 351 26 453 -19 q 199 153 250 71 q 149 350 149 236 l 149 972 l 357 972 m 153 972 l 153 889 l 149 889 q 127 939 149 919 q 75 958 106 958 q 64 958 75 958 q 53 958 53 958 l 53 972 l 153 972 m 453 972 l 453 958 q 442 958 453 958 q 431 958 431 958 q 378 939 400 958 q 357 889 357 919 l 354 889 l 354 972 l 453 972 m 906 972 l 906 889 l 901 889 q 880 939 901 919 q 828 958 858 958 q 817 958 828 958 q 806 958 806 958 l 806 972 l 906 972 m 1097 972 l 1097 958 q 1086 958 1097 958 q 1075 958 1075 958 q 1023 939 1044 958 q 1001 889 1001 919 l 999 889 l 999 972 l 1097 972 z "},"Ú":{"ha":1140,"x_min":53,"x_max":1097,"o":"m 357 972 l 357 361 q 390 190 357 263 q 483 79 422 118 q 626 40 543 40 q 773 77 711 40 q 868 182 835 114 q 901 343 901 250 l 901 972 l 1001 972 l 1001 351 q 953 154 1001 238 q 816 26 906 71 q 600 -19 726 -19 q 351 26 453 -19 q 199 153 250 71 q 149 350 149 236 l 149 972 l 357 972 m 153 972 l 153 889 l 149 889 q 127 939 149 919 q 75 958 106 958 q 64 958 75 958 q 53 958 53 958 l 53 972 l 153 972 m 453 972 l 453 958 q 442 958 453 958 q 431 958 431 958 q 378 939 400 958 q 357 889 357 919 l 354 889 l 354 972 l 453 972 m 906 972 l 906 889 l 901 889 q 880 939 901 919 q 828 958 858 958 q 817 958 828 958 q 806 958 806 958 l 806 972 l 906 972 m 1097 972 l 1097 958 q 1086 958 1097 958 q 1075 958 1075 958 q 1023 939 1044 958 q 1001 889 1001 919 l 999 889 l 999 972 l 1097 972 z "},"Û":{"ha":1140,"x_min":53,"x_max":1097,"o":"m 357 972 l 357 361 q 390 190 357 263 q 483 79 422 118 q 626 40 543 40 q 773 77 711 40 q 868 182 835 114 q 901 343 901 250 l 901 972 l 1001 972 l 1001 351 q 953 154 1001 238 q 816 26 906 71 q 600 -19 726 -19 q 351 26 453 -19 q 199 153 250 71 q 149 350 149 236 l 149 972 l 357 972 m 153 972 l 153 889 l 149 889 q 127 939 149 919 q 75 958 106 958 q 64 958 75 958 q 53 958 53 958 l 53 972 l 153 972 m 453 972 l 453 958 q 442 958 453 958 q 431 958 431 958 q 378 939 400 958 q 357 889 357 919 l 354 889 l 354 972 l 453 972 m 906 972 l 906 889 l 901 889 q 880 939 901 919 q 828 958 858 958 q 817 958 828 958 q 806 958 806 958 l 806 972 l 906 972 m 1097 972 l 1097 958 q 1086 958 1097 958 q 1075 958 1075 958 q 1023 939 1044 958 q 1001 889 1001 919 l 999 889 l 999 972 l 1097 972 z "},"Ü":{"ha":1140,"x_min":53,"x_max":1097,"o":"m 357 972 l 357 361 q 390 190 357 263 q 483 79 422 118 q 626 40 543 40 q 773 77 711 40 q 868 182 835 114 q 901 343 901 250 l 901 972 l 1001 972 l 1001 351 q 953 154 1001 238 q 816 26 906 71 q 600 -19 726 -19 q 351 26 453 -19 q 199 153 250 71 q 149 350 149 236 l 149 972 l 357 972 m 153 972 l 153 889 l 149 889 q 127 939 149 919 q 75 958 106 958 q 64 958 75 958 q 53 958 53 958 l 53 972 l 153 972 m 453 972 l 453 958 q 442 958 453 958 q 431 958 431 958 q 378 939 400 958 q 357 889 357 919 l 354 889 l 354 972 l 453 972 m 906 972 l 906 889 l 901 889 q 880 939 901 919 q 828 958 858 958 q 817 958 828 958 q 806 958 806 958 l 806 972 l 906 972 m 1097 972 l 1097 958 q 1086 958 1097 958 q 1075 958 1075 958 q 1023 939 1044 958 q 1001 889 1001 919 l 999 889 l 999 972 l 1097 972 z "},"Ù":{"ha":1140,"x_min":53,"x_max":1097,"o":"m 357 972 l 357 361 q 390 190 357 263 q 483 79 422 118 q 626 40 543 40 q 773 77 711 40 q 868 182 835 114 q 901 343 901 250 l 901 972 l 1001 972 l 1001 351 q 953 154 1001 238 q 816 26 906 71 q 600 -19 726 -19 q 351 26 453 -19 q 199 153 250 71 q 149 350 149 236 l 149 972 l 357 972 m 153 972 l 153 889 l 149 889 q 127 939 149 919 q 75 958 106 958 q 64 958 75 958 q 53 958 53 958 l 53 972 l 153 972 m 453 972 l 453 958 q 442 958 453 958 q 431 958 431 958 q 378 939 400 958 q 357 889 357 919 l 354 889 l 354 972 l 453 972 m 906 972 l 906 889 l 901 889 q 880 939 901 919 q 828 958 858 958 q 817 958 828 958 q 806 958 806 958 l 806 972 l 906 972 m 1097 972 l 1097 958 q 1086 958 1097 958 q 1075 958 1075 958 q 1023 939 1044 958 q 1001 889 1001 919 l 999 889 l 999 972 l 1097 972 z "},"Ű":{"ha":1140,"x_min":53,"x_max":1097,"o":"m 357 972 l 357 361 q 390 190 357 263 q 483 79 422 118 q 626 40 543 40 q 773 77 711 40 q 868 182 835 114 q 901 343 901 250 l 901 972 l 1001 972 l 1001 351 q 953 154 1001 238 q 816 26 906 71 q 600 -19 726 -19 q 351 26 453 -19 q 199 153 250 71 q 149 350 149 236 l 149 972 l 357 972 m 153 972 l 153 889 l 149 889 q 127 939 149 919 q 75 958 106 958 q 64 958 75 958 q 53 958 53 958 l 53 972 l 153 972 m 453 972 l 453 958 q 442 958 453 958 q 431 958 431 958 q 378 939 400 958 q 357 889 357 919 l 354 889 l 354 972 l 453 972 m 906 972 l 906 889 l 901 889 q 880 939 901 919 q 828 958 858 958 q 817 958 828 958 q 806 958 806 958 l 806 972 l 906 972 m 1097 972 l 1097 958 q 1086 958 1097 958 q 1075 958 1075 958 q 1023 939 1044 958 q 1001 889 1001 919 l 999 889 l 999 972 l 1097 972 z "},"Ū":{"ha":1140,"x_min":53,"x_max":1097,"o":"m 357 972 l 357 361 q 390 190 357 263 q 483 79 422 118 q 626 40 543 40 q 773 77 711 40 q 868 182 835 114 q 901 343 901 250 l 901 972 l 1001 972 l 1001 351 q 953 154 1001 238 q 816 26 906 71 q 600 -19 726 -19 q 351 26 453 -19 q 199 153 250 71 q 149 350 149 236 l 149 972 l 357 972 m 153 972 l 153 889 l 149 889 q 127 939 149 919 q 75 958 106 958 q 64 958 75 958 q 53 958 53 958 l 53 972 l 153 972 m 453 972 l 453 958 q 442 958 453 958 q 431 958 431 958 q 378 939 400 958 q 357 889 357 919 l 354 889 l 354 972 l 453 972 m 906 972 l 906 889 l 901 889 q 880 939 901 919 q 828 958 858 958 q 817 958 828 958 q 806 958 806 958 l 806 972 l 906 972 m 1097 972 l 1097 958 q 1086 958 1097 958 q 1075 958 1075 958 q 1023 939 1044 958 q 1001 889 1001 919 l 999 889 l 999 972 l 1097 972 z "},"Ų":{"ha":1140,"x_min":53,"x_max":1097,"o":"m 357 972 l 357 361 q 390 190 357 263 q 483 79 422 118 q 626 40 543 40 q 773 77 711 40 q 868 182 835 114 q 901 343 901 250 l 901 972 l 1001 972 l 1001 351 q 953 154 1001 238 q 816 26 906 71 q 600 -19 726 -19 q 351 26 453 -19 q 199 153 250 71 q 149 350 149 236 l 149 972 l 357 972 m 153 972 l 153 889 l 149 889 q 127 939 149 919 q 75 958 106 958 q 64 958 75 958 q 53 958 53 958 l 53 972 l 153 972 m 453 972 l 453 958 q 442 958 453 958 q 431 958 431 958 q 378 939 400 958 q 357 889 357 919 l 354 889 l 354 972 l 453 972 m 906 972 l 906 889 l 901 889 q 880 939 901 919 q 828 958 858 958 q 817 958 828 958 q 806 958 806 958 l 806 972 l 906 972 m 1097 972 l 1097 958 q 1086 958 1097 958 q 1075 958 1075 958 q 1023 939 1044 958 q 1001 889 1001 919 l 999 889 l 999 972 l 1097 972 z "},"Ů":{"ha":1140,"x_min":53,"x_max":1097,"o":"m 357 972 l 357 361 q 390 190 357 263 q 483 79 422 118 q 626 40 543 40 q 773 77 711 40 q 868 182 835 114 q 901 343 901 250 l 901 972 l 1001 972 l 1001 351 q 953 154 1001 238 q 816 26 906 71 q 600 -19 726 -19 q 351 26 453 -19 q 199 153 250 71 q 149 350 149 236 l 149 972 l 357 972 m 153 972 l 153 889 l 149 889 q 127 939 149 919 q 75 958 106 958 q 64 958 75 958 q 53 958 53 958 l 53 972 l 153 972 m 453 972 l 453 958 q 442 958 453 958 q 431 958 431 958 q 378 939 400 958 q 357 889 357 919 l 354 889 l 354 972 l 453 972 m 906 972 l 906 889 l 901 889 q 880 939 901 919 q 828 958 858 958 q 817 958 828 958 q 806 958 806 958 l 806 972 l 906 972 m 1097 972 l 1097 958 q 1086 958 1097 958 q 1075 958 1075 958 q 1023 939 1044 958 q 1001 889 1001 919 l 999 889 l 999 972 l 1097 972 z "},"V":{"ha":1011,"x_min":-39,"x_max":1050,"o":"m 511 -28 l 51 964 l 300 964 l 596 240 l 511 -28 m 511 -28 l 507 142 l 860 968 l 960 968 l 592 154 q 578 123 589 146 q 556 71 568 100 q 534 15 543 42 q 524 -28 525 -12 l 511 -28 m 818 871 q 814 935 836 913 q 765 958 792 958 l 753 958 l 753 972 l 1050 972 l 1050 958 q 1044 958 1050 958 q 1038 958 1038 958 q 973 938 1007 958 q 917 871 939 918 l 818 871 m 339 871 l 94 871 q 38 938 72 918 q -28 958 4 958 q -33 958 -28 958 q -39 958 -39 958 l -39 972 l 403 972 l 403 958 l 390 958 q 344 935 364 958 q 339 871 324 913 z "},"W":{"ha":1349,"x_min":-47,"x_max":1388,"o":"m 53 964 l 278 964 l 500 336 l 417 -25 l 53 964 m 746 994 l 771 857 l 463 129 q 454 106 463 129 q 438 47 446 82 q 429 -25 431 13 l 417 -25 l 378 140 l 733 994 l 746 994 m 746 993 l 1051 318 l 985 -25 l 650 715 l 746 993 m 1283 964 l 1022 129 q 1015 105 1022 129 q 1002 45 1008 81 q 999 -25 996 10 l 985 -25 l 946 113 l 1189 964 l 1283 964 m 1163 872 q 1156 936 1174 914 q 1110 958 1138 958 l 1097 958 l 1097 972 l 1388 972 l 1388 958 q 1382 958 1388 958 q 1376 958 1376 958 q 1307 938 1344 958 q 1254 872 1269 918 l 1163 872 m 311 872 l 86 872 q 32 938 68 918 q -36 958 -4 958 q -42 958 -36 958 q -47 958 -47 958 l -47 972 l 376 972 l 376 958 l 364 958 q 317 936 338 958 q 311 872 297 914 z "},"Ẃ":{"ha":1349,"x_min":-47,"x_max":1388,"o":"m 53 964 l 278 964 l 500 336 l 417 -25 l 53 964 m 746 994 l 771 857 l 463 129 q 454 106 463 129 q 438 47 446 82 q 429 -25 431 13 l 417 -25 l 378 140 l 733 994 l 746 994 m 746 993 l 1051 318 l 985 -25 l 650 715 l 746 993 m 1283 964 l 1022 129 q 1015 105 1022 129 q 1002 45 1008 81 q 999 -25 996 10 l 985 -25 l 946 113 l 1189 964 l 1283 964 m 1163 872 q 1156 936 1174 914 q 1110 958 1138 958 l 1097 958 l 1097 972 l 1388 972 l 1388 958 q 1382 958 1388 958 q 1376 958 1376 958 q 1307 938 1344 958 q 1254 872 1269 918 l 1163 872 m 311 872 l 86 872 q 32 938 68 918 q -36 958 -4 958 q -42 958 -36 958 q -47 958 -47 958 l -47 972 l 376 972 l 376 958 l 364 958 q 317 936 338 958 q 311 872 297 914 z "},"Ŵ":{"ha":1349,"x_min":-47,"x_max":1388,"o":"m 53 964 l 278 964 l 500 336 l 417 -25 l 53 964 m 746 994 l 771 857 l 463 129 q 454 106 463 129 q 438 47 446 82 q 429 -25 431 13 l 417 -25 l 378 140 l 733 994 l 746 994 m 746 993 l 1051 318 l 985 -25 l 650 715 l 746 993 m 1283 964 l 1022 129 q 1015 105 1022 129 q 1002 45 1008 81 q 999 -25 996 10 l 985 -25 l 946 113 l 1189 964 l 1283 964 m 1163 872 q 1156 936 1174 914 q 1110 958 1138 958 l 1097 958 l 1097 972 l 1388 972 l 1388 958 q 1382 958 1388 958 q 1376 958 1376 958 q 1307 938 1344 958 q 1254 872 1269 918 l 1163 872 m 311 872 l 86 872 q 32 938 68 918 q -36 958 -4 958 q -42 958 -36 958 q -47 958 -47 958 l -47 972 l 376 972 l 376 958 l 364 958 q 317 936 338 958 q 311 872 297 914 z "},"Ẅ":{"ha":1349,"x_min":-47,"x_max":1388,"o":"m 53 964 l 278 964 l 500 336 l 417 -25 l 53 964 m 746 994 l 771 857 l 463 129 q 454 106 463 129 q 438 47 446 82 q 429 -25 431 13 l 417 -25 l 378 140 l 733 994 l 746 994 m 746 993 l 1051 318 l 985 -25 l 650 715 l 746 993 m 1283 964 l 1022 129 q 1015 105 1022 129 q 1002 45 1008 81 q 999 -25 996 10 l 985 -25 l 946 113 l 1189 964 l 1283 964 m 1163 872 q 1156 936 1174 914 q 1110 958 1138 958 l 1097 958 l 1097 972 l 1388 972 l 1388 958 q 1382 958 1388 958 q 1376 958 1376 958 q 1307 938 1344 958 q 1254 872 1269 918 l 1163 872 m 311 872 l 86 872 q 32 938 68 918 q -36 958 -4 958 q -42 958 -36 958 q -47 958 -47 958 l -47 972 l 376 972 l 376 958 l 364 958 q 317 936 338 958 q 311 872 297 914 z "},"Ẁ":{"ha":1349,"x_min":-47,"x_max":1388,"o":"m 53 964 l 278 964 l 500 336 l 417 -25 l 53 964 m 746 994 l 771 857 l 463 129 q 454 106 463 129 q 438 47 446 82 q 429 -25 431 13 l 417 -25 l 378 140 l 733 994 l 746 994 m 746 993 l 1051 318 l 985 -25 l 650 715 l 746 993 m 1283 964 l 1022 129 q 1015 105 1022 129 q 1002 45 1008 81 q 999 -25 996 10 l 985 -25 l 946 113 l 1189 964 l 1283 964 m 1163 872 q 1156 936 1174 914 q 1110 958 1138 958 l 1097 958 l 1097 972 l 1388 972 l 1388 958 q 1382 958 1388 958 q 1376 958 1376 958 q 1307 938 1344 958 q 1254 872 1269 918 l 1163 872 m 311 872 l 86 872 q 32 938 68 918 q -36 958 -4 958 q -42 958 -36 958 q -47 958 -47 958 l -47 972 l 376 972 l 376 958 l 364 958 q 317 936 338 958 q 311 872 297 914 z "},"X":{"ha":1013,"x_min":-33,"x_max":1050,"o":"m 322 972 l 951 1 l 706 1 l 79 972 l 322 972 m 243 100 q 235 60 231 81 q 257 27 240 40 q 292 14 274 14 q 301 14 292 14 q 310 14 310 14 l 310 0 l -33 0 l -33 14 l -14 14 q 67 39 31 14 q 126 96 103 64 l 243 100 m 414 503 l 482 450 l 175 0 l 58 0 l 414 503 m 642 100 l 890 94 q 950 38 913 63 q 1031 14 988 14 l 1050 14 l 1050 0 l 576 0 l 576 14 q 585 14 576 14 q 594 14 594 14 q 641 42 622 14 q 642 100 660 69 m 451 972 l 451 958 q 443 958 451 958 q 435 958 435 958 q 401 945 417 958 q 380 912 385 932 q 388 872 375 892 l 140 876 q 81 933 118 908 q 0 958 44 958 l -19 958 l -19 972 l 451 972 m 911 972 l 575 474 l 518 542 l 793 972 l 911 972 m 1006 972 l 1006 958 l 986 958 q 906 933 943 958 q 846 876 869 908 l 729 872 q 737 912 742 892 q 717 945 732 932 q 682 958 701 958 q 674 958 682 958 q 665 958 665 958 l 664 972 l 1006 972 z "},"Y":{"ha":975,"x_min":-43,"x_max":1021,"o":"m 296 971 l 581 454 l 383 435 l 58 971 l 296 971 m 588 447 l 588 0 l 379 0 l 379 447 l 588 447 m 811 971 l 919 971 l 572 419 l 503 433 l 811 971 m 754 872 q 761 912 767 892 q 740 945 756 932 q 706 958 725 958 q 697 958 706 958 q 689 958 689 958 l 689 972 l 1021 972 l 1021 958 l 1001 958 q 920 933 958 958 q 861 876 882 908 l 754 872 m 350 872 l 115 876 q 58 933 96 908 q -24 958 21 958 l -43 958 l -43 972 l 417 972 l 417 958 q 408 958 417 958 q 399 958 399 958 q 352 930 368 958 q 350 872 336 901 m 383 101 l 383 0 l 272 0 l 272 14 q 281 14 272 14 q 290 14 289 14 q 352 40 326 14 q 379 101 378 65 l 383 101 m 583 101 l 588 101 q 614 40 588 65 q 676 14 640 14 q 685 14 676 14 q 693 14 693 14 l 693 0 l 583 0 l 583 101 z "},"Ý":{"ha":975,"x_min":-43,"x_max":1021,"o":"m 296 971 l 581 454 l 383 435 l 58 971 l 296 971 m 588 447 l 588 0 l 379 0 l 379 447 l 588 447 m 811 971 l 919 971 l 572 419 l 503 433 l 811 971 m 754 872 q 761 912 767 892 q 740 945 756 932 q 706 958 725 958 q 697 958 706 958 q 689 958 689 958 l 689 972 l 1021 972 l 1021 958 l 1001 958 q 920 933 958 958 q 861 876 882 908 l 754 872 m 350 872 l 115 876 q 58 933 96 908 q -24 958 21 958 l -43 958 l -43 972 l 417 972 l 417 958 q 408 958 417 958 q 399 958 399 958 q 352 930 368 958 q 350 872 336 901 m 383 101 l 383 0 l 272 0 l 272 14 q 281 14 272 14 q 290 14 289 14 q 352 40 326 14 q 379 101 378 65 l 383 101 m 583 101 l 588 101 q 614 40 588 65 q 676 14 640 14 q 685 14 676 14 q 693 14 693 14 l 693 0 l 583 0 l 583 101 z "},"Ŷ":{"ha":975,"x_min":-43,"x_max":1021,"o":"m 296 971 l 581 454 l 383 435 l 58 971 l 296 971 m 588 447 l 588 0 l 379 0 l 379 447 l 588 447 m 811 971 l 919 971 l 572 419 l 503 433 l 811 971 m 754 872 q 761 912 767 892 q 740 945 756 932 q 706 958 725 958 q 697 958 706 958 q 689 958 689 958 l 689 972 l 1021 972 l 1021 958 l 1001 958 q 920 933 958 958 q 861 876 882 908 l 754 872 m 350 872 l 115 876 q 58 933 96 908 q -24 958 21 958 l -43 958 l -43 972 l 417 972 l 417 958 q 408 958 417 958 q 399 958 399 958 q 352 930 368 958 q 350 872 336 901 m 383 101 l 383 0 l 272 0 l 272 14 q 281 14 272 14 q 290 14 289 14 q 352 40 326 14 q 379 101 378 65 l 383 101 m 583 101 l 588 101 q 614 40 588 65 q 676 14 640 14 q 685 14 676 14 q 693 14 693 14 l 693 0 l 583 0 l 583 101 z "},"Ÿ":{"ha":975,"x_min":-43,"x_max":1021,"o":"m 296 971 l 581 454 l 383 435 l 58 971 l 296 971 m 588 447 l 588 0 l 379 0 l 379 447 l 588 447 m 811 971 l 919 971 l 572 419 l 503 433 l 811 971 m 754 872 q 761 912 767 892 q 740 945 756 932 q 706 958 725 958 q 697 958 706 958 q 689 958 689 958 l 689 972 l 1021 972 l 1021 958 l 1001 958 q 920 933 958 958 q 861 876 882 908 l 754 872 m 350 872 l 115 876 q 58 933 96 908 q -24 958 21 958 l -43 958 l -43 972 l 417 972 l 417 958 q 408 958 417 958 q 399 958 399 958 q 352 930 368 958 q 350 872 336 901 m 383 101 l 383 0 l 272 0 l 272 14 q 281 14 272 14 q 290 14 289 14 q 352 40 326 14 q 379 101 378 65 l 383 101 m 583 101 l 588 101 q 614 40 588 65 q 676 14 640 14 q 685 14 676 14 q 693 14 693 14 l 693 0 l 583 0 l 583 101 z "},"Ỳ":{"ha":975,"x_min":-43,"x_max":1021,"o":"m 296 971 l 581 454 l 383 435 l 58 971 l 296 971 m 588 447 l 588 0 l 379 0 l 379 447 l 588 447 m 811 971 l 919 971 l 572 419 l 503 433 l 811 971 m 754 872 q 761 912 767 892 q 740 945 756 932 q 706 958 725 958 q 697 958 706 958 q 689 958 689 958 l 689 972 l 1021 972 l 1021 958 l 1001 958 q 920 933 958 958 q 861 876 882 908 l 754 872 m 350 872 l 115 876 q 58 933 96 908 q -24 958 21 958 l -43 958 l -43 972 l 417 972 l 417 958 q 408 958 417 958 q 399 958 399 958 q 352 930 368 958 q 350 872 336 901 m 383 101 l 383 0 l 272 0 l 272 14 q 281 14 272 14 q 290 14 289 14 q 352 40 326 14 q 379 101 378 65 l 383 101 m 583 101 l 588 101 q 614 40 588 65 q 676 14 640 14 q 685 14 676 14 q 693 14 693 14 l 693 0 l 583 0 l 583 101 z "},"Z":{"ha":918,"x_min":63,"x_max":879,"o":"m 840 992 q 840 985 840 992 q 840 979 840 979 l 292 0 l 63 0 l 63 13 l 571 915 l 82 915 l 82 974 l 693 974 q 752 976 721 974 q 808 983 783 979 q 840 992 832 988 m 825 58 l 817 0 l 160 0 l 160 58 l 825 58 m 879 279 l 829 0 l 575 0 l 593 44 l 615 58 q 773 119 707 58 q 865 279 839 179 l 879 279 m 236 915 q 133 876 171 914 q 96 772 96 838 l 96 756 l 82 756 l 82 919 l 236 919 l 236 915 m 82 999 q 124 988 96 993 q 188 978 153 982 q 251 974 222 974 l 82 958 l 82 999 z "},"Ź":{"ha":918,"x_min":63,"x_max":879,"o":"m 840 992 q 840 985 840 992 q 840 979 840 979 l 292 0 l 63 0 l 63 13 l 571 915 l 82 915 l 82 974 l 693 974 q 752 976 721 974 q 808 983 783 979 q 840 992 832 988 m 825 58 l 817 0 l 160 0 l 160 58 l 825 58 m 879 279 l 829 0 l 575 0 l 593 44 l 615 58 q 773 119 707 58 q 865 279 839 179 l 879 279 m 236 915 q 133 876 171 914 q 96 772 96 838 l 96 756 l 82 756 l 82 919 l 236 919 l 236 915 m 82 999 q 124 988 96 993 q 188 978 153 982 q 251 974 222 974 l 82 958 l 82 999 z "},"Ž":{"ha":918,"x_min":63,"x_max":879,"o":"m 840 992 q 840 985 840 992 q 840 979 840 979 l 292 0 l 63 0 l 63 13 l 571 915 l 82 915 l 82 974 l 693 974 q 752 976 721 974 q 808 983 783 979 q 840 992 832 988 m 825 58 l 817 0 l 160 0 l 160 58 l 825 58 m 879 279 l 829 0 l 575 0 l 593 44 l 615 58 q 773 119 707 58 q 865 279 839 179 l 879 279 m 236 915 q 133 876 171 914 q 96 772 96 838 l 96 756 l 82 756 l 82 919 l 236 919 l 236 915 m 82 999 q 124 988 96 993 q 188 978 153 982 q 251 974 222 974 l 82 958 l 82 999 z "},"Ż":{"ha":918,"x_min":63,"x_max":879,"o":"m 840 992 q 840 985 840 992 q 840 979 840 979 l 292 0 l 63 0 l 63 13 l 571 915 l 82 915 l 82 974 l 693 974 q 752 976 721 974 q 808 983 783 979 q 840 992 832 988 m 825 58 l 817 0 l 160 0 l 160 58 l 825 58 m 879 279 l 829 0 l 575 0 l 593 44 l 615 58 q 773 119 707 58 q 865 279 839 179 l 879 279 m 236 915 q 133 876 171 914 q 96 772 96 838 l 96 756 l 82 756 l 82 919 l 236 919 l 236 915 m 82 999 q 124 988 96 993 q 188 978 153 982 q 251 974 222 974 l 82 958 l 82 999 z "},"a":{"ha":894,"x_min":-37,"x_max":935,"o":"m 443 871 l 854 7 l 619 7 l 361 617 l 443 871 m 182 92 q 186 34 167 54 q 229 14 206 14 l 240 14 l 240 0 l -37 0 l -37 14 q -32 14 -37 14 q -26 14 -26 14 q 32 31 1 14 q 82 92 63 49 l 182 92 m 443 871 l 446 704 l 144 4 l 42 4 l 367 703 q 379 733 369 711 q 400 781 389 754 q 421 833 411 808 q 432 871 431 857 l 443 871 m 564 272 l 564 218 l 210 218 l 210 272 l 564 272 m 585 92 l 814 92 q 865 31 835 49 q 924 14 896 14 q 929 14 924 14 q 935 14 935 14 l 935 0 l 526 0 l 526 14 l 538 14 q 581 34 561 14 q 585 92 600 54 z "},"á":{"ha":894,"x_min":-37,"x_max":935,"o":"m 443 871 l 854 7 l 619 7 l 361 617 l 443 871 m 182 92 q 186 34 167 54 q 229 14 206 14 l 240 14 l 240 0 l -37 0 l -37 14 q -32 14 -37 14 q -26 14 -26 14 q 32 31 1 14 q 82 92 63 49 l 182 92 m 443 871 l 446 704 l 144 4 l 42 4 l 367 703 q 379 733 369 711 q 400 781 389 754 q 421 833 411 808 q 432 871 431 857 l 443 871 m 564 272 l 564 218 l 210 218 l 210 272 l 564 272 m 585 92 l 814 92 q 865 31 835 49 q 924 14 896 14 q 929 14 924 14 q 935 14 935 14 l 935 0 l 526 0 l 526 14 l 538 14 q 581 34 561 14 q 585 92 600 54 z "},"ă":{"ha":894,"x_min":-37,"x_max":935,"o":"m 443 871 l 854 7 l 619 7 l 361 617 l 443 871 m 182 92 q 186 34 167 54 q 229 14 206 14 l 240 14 l 240 0 l -37 0 l -37 14 q -32 14 -37 14 q -26 14 -26 14 q 32 31 1 14 q 82 92 63 49 l 182 92 m 443 871 l 446 704 l 144 4 l 42 4 l 367 703 q 379 733 369 711 q 400 781 389 754 q 421 833 411 808 q 432 871 431 857 l 443 871 m 564 272 l 564 218 l 210 218 l 210 272 l 564 272 m 585 92 l 814 92 q 865 31 835 49 q 924 14 896 14 q 929 14 924 14 q 935 14 935 14 l 935 0 l 526 0 l 526 14 l 538 14 q 581 34 561 14 q 585 92 600 54 z "},"â":{"ha":894,"x_min":-37,"x_max":935,"o":"m 443 871 l 854 7 l 619 7 l 361 617 l 443 871 m 182 92 q 186 34 167 54 q 229 14 206 14 l 240 14 l 240 0 l -37 0 l -37 14 q -32 14 -37 14 q -26 14 -26 14 q 32 31 1 14 q 82 92 63 49 l 182 92 m 443 871 l 446 704 l 144 4 l 42 4 l 367 703 q 379 733 369 711 q 400 781 389 754 q 421 833 411 808 q 432 871 431 857 l 443 871 m 564 272 l 564 218 l 210 218 l 210 272 l 564 272 m 585 92 l 814 92 q 865 31 835 49 q 924 14 896 14 q 929 14 924 14 q 935 14 935 14 l 935 0 l 526 0 l 526 14 l 538 14 q 581 34 561 14 q 585 92 600 54 z "},"ä":{"ha":894,"x_min":-37,"x_max":935,"o":"m 443 871 l 854 7 l 619 7 l 361 617 l 443 871 m 182 92 q 186 34 167 54 q 229 14 206 14 l 240 14 l 240 0 l -37 0 l -37 14 q -32 14 -37 14 q -26 14 -26 14 q 32 31 1 14 q 82 92 63 49 l 182 92 m 443 871 l 446 704 l 144 4 l 42 4 l 367 703 q 379 733 369 711 q 400 781 389 754 q 421 833 411 808 q 432 871 431 857 l 443 871 m 564 272 l 564 218 l 210 218 l 210 272 l 564 272 m 585 92 l 814 92 q 865 31 835 49 q 924 14 896 14 q 929 14 924 14 q 935 14 935 14 l 935 0 l 526 0 l 526 14 l 538 14 q 581 34 561 14 q 585 92 600 54 z "},"à":{"ha":894,"x_min":-37,"x_max":935,"o":"m 443 871 l 854 7 l 619 7 l 361 617 l 443 871 m 182 92 q 186 34 167 54 q 229 14 206 14 l 240 14 l 240 0 l -37 0 l -37 14 q -32 14 -37 14 q -26 14 -26 14 q 32 31 1 14 q 82 92 63 49 l 182 92 m 443 871 l 446 704 l 144 4 l 42 4 l 367 703 q 379 733 369 711 q 400 781 389 754 q 421 833 411 808 q 432 871 431 857 l 443 871 m 564 272 l 564 218 l 210 218 l 210 272 l 564 272 m 585 92 l 814 92 q 865 31 835 49 q 924 14 896 14 q 929 14 924 14 q 935 14 935 14 l 935 0 l 526 0 l 526 14 l 538 14 q 581 34 561 14 q 585 92 600 54 z "},"ā":{"ha":894,"x_min":-37,"x_max":935,"o":"m 443 871 l 854 7 l 619 7 l 361 617 l 443 871 m 182 92 q 186 34 167 54 q 229 14 206 14 l 240 14 l 240 0 l -37 0 l -37 14 q -32 14 -37 14 q -26 14 -26 14 q 32 31 1 14 q 82 92 63 49 l 182 92 m 443 871 l 446 704 l 144 4 l 42 4 l 367 703 q 379 733 369 711 q 400 781 389 754 q 421 833 411 808 q 432 871 431 857 l 443 871 m 564 272 l 564 218 l 210 218 l 210 272 l 564 272 m 585 92 l 814 92 q 865 31 835 49 q 924 14 896 14 q 929 14 924 14 q 935 14 935 14 l 935 0 l 526 0 l 526 14 l 538 14 q 581 34 561 14 q 585 92 600 54 z "},"ą":{"ha":879,"x_min":-37,"x_max":919,"o":"m 174 92 q 177 34 157 54 q 221 14 197 14 l 232 14 l 232 0 l -37 0 l -37 14 q -32 14 -37 14 q -26 14 -26 14 q 31 32 1 14 q 82 92 61 50 l 174 92 m 438 863 l 442 707 l 136 4 l 40 4 l 363 696 q 376 725 367 704 q 396 772 385 746 q 416 823 407 799 q 426 863 425 847 l 438 863 m 438 863 l 844 7 l 619 7 l 363 618 l 438 863 m 561 276 l 561 224 l 208 224 l 208 276 l 561 276 m 638 -6 q 571 -45 588 -17 q 556 -106 554 -74 q 584 -172 558 -147 q 647 -195 610 -196 q 717 -164 683 -194 l 725 -172 q 688 -246 718 -221 q 616 -275 657 -271 q 537 -262 575 -279 q 476 -210 499 -246 q 458 -121 453 -175 q 490 -49 463 -76 q 558 0 517 -21 q 590 33 582 13 q 582 96 599 54 l 806 90 q 844 41 821 58 q 889 17 868 24 q 919 11 910 11 l 919 -3 q 866 0 900 -3 q 791 4 832 3 q 709 3 750 6 q 638 -6 668 1 z "},"å":{"ha":894,"x_min":-37,"x_max":935,"o":"m 443 871 l 854 7 l 619 7 l 361 617 l 443 871 m 182 92 q 186 34 167 54 q 229 14 206 14 l 240 14 l 240 0 l -37 0 l -37 14 q -32 14 -37 14 q -26 14 -26 14 q 32 31 1 14 q 82 92 63 49 l 182 92 m 443 871 l 446 704 l 144 4 l 42 4 l 367 703 q 379 733 369 711 q 400 781 389 754 q 421 833 411 808 q 432 871 431 857 l 443 871 m 564 272 l 564 218 l 210 218 l 210 272 l 564 272 m 585 92 l 814 92 q 865 31 835 49 q 924 14 896 14 q 929 14 924 14 q 935 14 935 14 l 935 0 l 526 0 l 526 14 l 538 14 q 581 34 561 14 q 585 92 600 54 z "},"ã":{"ha":894,"x_min":-37,"x_max":935,"o":"m 443 871 l 854 7 l 619 7 l 361 617 l 443 871 m 182 92 q 186 34 167 54 q 229 14 206 14 l 240 14 l 240 0 l -37 0 l -37 14 q -32 14 -37 14 q -26 14 -26 14 q 32 31 1 14 q 82 92 63 49 l 182 92 m 443 871 l 446 704 l 144 4 l 42 4 l 367 703 q 379 733 369 711 q 400 781 389 754 q 421 833 411 808 q 432 871 431 857 l 443 871 m 564 272 l 564 218 l 210 218 l 210 272 l 564 272 m 585 92 l 814 92 q 865 31 835 49 q 924 14 896 14 q 929 14 924 14 q 935 14 935 14 l 935 0 l 526 0 l 526 14 l 538 14 q 581 34 561 14 q 585 92 600 54 z "},"æ":{"ha":1204,"x_min":-29,"x_max":1176,"o":"m 193 85 q 184 47 179 63 q 203 23 189 32 q 233 14 218 14 l 244 14 l 244 0 l -29 0 l -29 14 q -24 14 -29 14 q -19 14 -19 14 q 37 32 10 14 q 88 88 64 50 l 193 85 m 771 832 l 771 0 l 574 0 l 574 778 l 771 832 m 576 69 l 576 0 l 503 0 l 503 14 q 510 14 504 14 q 515 14 515 14 q 556 30 539 14 q 574 69 574 46 l 576 69 m 1104 56 l 1104 0 l 767 0 l 767 56 l 1104 56 m 1046 431 l 1046 376 l 357 376 l 363 431 l 1046 431 m 1104 832 l 1104 776 l 653 776 l 600 729 l 142 4 l 31 4 l 564 768 q 567 805 576 789 q 538 821 558 821 l 532 821 l 532 832 l 1104 832 m 1176 244 l 1122 0 l 894 0 l 935 56 q 1076 106 1017 56 q 1163 244 1136 156 l 1176 244 m 1046 379 l 1046 260 l 1033 260 l 1033 268 q 1003 345 1033 315 q 926 376 972 375 l 926 379 l 1046 379 m 1046 549 l 1046 428 l 926 428 l 926 431 q 1003 463 972 432 q 1033 539 1033 493 l 1033 549 l 1046 549 m 1104 781 l 1104 640 l 1092 640 l 1092 653 q 1058 742 1092 708 q 968 778 1024 776 l 968 781 l 1104 781 m 1104 854 l 1104 819 l 958 832 q 1042 840 997 832 q 1104 854 1086 847 z "},"b":{"ha":839,"x_min":50,"x_max":801,"o":"m 193 833 l 424 833 q 533 825 478 833 q 635 794 589 817 q 708 732 681 772 q 736 626 736 692 q 714 536 736 574 q 657 478 692 499 q 583 454 622 457 q 693 422 644 450 q 772 347 742 394 q 801 238 801 300 q 774 127 801 172 q 697 53 746 82 q 585 13 649 25 q 453 0 522 0 l 328 0 q 328 14 328 0 q 328 42 328 28 q 328 56 328 56 l 394 56 q 485 74 444 56 q 551 136 526 93 q 576 250 576 179 q 562 335 576 299 q 521 395 547 372 q 458 429 494 418 q 379 440 422 440 l 379 453 q 438 462 410 453 q 485 490 465 471 q 517 539 506 508 q 529 613 529 569 q 486 742 529 706 q 378 779 443 779 l 206 779 q 202 794 206 781 q 196 820 199 807 q 193 833 193 833 m 338 833 l 338 0 l 142 0 l 142 833 l 338 833 m 146 88 l 146 0 l 50 0 l 50 14 q 58 14 51 14 q 65 14 64 14 q 120 35 99 14 q 142 88 142 57 l 146 88 m 146 746 l 142 746 q 120 799 142 779 q 65 819 99 819 q 58 819 64 819 q 50 819 51 819 l 50 833 l 146 833 l 146 746 z "},"c":{"ha":949,"x_min":47,"x_max":896,"o":"m 881 349 l 896 139 q 822 59 869 94 q 707 3 775 24 q 549 -18 639 -18 q 281 35 393 -17 q 108 183 168 86 q 47 418 47 279 q 107 651 47 554 q 279 799 167 747 q 549 851 392 851 q 724 833 643 851 q 860 788 806 815 l 861 567 l 850 567 q 740 746 815 694 q 561 797 665 797 q 394 750 461 797 q 292 618 326 703 q 258 419 258 533 q 292 219 258 304 q 392 88 326 135 q 549 38 457 40 q 712 68 647 38 q 815 167 776 99 q 869 349 853 235 l 881 349 z "},"ć":{"ha":949,"x_min":47,"x_max":896,"o":"m 881 349 l 896 139 q 822 59 869 94 q 707 3 775 24 q 549 -18 639 -18 q 281 35 393 -17 q 108 183 168 86 q 47 418 47 279 q 107 651 47 554 q 279 799 167 747 q 549 851 392 851 q 724 833 643 851 q 860 788 806 815 l 861 567 l 850 567 q 740 746 815 694 q 561 797 665 797 q 394 750 461 797 q 292 618 326 703 q 258 419 258 533 q 292 219 258 304 q 392 88 326 135 q 549 38 457 40 q 712 68 647 38 q 815 167 776 99 q 869 349 853 235 l 881 349 z "},"č":{"ha":949,"x_min":47,"x_max":896,"o":"m 881 349 l 896 139 q 822 59 869 94 q 707 3 775 24 q 549 -18 639 -18 q 281 35 393 -17 q 108 183 168 86 q 47 418 47 279 q 107 651 47 554 q 279 799 167 747 q 549 851 392 851 q 724 833 643 851 q 860 788 806 815 l 861 567 l 850 567 q 740 746 815 694 q 561 797 665 797 q 394 750 461 797 q 292 618 326 703 q 258 419 258 533 q 292 219 258 304 q 392 88 326 135 q 549 38 457 40 q 712 68 647 38 q 815 167 776 99 q 869 349 853 235 l 881 349 z "},"ç":{"ha":949,"x_min":47,"x_max":896,"o":"m 881 349 l 896 139 q 822 59 869 94 q 707 3 775 24 q 549 -18 639 -18 q 281 35 393 -17 q 108 183 168 86 q 47 418 47 279 q 107 651 47 554 q 279 799 167 747 q 549 851 392 851 q 724 833 643 851 q 860 788 806 815 l 861 567 l 850 567 q 740 746 815 694 q 561 797 665 797 q 394 750 461 797 q 292 618 326 703 q 258 419 258 533 q 292 219 258 304 q 392 88 326 135 q 549 38 457 40 q 712 68 647 38 q 815 167 776 99 q 869 349 853 235 l 881 349 z "},"ċ":{"ha":949,"x_min":47,"x_max":896,"o":"m 881 349 l 896 139 q 822 59 869 94 q 707 3 775 24 q 549 -18 639 -18 q 281 35 393 -17 q 108 183 168 86 q 47 418 47 279 q 107 651 47 554 q 279 799 167 747 q 549 851 392 851 q 724 833 643 851 q 860 788 806 815 l 861 567 l 850 567 q 740 746 815 694 q 561 797 665 797 q 394 750 461 797 q 292 618 326 703 q 258 419 258 533 q 292 219 258 304 q 392 88 326 135 q 549 38 457 40 q 712 68 647 38 q 815 167 776 99 q 869 349 853 235 l 881 349 z "},"d":{"ha":1039,"x_min":46,"x_max":992,"o":"m 515 833 q 771 784 664 833 q 935 641 878 735 q 992 417 992 547 q 935 193 992 286 q 771 50 878 100 q 515 0 664 0 l 207 0 l 204 56 q 374 56 310 56 q 469 56 439 56 q 499 56 499 56 q 705 151 629 56 q 781 417 781 247 q 705 683 781 586 q 499 779 629 779 q 468 779 499 779 q 369 779 438 779 q 190 779 301 779 l 190 833 l 515 833 m 342 833 l 342 0 l 142 0 l 142 833 l 342 833 m 146 89 l 146 0 l 46 0 l 46 14 q 54 14 46 14 q 64 14 63 14 q 119 36 96 14 q 142 89 142 58 l 146 89 m 144 746 l 142 746 q 117 799 140 778 q 63 819 94 819 q 54 819 63 819 q 46 819 46 819 l 46 833 l 144 833 l 144 746 z "},"ð":{"ha":1039,"x_min":46,"x_max":992,"o":"m 515 833 q 771 784 664 833 q 935 641 878 735 q 992 417 992 547 q 935 193 992 286 q 771 50 878 100 q 515 0 664 0 l 207 0 l 204 56 q 374 56 310 56 q 469 56 439 56 q 499 56 499 56 q 705 151 629 56 q 781 417 781 247 q 705 683 781 586 q 499 779 629 779 q 468 779 499 779 q 369 779 438 779 q 190 779 301 779 l 190 833 l 515 833 m 342 833 l 342 0 l 142 0 l 142 833 l 342 833 m 146 88 l 146 0 l 46 0 l 46 14 q 54 14 46 14 q 64 14 63 14 q 119 35 96 14 q 142 88 142 57 l 146 88 m 144 746 l 142 746 q 118 799 142 778 q 63 819 94 819 q 54 819 63 819 q 46 819 46 819 l 46 833 l 144 833 l 144 746 m 51 444 l 517 444 l 517 390 l 51 390 l 51 444 z "},"ď":{"ha":1039,"x_min":46,"x_max":992,"o":"m 515 833 q 771 784 664 833 q 935 641 878 735 q 992 417 992 547 q 935 193 992 286 q 771 50 878 100 q 515 0 664 0 l 207 0 l 204 56 q 374 56 310 56 q 469 56 439 56 q 499 56 499 56 q 705 151 629 56 q 781 417 781 247 q 705 683 781 586 q 499 779 629 779 q 468 779 499 779 q 369 779 438 779 q 190 779 301 779 l 190 833 l 515 833 m 342 833 l 342 0 l 142 0 l 142 833 l 342 833 m 146 89 l 146 0 l 46 0 l 46 14 q 54 14 46 14 q 64 14 63 14 q 119 36 96 14 q 142 89 142 58 l 146 89 m 144 746 l 142 746 q 117 799 140 778 q 63 819 94 819 q 54 819 63 819 q 46 819 46 819 l 46 833 l 144 833 l 144 746 z "},"đ":{"ha":1039,"x_min":46,"x_max":992,"o":"m 515 833 q 771 784 664 833 q 935 641 878 735 q 992 417 992 547 q 935 193 992 286 q 771 50 878 100 q 515 0 664 0 l 207 0 l 204 56 q 374 56 310 56 q 469 56 439 56 q 499 56 499 56 q 705 151 629 56 q 781 417 781 247 q 705 683 781 586 q 499 779 629 779 q 468 779 499 779 q 369 779 438 779 q 190 779 301 779 l 190 833 l 515 833 m 342 833 l 342 0 l 142 0 l 142 833 l 342 833 m 146 89 l 146 0 l 46 0 l 46 14 q 54 14 46 14 q 64 14 63 14 q 119 36 96 14 q 142 89 142 58 l 146 89 m 144 746 l 142 746 q 117 799 140 778 q 63 819 94 819 q 54 819 63 819 q 46 819 46 819 l 46 833 l 144 833 l 144 746 z "},"e":{"ha":783,"x_min":47,"x_max":754,"o":"m 340 833 l 340 0 l 140 0 l 140 833 l 340 833 m 665 56 l 697 0 l 338 0 l 338 56 l 665 56 m 618 440 l 618 385 l 338 385 l 338 440 l 618 440 m 681 833 l 681 778 l 338 778 l 338 833 l 681 833 m 754 256 l 701 0 l 461 0 l 504 56 q 610 80 564 56 q 690 149 657 104 q 742 256 724 194 l 754 256 m 618 388 l 618 265 l 604 265 l 604 276 q 576 353 604 322 q 499 385 547 385 l 499 388 l 618 388 m 618 560 l 618 438 l 499 438 l 499 440 q 576 473 547 442 q 604 550 604 504 l 604 560 l 618 560 m 681 781 l 681 633 l 667 633 l 667 646 q 634 742 667 707 q 540 778 601 776 l 540 781 l 681 781 m 681 854 l 681 821 l 535 833 q 619 841 575 833 q 681 854 664 849 m 144 88 l 150 0 l 47 0 l 47 14 q 56 14 47 14 q 65 14 64 14 q 118 35 96 14 q 140 88 140 57 l 144 88 m 144 746 l 140 746 q 118 799 140 778 q 65 819 96 819 q 56 819 64 819 q 47 819 47 819 l 47 833 l 150 833 l 144 746 z "},"é":{"ha":783,"x_min":47,"x_max":754,"o":"m 340 833 l 340 0 l 140 0 l 140 833 l 340 833 m 665 56 l 697 0 l 338 0 l 338 56 l 665 56 m 618 440 l 618 385 l 338 385 l 338 440 l 618 440 m 681 833 l 681 778 l 338 778 l 338 833 l 681 833 m 754 256 l 701 0 l 461 0 l 504 56 q 610 80 564 56 q 690 149 657 104 q 742 256 724 194 l 754 256 m 618 388 l 618 265 l 604 265 l 604 276 q 576 353 604 322 q 499 385 547 385 l 499 388 l 618 388 m 618 560 l 618 438 l 499 438 l 499 440 q 576 473 547 442 q 604 550 604 504 l 604 560 l 618 560 m 681 781 l 681 633 l 667 633 l 667 646 q 634 742 667 707 q 540 778 601 776 l 540 781 l 681 781 m 681 854 l 681 821 l 535 833 q 619 841 575 833 q 681 854 664 849 m 144 88 l 150 0 l 47 0 l 47 14 q 56 14 47 14 q 65 14 64 14 q 118 35 96 14 q 140 88 140 57 l 144 88 m 144 746 l 140 746 q 118 799 140 778 q 65 819 96 819 q 56 819 64 819 q 47 819 47 819 l 47 833 l 150 833 l 144 746 z "},"ě":{"ha":783,"x_min":47,"x_max":754,"o":"m 340 833 l 340 0 l 140 0 l 140 833 l 340 833 m 665 56 l 697 0 l 338 0 l 338 56 l 665 56 m 618 440 l 618 385 l 338 385 l 338 440 l 618 440 m 681 833 l 681 778 l 338 778 l 338 833 l 681 833 m 754 256 l 701 0 l 461 0 l 504 56 q 610 80 564 56 q 690 149 657 104 q 742 256 724 194 l 754 256 m 618 388 l 618 265 l 604 265 l 604 276 q 576 353 604 322 q 499 385 547 385 l 499 388 l 618 388 m 618 560 l 618 438 l 499 438 l 499 440 q 576 473 547 442 q 604 550 604 504 l 604 560 l 618 560 m 681 781 l 681 633 l 667 633 l 667 646 q 634 742 667 707 q 540 778 601 776 l 540 781 l 681 781 m 681 854 l 681 821 l 535 833 q 619 841 575 833 q 681 854 664 849 m 144 88 l 150 0 l 47 0 l 47 14 q 56 14 47 14 q 65 14 64 14 q 118 35 96 14 q 140 88 140 57 l 144 88 m 144 746 l 140 746 q 118 799 140 778 q 65 819 96 819 q 56 819 64 819 q 47 819 47 819 l 47 833 l 150 833 l 144 746 z "},"ê":{"ha":783,"x_min":47,"x_max":754,"o":"m 340 833 l 340 0 l 140 0 l 140 833 l 340 833 m 665 56 l 697 0 l 338 0 l 338 56 l 665 56 m 618 440 l 618 385 l 338 385 l 338 440 l 618 440 m 681 833 l 681 778 l 338 778 l 338 833 l 681 833 m 754 256 l 701 0 l 461 0 l 504 56 q 610 80 564 56 q 690 149 657 104 q 742 256 724 194 l 754 256 m 618 388 l 618 265 l 604 265 l 604 276 q 576 353 604 322 q 499 385 547 385 l 499 388 l 618 388 m 618 560 l 618 438 l 499 438 l 499 440 q 576 473 547 442 q 604 550 604 504 l 604 560 l 618 560 m 681 781 l 681 633 l 667 633 l 667 646 q 634 742 667 707 q 540 778 601 776 l 540 781 l 681 781 m 681 854 l 681 821 l 535 833 q 619 841 575 833 q 681 854 664 849 m 144 88 l 150 0 l 47 0 l 47 14 q 56 14 47 14 q 65 14 64 14 q 118 35 96 14 q 140 88 140 57 l 144 88 m 144 746 l 140 746 q 118 799 140 778 q 65 819 96 819 q 56 819 64 819 q 47 819 47 819 l 47 833 l 150 833 l 144 746 z "},"ë":{"ha":783,"x_min":47,"x_max":754,"o":"m 340 833 l 340 0 l 140 0 l 140 833 l 340 833 m 665 56 l 697 0 l 338 0 l 338 56 l 665 56 m 618 440 l 618 385 l 338 385 l 338 440 l 618 440 m 681 833 l 681 778 l 338 778 l 338 833 l 681 833 m 754 256 l 701 0 l 461 0 l 504 56 q 610 80 564 56 q 690 149 657 104 q 742 256 724 194 l 754 256 m 618 388 l 618 265 l 604 265 l 604 276 q 576 353 604 322 q 499 385 547 385 l 499 388 l 618 388 m 618 560 l 618 438 l 499 438 l 499 440 q 576 473 547 442 q 604 550 604 504 l 604 560 l 618 560 m 681 781 l 681 633 l 667 633 l 667 646 q 634 742 667 707 q 540 778 601 776 l 540 781 l 681 781 m 681 854 l 681 821 l 535 833 q 619 841 575 833 q 681 854 664 849 m 144 88 l 150 0 l 47 0 l 47 14 q 56 14 47 14 q 65 14 64 14 q 118 35 96 14 q 140 88 140 57 l 144 88 m 144 746 l 140 746 q 118 799 140 778 q 65 819 96 819 q 56 819 64 819 q 47 819 47 819 l 47 833 l 150 833 l 144 746 z "},"ė":{"ha":783,"x_min":47,"x_max":754,"o":"m 340 833 l 340 0 l 140 0 l 140 833 l 340 833 m 665 56 l 697 0 l 338 0 l 338 56 l 665 56 m 618 440 l 618 385 l 338 385 l 338 440 l 618 440 m 681 833 l 681 778 l 338 778 l 338 833 l 681 833 m 754 256 l 701 0 l 461 0 l 504 56 q 610 80 564 56 q 690 149 657 104 q 742 256 724 194 l 754 256 m 618 388 l 618 265 l 604 265 l 604 276 q 576 353 604 322 q 499 385 547 385 l 499 388 l 618 388 m 618 560 l 618 438 l 499 438 l 499 440 q 576 473 547 442 q 604 550 604 504 l 604 560 l 618 560 m 681 781 l 681 633 l 667 633 l 667 646 q 634 742 667 707 q 540 778 601 776 l 540 781 l 681 781 m 681 854 l 681 821 l 535 833 q 619 841 575 833 q 681 854 664 849 m 144 88 l 150 0 l 47 0 l 47 14 q 56 14 47 14 q 65 14 64 14 q 118 35 96 14 q 140 88 140 57 l 144 88 m 144 746 l 140 746 q 118 799 140 778 q 65 819 96 819 q 56 819 64 819 q 47 819 47 819 l 47 833 l 150 833 l 144 746 z "},"è":{"ha":783,"x_min":47,"x_max":754,"o":"m 340 833 l 340 0 l 140 0 l 140 833 l 340 833 m 665 56 l 697 0 l 338 0 l 338 56 l 665 56 m 618 440 l 618 385 l 338 385 l 338 440 l 618 440 m 681 833 l 681 778 l 338 778 l 338 833 l 681 833 m 754 256 l 701 0 l 461 0 l 504 56 q 610 80 564 56 q 690 149 657 104 q 742 256 724 194 l 754 256 m 618 388 l 618 265 l 604 265 l 604 276 q 576 353 604 322 q 499 385 547 385 l 499 388 l 618 388 m 618 560 l 618 438 l 499 438 l 499 440 q 576 473 547 442 q 604 550 604 504 l 604 560 l 618 560 m 681 781 l 681 633 l 667 633 l 667 646 q 634 742 667 707 q 540 778 601 776 l 540 781 l 681 781 m 681 854 l 681 821 l 535 833 q 619 841 575 833 q 681 854 664 849 m 144 88 l 150 0 l 47 0 l 47 14 q 56 14 47 14 q 65 14 64 14 q 118 35 96 14 q 140 88 140 57 l 144 88 m 144 746 l 140 746 q 118 799 140 778 q 65 819 96 819 q 56 819 64 819 q 47 819 47 819 l 47 833 l 150 833 l 144 746 z "},"ē":{"ha":783,"x_min":47,"x_max":754,"o":"m 340 833 l 340 0 l 140 0 l 140 833 l 340 833 m 665 56 l 697 0 l 338 0 l 338 56 l 665 56 m 618 440 l 618 385 l 338 385 l 338 440 l 618 440 m 681 833 l 681 778 l 338 778 l 338 833 l 681 833 m 754 256 l 701 0 l 461 0 l 504 56 q 610 80 564 56 q 690 149 657 104 q 742 256 724 194 l 754 256 m 618 388 l 618 265 l 604 265 l 604 276 q 576 353 604 322 q 499 385 547 385 l 499 388 l 618 388 m 618 560 l 618 438 l 499 438 l 499 440 q 576 473 547 442 q 604 550 604 504 l 604 560 l 618 560 m 681 781 l 681 633 l 667 633 l 667 646 q 634 742 667 707 q 540 778 601 776 l 540 781 l 681 781 m 681 854 l 681 821 l 535 833 q 619 841 575 833 q 681 854 664 849 m 144 88 l 150 0 l 47 0 l 47 14 q 56 14 47 14 q 65 14 64 14 q 118 35 96 14 q 140 88 140 57 l 144 88 m 144 746 l 140 746 q 118 799 140 778 q 65 819 96 819 q 56 819 64 819 q 47 819 47 819 l 47 833 l 150 833 l 144 746 z "},"ę":{"ha":783,"x_min":47,"x_max":771,"o":"m 340 833 l 340 0 l 140 0 l 140 833 l 340 833 m 665 56 l 697 0 l 338 0 l 338 56 l 665 56 m 618 440 l 618 385 l 338 385 l 338 440 l 618 440 m 681 833 l 681 778 l 338 778 l 338 833 l 681 833 m 754 256 l 701 0 l 461 0 l 504 56 q 610 80 564 56 q 690 149 657 104 q 742 256 724 194 l 754 256 m 618 388 l 618 265 l 604 265 l 604 276 q 576 353 604 322 q 499 385 547 385 l 499 388 l 618 388 m 618 560 l 618 438 l 499 438 l 499 440 q 576 473 547 442 q 604 550 604 504 l 604 560 l 618 560 m 681 781 l 681 633 l 667 633 l 667 646 q 634 742 667 707 q 540 778 601 776 l 540 781 l 681 781 m 681 854 l 681 821 l 535 833 q 619 841 575 833 q 681 854 664 849 m 144 88 l 150 0 l 47 0 l 47 14 q 56 14 47 14 q 65 14 64 14 q 118 35 96 14 q 140 88 140 57 l 144 88 m 144 746 l 140 746 q 118 799 140 778 q 65 819 96 819 q 56 819 64 819 q 47 819 47 819 l 47 833 l 150 833 l 144 746 z "},"f":{"ha":743,"x_min":47,"x_max":683,"o":"m 340 833 l 340 0 l 140 0 l 140 833 l 340 833 m 619 440 l 619 385 l 338 385 l 338 440 l 619 440 m 683 833 l 683 778 l 338 778 l 338 833 l 683 833 m 619 388 l 619 265 l 606 265 l 606 276 q 577 353 606 322 q 499 385 549 385 l 499 388 l 619 388 m 619 560 l 619 438 l 499 438 l 499 440 q 577 473 549 442 q 606 550 606 504 l 606 560 l 619 560 m 683 782 l 683 632 l 668 632 l 668 646 q 635 741 668 706 q 540 778 601 776 l 540 782 l 683 782 m 683 854 l 683 821 l 536 833 q 592 837 563 833 q 647 845 622 840 q 683 854 672 850 m 144 88 l 150 0 l 47 0 l 47 14 q 56 14 47 14 q 65 14 64 14 q 118 35 96 14 q 140 88 140 57 l 144 88 m 144 746 l 140 746 q 118 799 140 778 q 65 819 96 819 q 56 819 64 819 q 47 819 47 819 l 47 833 l 150 833 l 144 746 m 338 88 l 340 88 q 363 35 342 57 q 417 14 385 14 q 425 14 417 14 q 435 14 433 14 l 433 0 l 332 0 l 338 88 z "},"g":{"ha":1014,"x_min":47,"x_max":1000,"o":"m 514 851 q 642 844 578 851 q 763 822 707 836 q 858 788 819 807 l 858 567 l 847 567 q 781 706 825 656 q 681 776 738 756 q 557 797 624 797 q 393 751 460 797 q 292 619 326 706 q 258 410 258 532 q 289 211 258 294 q 379 82 319 128 q 524 36 439 36 q 608 51 568 36 q 679 94 649 65 q 722 164 710 122 l 724 331 q 708 372 724 358 q 663 386 692 386 l 643 386 l 643 399 l 1000 399 l 1000 386 l 982 386 q 922 331 921 386 l 922 146 q 832 70 893 108 q 688 7 771 32 q 506 -18 604 -18 q 264 35 367 -17 q 104 185 161 88 q 47 418 47 282 q 104 651 47 554 q 265 799 161 747 q 514 851 369 851 z "},"ğ":{"ha":1014,"x_min":47,"x_max":1000,"o":"m 514 851 q 642 844 578 851 q 763 822 707 836 q 858 788 819 807 l 858 567 l 847 567 q 781 706 825 656 q 681 776 738 756 q 557 797 624 797 q 393 751 460 797 q 292 619 326 706 q 258 410 258 532 q 289 211 258 294 q 379 82 319 128 q 524 36 439 36 q 608 51 568 36 q 679 94 649 65 q 722 164 710 122 l 724 331 q 708 372 724 358 q 663 386 692 386 l 643 386 l 643 399 l 1000 399 l 1000 386 l 982 386 q 922 331 921 386 l 922 146 q 832 70 893 108 q 688 7 771 32 q 506 -18 604 -18 q 264 35 367 -17 q 104 185 161 88 q 47 418 47 282 q 104 651 47 554 q 265 799 161 747 q 514 851 369 851 z "},"ģ":{"ha":1014,"x_min":47,"x_max":1000,"o":"m 467 -108 q 507 -90 483 -92 q 553 -99 531 -87 q 588 -137 575 -111 q 600 -215 604 -176 q 574 -285 596 -254 q 519 -332 551 -315 q 450 -343 488 -349 l 446 -332 q 483 -304 471 -322 q 494 -262 496 -286 q 472 -217 492 -239 q 449 -161 451 -193 q 467 -108 446 -129 m 514 851 q 642 844 578 851 q 763 822 707 836 q 858 788 819 807 l 858 567 l 847 567 q 781 706 825 656 q 681 776 738 756 q 557 797 624 797 q 393 751 460 797 q 292 619 326 706 q 258 410 258 532 q 289 211 258 294 q 379 82 319 128 q 524 36 439 36 q 608 51 568 36 q 679 94 649 65 q 722 164 710 122 l 724 331 q 708 372 724 358 q 663 386 692 386 l 643 386 l 643 399 l 1000 399 l 1000 386 l 982 386 q 922 331 921 386 l 922 146 q 832 70 893 108 q 688 7 771 32 q 506 -18 604 -18 q 264 35 367 -17 q 104 185 161 88 q 47 418 47 282 q 104 651 47 554 q 265 799 161 747 q 514 851 369 851 z "},"ġ":{"ha":1014,"x_min":47,"x_max":1000,"o":"m 514 851 q 642 844 578 851 q 763 822 707 836 q 858 788 819 807 l 858 567 l 847 567 q 781 706 825 656 q 681 776 738 756 q 557 797 624 797 q 393 751 460 797 q 292 619 326 706 q 258 410 258 532 q 289 211 258 294 q 379 82 319 128 q 524 36 439 36 q 608 51 568 36 q 679 94 649 65 q 722 164 710 122 l 724 331 q 708 372 724 358 q 663 386 692 386 l 643 386 l 643 399 l 1000 399 l 1000 386 l 982 386 q 922 331 921 386 l 922 146 q 832 70 893 108 q 688 7 771 32 q 506 -18 604 -18 q 264 35 367 -17 q 104 185 161 88 q 47 418 47 282 q 104 651 47 554 q 265 799 161 747 q 514 851 369 851 z "},"h":{"ha":1043,"x_min":47,"x_max":996,"o":"m 904 833 l 904 0 l 706 0 l 706 833 l 904 833 m 339 833 l 339 0 l 139 0 l 139 833 l 339 833 m 717 443 l 717 388 l 326 388 l 326 443 l 717 443 m 143 88 l 143 0 l 47 0 l 47 14 q 55 14 47 14 q 64 14 63 14 q 117 35 94 14 q 139 88 139 57 l 143 88 m 336 88 l 339 88 q 363 35 340 57 q 415 14 385 14 q 423 14 415 14 q 431 14 431 14 l 431 0 l 336 0 l 336 88 m 336 746 l 336 833 l 431 833 l 431 819 q 423 819 431 819 q 415 819 415 819 q 363 799 385 819 q 339 746 340 778 l 336 746 m 143 746 l 139 746 q 117 799 139 778 q 64 819 94 819 q 55 819 63 819 q 47 819 47 819 l 47 833 l 143 833 l 143 746 m 708 88 l 708 0 l 614 0 l 614 14 q 622 14 614 14 q 629 14 629 14 q 682 35 660 14 q 704 88 704 57 l 708 88 m 900 88 l 904 88 q 927 35 906 57 q 981 14 949 14 q 988 14 981 14 q 996 14 996 14 l 996 0 l 900 0 l 900 88 m 901 746 l 901 833 l 996 833 l 996 819 q 988 819 996 819 q 981 819 981 819 q 927 799 949 819 q 906 746 906 778 l 901 746 m 708 746 l 704 746 q 682 799 704 778 q 629 819 660 819 q 622 819 629 819 q 614 819 614 819 l 614 833 l 708 833 l 708 746 z "},"ħ":{"ha":1044,"x_min":47,"x_max":996,"o":"m 994 638 l 994 583 l 53 583 l 53 638 l 994 638 m 904 833 l 904 0 l 706 0 l 706 833 l 904 833 m 339 833 l 339 0 l 139 0 l 139 833 l 339 833 m 717 443 l 717 388 l 326 388 l 326 443 l 717 443 m 143 88 l 143 0 l 47 0 l 47 14 q 55 14 47 14 q 64 14 63 14 q 117 35 94 14 q 139 88 139 57 l 143 88 m 336 88 l 339 88 q 363 35 340 57 q 415 14 385 14 q 423 14 415 14 q 431 14 431 14 l 431 0 l 336 0 l 336 88 m 336 746 l 336 833 l 431 833 l 431 819 q 423 819 431 819 q 415 819 415 819 q 363 799 385 819 q 339 746 340 778 l 336 746 m 143 746 l 139 746 q 117 799 139 778 q 64 819 94 819 q 55 819 63 819 q 47 819 47 819 l 47 833 l 143 833 l 143 746 m 708 88 l 708 0 l 614 0 l 614 14 q 622 14 614 14 q 629 14 629 14 q 682 35 660 14 q 704 88 704 57 l 708 88 m 900 88 l 904 88 q 927 35 906 57 q 981 14 949 14 q 988 14 981 14 q 996 14 996 14 l 996 0 l 900 0 l 900 88 m 901 746 l 901 833 l 996 833 l 996 819 q 988 819 996 819 q 981 819 981 819 q 927 799 949 819 q 906 746 906 778 l 901 746 m 708 746 l 704 746 q 682 799 704 778 q 629 819 660 819 q 622 819 629 819 q 614 819 614 819 l 614 833 l 708 833 l 708 746 z "},"i":{"ha":489,"x_min":47,"x_max":442,"o":"m 344 833 l 344 0 l 144 0 l 144 833 l 344 833 m 149 88 l 149 0 l 47 0 l 47 14 q 56 14 47 14 q 65 14 64 14 q 121 35 97 14 q 144 88 144 57 l 149 88 m 342 88 l 344 88 q 369 35 346 57 q 425 14 392 14 q 433 14 425 14 q 442 14 440 14 l 442 0 l 342 0 l 342 88 m 342 746 l 342 833 l 442 833 l 440 819 q 433 819 440 819 q 425 819 426 819 q 369 799 392 819 q 344 746 346 778 l 342 746 m 149 746 l 144 746 q 121 799 144 778 q 64 819 97 819 q 56 819 64 819 q 47 819 47 819 l 47 833 l 149 833 l 149 746 z "},"ı":{"ha":474,"x_min":47,"x_max":426,"o":"m 336 833 l 336 0 l 136 0 l 136 833 l 336 833 m 140 88 l 140 0 l 47 0 l 47 14 q 55 14 47 14 q 63 14 63 14 q 115 35 93 14 q 136 88 136 57 l 140 88 m 333 88 l 336 88 q 359 35 338 57 q 411 14 381 14 q 418 14 411 14 q 425 14 425 14 l 426 0 l 333 0 l 333 88 m 333 746 l 333 833 l 425 833 l 425 819 q 418 819 425 819 q 411 819 411 819 q 359 799 381 819 q 336 746 338 778 l 333 746 m 140 746 l 136 746 q 115 799 136 778 q 63 819 93 819 q 55 819 63 819 q 47 819 47 819 l 47 833 l 140 833 l 140 746 z "},"í":{"ha":472,"x_min":47,"x_max":506,"o":"m 336 833 l 336 0 l 136 0 l 136 833 l 336 833 m 140 88 l 140 0 l 47 0 l 47 14 q 55 14 47 14 q 63 14 63 14 q 115 35 93 14 q 136 88 136 57 l 140 88 m 333 88 l 336 88 q 359 35 338 57 q 411 14 381 14 q 418 14 411 14 q 425 14 425 14 l 426 0 l 333 0 l 333 88 m 333 746 l 333 833 l 425 833 l 425 819 q 418 819 425 819 q 411 819 411 819 q 359 799 381 819 q 336 746 338 778 l 333 746 m 140 746 l 136 746 q 115 799 136 778 q 63 819 93 819 q 55 819 63 819 q 47 819 47 819 l 47 833 l 140 833 l 140 746 z "},"î":{"ha":472,"x_min":25,"x_max":454,"o":"m 336 833 l 336 0 l 136 0 l 136 833 l 336 833 m 140 88 l 140 0 l 47 0 l 47 14 q 55 14 47 14 q 63 14 63 14 q 115 35 93 14 q 136 88 136 57 l 140 88 m 333 88 l 336 88 q 359 35 338 57 q 411 14 381 14 q 418 14 411 14 q 425 14 425 14 l 426 0 l 333 0 l 333 88 m 333 746 l 333 833 l 425 833 l 425 819 q 418 819 425 819 q 411 819 411 819 q 359 799 381 819 q 336 746 338 778 l 333 746 m 140 746 l 136 746 q 115 799 136 778 q 63 819 93 819 q 55 819 63 819 q 47 819 47 819 l 47 833 l 140 833 l 140 746 z "},"ï":{"ha":472,"x_min":-14,"x_max":476,"o":"m 336 833 l 336 0 l 136 0 l 136 833 l 336 833 m 140 88 l 140 0 l 47 0 l 47 14 q 55 14 47 14 q 63 14 63 14 q 115 35 93 14 q 136 88 136 57 l 140 88 m 333 88 l 336 88 q 359 35 338 57 q 411 14 381 14 q 418 14 411 14 q 425 14 425 14 l 426 0 l 333 0 l 333 88 m 333 746 l 333 833 l 425 833 l 425 819 q 418 819 425 819 q 411 819 411 819 q 359 799 381 819 q 336 746 338 778 l 333 746 m 140 746 l 136 746 q 115 799 136 778 q 63 819 93 819 q 55 819 63 819 q 47 819 47 819 l 47 833 l 140 833 l 140 746 z "},"ì":{"ha":474,"x_min":-32,"x_max":426,"o":"m 336 833 l 336 0 l 136 0 l 136 833 l 336 833 m 140 88 l 140 0 l 47 0 l 47 14 q 55 14 47 14 q 63 14 63 14 q 115 35 93 14 q 136 88 136 57 l 140 88 m 333 88 l 336 88 q 359 35 338 57 q 411 14 381 14 q 418 14 411 14 q 425 14 425 14 l 426 0 l 333 0 l 333 88 m 333 746 l 333 833 l 425 833 l 425 819 q 418 819 425 819 q 411 819 411 819 q 359 799 381 819 q 336 746 338 778 l 333 746 m 140 746 l 136 746 q 115 799 136 778 q 63 819 93 819 q 55 819 63 819 q 47 819 47 819 l 47 833 l 140 833 l 140 746 z "},"ĳ":{"ha":963,"x_min":47,"x_max":926,"o":"m 344 833 l 344 0 l 144 0 l 144 833 l 344 833 m 149 88 l 149 0 l 47 0 l 47 14 q 56 14 47 14 q 65 14 64 14 q 121 35 97 14 q 144 88 144 57 l 149 88 m 342 88 l 344 88 q 369 35 346 57 q 425 14 392 14 q 433 14 425 14 q 442 14 440 14 l 442 0 l 342 0 l 342 88 m 342 746 l 342 833 l 442 833 l 440 819 q 433 819 440 819 q 425 819 426 819 q 369 799 392 819 q 344 746 346 778 l 342 746 m 149 746 l 144 746 q 121 799 144 778 q 64 819 97 819 q 56 819 64 819 q 47 819 47 819 l 47 833 l 149 833 l 149 746 m 829 833 l 829 43 q 800 -81 829 -25 q 722 -176 771 -137 q 613 -231 674 -214 q 485 -242 551 -249 l 485 -229 q 570 -162 539 -206 q 615 -65 601 -119 q 628 46 628 -10 l 628 833 l 829 833 m 633 833 l 633 743 l 629 743 q 605 797 628 775 q 547 819 582 819 l 532 819 l 531 833 l 633 833 m 926 833 l 926 819 l 910 819 q 853 797 876 819 q 829 743 831 775 l 825 743 l 825 833 l 926 833 z "},"ī":{"ha":501,"x_min":61,"x_max":442,"o":"m 349 833 l 349 0 l 149 0 l 149 833 l 349 833 m 153 88 l 153 0 l 60 0 l 60 14 q 67 14 60 14 q 75 14 75 14 q 127 35 106 14 q 149 88 149 57 l 153 88 m 346 88 l 349 88 q 372 35 350 57 q 424 14 393 14 q 431 14 424 14 q 438 14 438 14 l 439 0 l 346 0 l 346 88 m 346 746 l 346 833 l 438 833 l 438 819 q 431 819 438 819 q 424 819 424 819 q 372 799 393 819 q 349 746 350 778 l 346 746 m 153 746 l 149 746 q 127 799 149 778 q 75 819 106 819 q 67 819 75 819 q 60 819 60 819 l 60 833 l 153 833 l 153 746 z "},"į":{"ha":474,"x_min":49,"x_max":426,"o":"m 338 833 l 338 0 l 138 0 l 138 833 l 338 833 m 142 88 l 142 0 l 49 0 l 49 13 q 56 13 49 13 q 64 13 64 13 q 115 35 93 13 q 138 88 138 57 l 142 88 m 335 88 l 338 88 q 360 35 339 57 q 411 13 382 13 q 418 13 411 13 q 426 13 425 13 l 426 0 l 335 0 l 335 88 m 335 746 l 335 833 l 426 833 l 425 821 q 418 821 425 821 q 411 821 411 821 q 360 799 382 821 q 338 746 339 778 l 335 746 m 142 746 l 138 746 q 115 799 138 778 q 64 821 93 821 q 56 821 64 821 q 49 821 49 821 l 49 833 l 142 833 l 142 746 m 288 4 l 301 0 q 223 -42 243 -12 q 206 -108 203 -71 q 234 -173 208 -149 q 297 -197 260 -197 q 367 -167 333 -197 l 375 -175 q 338 -249 368 -224 q 267 -278 307 -274 q 188 -266 226 -282 q 126 -214 150 -250 q 107 -124 103 -178 q 140 -48 113 -76 q 208 -6 168 -19 q 288 4 247 7 z "},"j":{"ha":474,"x_min":-4,"x_max":438,"o":"m 340 833 l 340 43 q 311 -81 340 -25 q 233 -176 282 -137 q 124 -231 185 -214 q -4 -242 63 -249 l -4 -229 q 81 -162 50 -206 q 126 -65 113 -119 q 139 46 139 -10 l 139 833 l 340 833 m 144 833 l 144 743 l 140 743 q 116 797 139 775 q 58 819 93 819 l 43 819 l 42 833 l 144 833 m 438 833 l 438 819 l 421 819 q 365 797 388 819 q 340 743 342 775 l 336 743 l 336 833 l 438 833 z "},"k":{"ha":935,"x_min":49,"x_max":965,"o":"m 531 524 l 842 93 q 897 34 868 54 q 965 13 926 14 l 965 0 l 858 0 q 813 1 844 0 q 740 12 781 3 q 657 43 699 21 q 583 107 615 65 q 560 140 576 117 q 520 196 543 164 q 473 261 497 228 q 428 324 449 294 q 394 371 407 353 q 382 389 382 389 l 531 524 m 825 825 l 463 397 l 382 389 l 711 825 l 825 825 m 910 835 l 910 821 l 904 821 q 831 806 865 821 q 774 764 796 790 l 667 767 q 672 803 682 786 q 639 821 663 821 l 626 821 l 626 835 l 904 835 l 910 835 m 342 835 l 342 0 l 142 0 l 142 835 l 342 835 m 144 88 l 144 0 l 50 0 l 50 14 q 56 14 50 14 q 64 14 63 14 q 118 35 96 14 q 142 88 140 57 l 144 88 m 338 88 l 342 88 q 364 35 342 57 q 418 14 386 14 q 426 14 419 14 q 433 14 433 14 l 433 0 l 338 0 l 338 88 m 338 746 l 338 835 l 433 835 l 433 821 q 426 821 432 821 q 418 821 419 821 q 364 799 386 821 q 342 746 342 778 l 338 746 m 144 746 l 142 746 q 118 799 140 778 q 64 821 96 821 q 57 821 64 821 q 49 821 50 821 l 49 835 l 144 835 l 144 746 z "},"ķ":{"ha":935,"x_min":49,"x_max":965,"o":"m 531 524 l 842 93 q 897 34 868 54 q 965 13 926 14 l 965 0 l 858 0 q 813 1 844 0 q 740 12 781 3 q 657 43 699 21 q 583 107 615 65 q 560 140 576 117 q 520 196 543 164 q 473 261 497 228 q 428 324 449 294 q 394 371 407 353 q 382 389 382 389 l 531 524 m 825 825 l 463 397 l 382 389 l 711 825 l 825 825 m 910 835 l 910 821 l 904 821 q 831 806 865 821 q 774 764 796 790 l 667 767 q 672 803 682 786 q 639 821 663 821 l 626 821 l 626 835 l 904 835 l 910 835 m 342 835 l 342 0 l 142 0 l 142 835 l 342 835 m 144 88 l 144 0 l 50 0 l 50 14 q 56 14 50 14 q 64 14 63 14 q 118 35 96 14 q 142 88 140 57 l 144 88 m 338 88 l 342 88 q 364 35 342 57 q 418 14 386 14 q 426 14 419 14 q 433 14 433 14 l 433 0 l 338 0 l 338 88 m 338 746 l 338 835 l 433 835 l 433 821 q 426 821 432 821 q 418 821 419 821 q 364 799 386 821 q 342 746 342 778 l 338 746 m 144 746 l 142 746 q 118 799 140 778 q 64 821 96 821 q 57 821 64 821 q 49 821 50 821 l 49 835 l 144 835 l 144 746 m 450 -157 q 470 -107 450 -125 q 518 -89 490 -89 q 583 -123 561 -89 q 604 -200 604 -157 q 562 -304 604 -264 q 454 -346 519 -344 l 450 -332 q 485 -307 472 -324 q 499 -269 499 -290 q 494 -242 499 -256 q 476 -217 489 -229 q 458 -189 465 -204 q 450 -157 450 -174 z "},"l":{"ha":763,"x_min":47,"x_max":756,"o":"m 340 833 l 340 0 l 140 0 l 140 833 l 340 833 m 664 56 l 697 0 l 338 0 l 338 56 l 664 56 m 756 256 l 701 0 l 461 0 l 504 56 q 610 80 564 56 q 690 149 657 104 q 742 256 724 194 l 756 256 m 144 88 l 150 0 l 47 0 l 47 14 q 56 14 47 14 q 65 14 64 14 q 118 35 96 14 q 140 88 140 57 l 144 88 m 338 746 l 338 833 l 433 833 l 433 819 q 424 819 432 819 q 417 819 417 819 q 364 799 386 819 q 340 746 342 778 l 338 746 m 144 746 l 140 746 q 117 799 140 778 q 64 819 94 819 q 55 819 63 819 q 47 819 47 819 l 47 833 l 144 833 l 144 746 z "},"ĺ":{"ha":763,"x_min":47,"x_max":756,"o":"m 340 833 l 340 0 l 140 0 l 140 833 l 340 833 m 664 56 l 697 0 l 338 0 l 338 56 l 664 56 m 756 256 l 701 0 l 461 0 l 504 56 q 610 80 564 56 q 690 149 657 104 q 742 256 724 194 l 756 256 m 144 88 l 150 0 l 47 0 l 47 14 q 56 14 47 14 q 65 14 64 14 q 118 35 96 14 q 140 88 140 57 l 144 88 m 338 746 l 338 833 l 433 833 l 433 819 q 424 819 432 819 q 417 819 417 819 q 364 799 386 819 q 340 746 342 778 l 338 746 m 144 746 l 140 746 q 117 799 140 778 q 64 819 94 819 q 55 819 63 819 q 47 819 47 819 l 47 833 l 144 833 l 144 746 z "},"ľ":{"ha":763,"x_min":47,"x_max":756,"o":"m 340 833 l 340 0 l 140 0 l 140 833 l 340 833 m 664 56 l 697 0 l 338 0 l 338 56 l 664 56 m 756 256 l 701 0 l 461 0 l 504 56 q 610 80 564 56 q 690 149 657 104 q 742 256 724 194 l 756 256 m 144 88 l 150 0 l 47 0 l 47 14 q 56 14 47 14 q 65 14 64 14 q 118 35 96 14 q 140 88 140 57 l 144 88 m 338 746 l 338 833 l 433 833 l 433 819 q 424 819 432 819 q 417 819 417 819 q 364 799 386 819 q 340 746 342 778 l 338 746 m 144 746 l 140 746 q 117 799 140 778 q 64 819 94 819 q 55 819 63 819 q 47 819 47 819 l 47 833 l 144 833 l 144 746 m 544 814 q 585 833 561 831 q 631 823 608 835 q 664 786 653 811 q 676 708 681 747 q 651 638 672 669 q 597 590 629 607 q 526 579 564 574 l 524 590 q 560 619 547 600 q 570 661 572 638 q 549 707 568 685 q 525 762 528 731 q 544 814 522 793 z "},"ļ":{"ha":763,"x_min":47,"x_max":756,"o":"m 340 833 l 340 0 l 140 0 l 140 833 l 340 833 m 664 56 l 697 0 l 338 0 l 338 56 l 664 56 m 756 256 l 701 0 l 461 0 l 504 56 q 610 80 564 56 q 690 149 657 104 q 742 256 724 194 l 756 256 m 144 88 l 150 0 l 47 0 l 47 14 q 56 14 47 14 q 65 14 64 14 q 118 35 96 14 q 140 88 140 57 l 144 88 m 338 746 l 338 833 l 433 833 l 433 819 q 424 819 432 819 q 417 819 417 819 q 364 799 386 819 q 340 746 342 778 l 338 746 m 144 746 l 140 746 q 117 799 140 778 q 64 819 94 819 q 55 819 63 819 q 47 819 47 819 l 47 833 l 144 833 l 144 746 m 340 -157 q 360 -107 340 -125 q 408 -89 381 -89 q 473 -123 451 -89 q 494 -200 494 -157 q 452 -304 494 -264 q 344 -346 410 -344 l 340 -332 q 376 -307 363 -324 q 389 -269 389 -290 q 384 -242 389 -256 q 367 -217 379 -229 q 348 -189 356 -204 q 340 -157 340 -174 z "},"ŀ":{"ha":763,"x_min":47,"x_max":756,"o":"m 538 450 q 476 475 501 450 q 450 536 450 500 q 476 598 450 572 q 538 624 501 624 q 599 598 574 624 q 624 536 624 572 q 599 475 624 500 q 538 450 574 450 m 340 833 l 340 0 l 140 0 l 140 833 l 340 833 m 664 56 l 697 0 l 338 0 l 338 56 l 664 56 m 756 256 l 701 0 l 461 0 l 504 56 q 610 80 564 56 q 690 149 657 104 q 742 256 724 194 l 756 256 m 144 88 l 150 0 l 47 0 l 47 14 q 56 14 47 14 q 65 14 64 14 q 118 35 96 14 q 140 88 140 57 l 144 88 m 338 746 l 338 833 l 433 833 l 433 819 q 424 819 432 819 q 417 819 417 819 q 364 799 386 819 q 340 746 342 778 l 338 746 m 144 746 l 140 746 q 117 799 140 778 q 64 819 94 819 q 55 819 63 819 q 47 819 47 819 l 47 833 l 144 833 l 144 746 z "},"ł":{"ha":763,"x_min":35,"x_max":756,"o":"m 35 356 l 483 600 l 514 549 l 64 303 l 35 356 m 340 833 l 340 0 l 140 0 l 140 833 l 340 833 m 664 56 l 697 0 l 338 0 l 338 56 l 664 56 m 756 256 l 701 0 l 461 0 l 504 56 q 610 80 564 56 q 690 149 657 104 q 742 256 724 194 l 756 256 m 144 88 l 150 0 l 47 0 l 47 14 q 56 14 47 14 q 65 14 64 14 q 118 35 96 14 q 140 88 140 57 l 144 88 m 338 746 l 338 833 l 433 833 l 433 819 q 424 819 432 819 q 417 819 417 819 q 364 799 386 819 q 340 746 342 778 l 338 746 m 144 746 l 140 746 q 117 799 140 778 q 64 819 94 819 q 55 819 63 819 q 47 819 47 819 l 47 833 l 144 833 l 144 746 z "},"m":{"ha":1199,"x_min":-11,"x_max":1211,"o":"m 979 851 l 990 708 l 617 115 q 604 92 617 115 q 580 38 592 69 q 567 -26 568 6 l 554 -26 l 500 88 l 979 851 m 125 89 l 125 0 l -11 0 l -11 14 q -2 14 -11 14 q 7 14 7 14 q 67 33 42 14 q 99 89 93 53 l 125 89 m 186 69 q 195 34 185 54 q 233 14 206 14 l 253 14 l 253 0 l 169 0 l 178 69 l 186 69 m 207 851 l 218 851 l 265 718 l 178 0 l 88 0 l 207 851 m 218 851 l 629 236 l 554 -26 l 185 533 l 218 851 m 992 851 l 1114 0 l 901 0 l 833 507 l 979 851 l 992 851 m 1075 89 l 1101 89 q 1134 33 1108 53 q 1192 14 1160 14 q 1201 14 1192 14 q 1211 14 1211 14 l 1211 0 l 1075 0 l 1075 89 m 892 69 l 900 69 l 908 0 l 825 0 l 825 14 l 844 14 q 885 34 875 14 q 892 69 894 54 z "},"n":{"ha":1082,"x_min":29,"x_max":1054,"o":"m 126 853 l 942 136 l 956 -18 l 142 699 l 126 853 m 132 85 l 132 0 l 29 0 l 29 14 q 40 14 29 14 q 51 14 51 14 q 106 34 83 14 q 128 85 128 54 l 132 85 m 318 85 q 342 34 319 54 q 394 14 364 14 q 406 14 394 14 q 417 14 417 14 l 417 0 l 315 0 l 315 85 l 318 85 m 126 853 l 318 644 l 318 0 l 128 0 l 128 694 q 121 809 128 765 q 114 853 114 853 l 126 853 m 954 833 l 954 144 q 958 59 954 96 q 965 2 961 22 q 968 -18 968 -18 l 956 -18 l 764 203 l 764 833 l 954 833 m 950 749 l 950 833 l 1054 833 l 1054 819 q 1042 819 1054 819 q 1031 819 1031 819 q 977 799 1000 819 q 954 749 954 779 l 950 749 m 764 749 q 741 799 763 779 q 688 819 719 819 q 676 819 688 819 q 664 819 664 819 l 664 833 l 767 833 l 767 749 l 764 749 z "},"ń":{"ha":1082,"x_min":29,"x_max":1054,"o":"m 126 853 l 942 136 l 956 -18 l 142 699 l 126 853 m 132 85 l 132 0 l 29 0 l 29 14 q 40 14 29 14 q 51 14 51 14 q 106 34 83 14 q 128 85 128 54 l 132 85 m 318 85 q 342 34 319 54 q 394 14 364 14 q 406 14 394 14 q 417 14 417 14 l 417 0 l 315 0 l 315 85 l 318 85 m 126 853 l 318 644 l 318 0 l 128 0 l 128 694 q 121 809 128 765 q 114 853 114 853 l 126 853 m 954 833 l 954 144 q 958 59 954 96 q 965 2 961 22 q 968 -18 968 -18 l 956 -18 l 764 203 l 764 833 l 954 833 m 950 749 l 950 833 l 1054 833 l 1054 819 q 1042 819 1054 819 q 1031 819 1031 819 q 977 799 1000 819 q 954 749 954 779 l 950 749 m 764 749 q 741 799 763 779 q 688 819 719 819 q 676 819 688 819 q 664 819 664 819 l 664 833 l 767 833 l 767 749 l 764 749 z "},"ň":{"ha":1082,"x_min":29,"x_max":1054,"o":"m 126 853 l 942 136 l 956 -18 l 142 699 l 126 853 m 132 85 l 132 0 l 29 0 l 29 14 q 40 14 29 14 q 51 14 51 14 q 106 34 83 14 q 128 85 128 54 l 132 85 m 318 85 q 342 34 319 54 q 394 14 364 14 q 406 14 394 14 q 417 14 417 14 l 417 0 l 315 0 l 315 85 l 318 85 m 126 853 l 318 644 l 318 0 l 128 0 l 128 694 q 121 809 128 765 q 114 853 114 853 l 126 853 m 954 833 l 954 144 q 958 59 954 96 q 965 2 961 22 q 968 -18 968 -18 l 956 -18 l 764 203 l 764 833 l 954 833 m 950 749 l 950 833 l 1054 833 l 1054 819 q 1042 819 1054 819 q 1031 819 1031 819 q 977 799 1000 819 q 954 749 954 779 l 950 749 m 764 749 q 741 799 763 779 q 688 819 719 819 q 676 819 688 819 q 664 819 664 819 l 664 833 l 767 833 l 767 749 l 764 749 z "},"ņ":{"ha":1082,"x_min":29,"x_max":1054,"o":"m 126 853 l 942 136 l 956 -18 l 142 699 l 126 853 m 132 85 l 132 0 l 29 0 l 29 14 q 40 14 29 14 q 51 14 51 14 q 106 34 83 14 q 128 85 128 54 l 132 85 m 318 85 q 342 34 319 54 q 394 14 364 14 q 406 14 394 14 q 417 14 417 14 l 417 0 l 315 0 l 315 85 l 318 85 m 126 853 l 318 644 l 318 0 l 128 0 l 128 694 q 121 809 128 765 q 114 853 114 853 l 126 853 m 954 833 l 954 144 q 958 59 954 96 q 965 2 961 22 q 968 -18 968 -18 l 956 -18 l 764 203 l 764 833 l 954 833 m 950 749 l 950 833 l 1054 833 l 1054 819 q 1042 819 1054 819 q 1031 819 1031 819 q 977 799 1000 819 q 954 749 954 779 l 950 749 m 764 749 q 741 799 763 779 q 688 819 719 819 q 676 819 688 819 q 664 819 664 819 l 664 833 l 767 833 l 767 749 l 764 749 m 532 -157 q 552 -107 532 -125 q 600 -89 572 -89 q 665 -123 643 -89 q 686 -200 686 -157 q 644 -304 686 -264 q 536 -346 601 -344 l 532 -332 q 567 -307 554 -324 q 581 -269 581 -290 q 576 -242 581 -256 q 558 -217 571 -229 q 540 -189 547 -204 q 532 -157 532 -174 z "},"ŋ":{"ha":1094,"x_min":29,"x_max":1067,"o":"m 132 85 l 132 0 l 29 0 l 29 14 q 40 14 29 14 q 51 14 51 14 q 106 34 83 14 q 128 85 128 54 l 132 85 m 311 85 q 335 34 313 54 q 388 14 357 14 q 399 14 388 14 q 411 14 411 14 l 411 0 l 308 0 l 308 85 l 311 85 m 126 853 l 311 644 l 311 0 l 128 0 l 128 694 q 121 809 128 765 q 114 853 114 853 l 126 853 m 126 853 l 942 136 l 956 -18 l 142 699 l 126 853 m 971 4 q 931 -144 971 -85 q 824 -231 890 -204 q 678 -246 757 -258 l 671 -235 q 722 -193 700 -215 q 758 -141 743 -171 q 781 -66 774 -111 q 788 44 788 -21 l 788 833 l 968 833 l 971 4 m 788 749 q 765 799 786 779 q 713 819 743 819 q 701 819 713 819 q 689 819 690 819 l 689 833 l 790 833 l 790 749 l 788 749 m 964 749 l 964 833 l 1067 833 l 1067 819 q 1055 819 1067 819 q 1043 819 1043 819 q 990 799 1013 819 q 968 749 968 779 l 964 749 z "},"ñ":{"ha":1082,"x_min":29,"x_max":1054,"o":"m 126 853 l 942 136 l 956 -18 l 142 699 l 126 853 m 132 85 l 132 0 l 29 0 l 29 14 q 40 14 29 14 q 51 14 51 14 q 106 34 83 14 q 128 85 128 54 l 132 85 m 318 85 q 342 34 319 54 q 394 14 364 14 q 406 14 394 14 q 417 14 417 14 l 417 0 l 315 0 l 315 85 l 318 85 m 126 853 l 318 644 l 318 0 l 128 0 l 128 694 q 121 809 128 765 q 114 853 114 853 l 126 853 m 954 833 l 954 144 q 958 59 954 96 q 965 2 961 22 q 968 -18 968 -18 l 956 -18 l 764 203 l 764 833 l 954 833 m 950 749 l 950 833 l 1054 833 l 1054 819 q 1042 819 1054 819 q 1031 819 1031 819 q 977 799 1000 819 q 954 749 954 779 l 950 749 m 764 749 q 741 799 763 779 q 688 819 719 819 q 676 819 688 819 q 664 819 664 819 l 664 833 l 767 833 l 767 749 l 764 749 z "},"o":{"ha":1079,"x_min":49,"x_max":1032,"o":"m 539 851 q 740 822 650 851 q 896 735 831 792 q 997 597 961 678 q 1032 415 1032 517 q 997 235 1032 315 q 896 99 961 156 q 740 12 831 42 q 539 -18 650 -18 q 339 12 429 -18 q 183 99 249 42 q 83 235 118 156 q 49 415 49 315 q 83 597 49 517 q 183 735 118 678 q 339 822 249 792 q 539 851 429 851 m 539 36 q 687 83 624 36 q 784 214 750 129 q 818 415 818 299 q 784 619 818 533 q 687 751 750 704 q 539 797 624 797 q 393 751 456 797 q 296 619 331 704 q 261 415 261 533 q 296 214 261 299 q 393 83 331 129 q 539 36 456 36 z "},"ó":{"ha":1079,"x_min":49,"x_max":1032,"o":"m 539 851 q 740 822 650 851 q 896 735 831 792 q 997 597 961 678 q 1032 415 1032 517 q 997 235 1032 315 q 896 99 961 156 q 740 12 831 42 q 539 -18 650 -18 q 339 12 429 -18 q 183 99 249 42 q 83 235 118 156 q 49 415 49 315 q 83 597 49 517 q 183 735 118 678 q 339 822 249 792 q 539 851 429 851 m 539 36 q 687 83 624 36 q 784 214 750 129 q 818 415 818 299 q 784 619 818 533 q 687 751 750 704 q 539 797 624 797 q 393 751 456 797 q 296 619 331 704 q 261 415 261 533 q 296 214 261 299 q 393 83 331 129 q 539 36 456 36 z "},"ô":{"ha":1079,"x_min":49,"x_max":1032,"o":"m 539 851 q 740 822 650 851 q 896 735 831 792 q 997 597 961 678 q 1032 415 1032 517 q 997 235 1032 315 q 896 99 961 156 q 740 12 831 42 q 539 -18 650 -18 q 339 12 429 -18 q 183 99 249 42 q 83 235 118 156 q 49 415 49 315 q 83 597 49 517 q 183 735 118 678 q 339 822 249 792 q 539 851 429 851 m 539 36 q 687 83 624 36 q 784 214 750 129 q 818 415 818 299 q 784 619 818 533 q 687 751 750 704 q 539 797 624 797 q 393 751 456 797 q 296 619 331 704 q 261 415 261 533 q 296 214 261 299 q 393 83 331 129 q 539 36 456 36 z "},"ö":{"ha":1079,"x_min":49,"x_max":1032,"o":"m 539 851 q 740 822 650 851 q 896 735 831 792 q 997 597 961 678 q 1032 415 1032 517 q 997 235 1032 315 q 896 99 961 156 q 740 12 831 42 q 539 -18 650 -18 q 339 12 429 -18 q 183 99 249 42 q 83 235 118 156 q 49 415 49 315 q 83 597 49 517 q 183 735 118 678 q 339 822 249 792 q 539 851 429 851 m 539 36 q 687 83 624 36 q 784 214 750 129 q 818 415 818 299 q 784 619 818 533 q 687 751 750 704 q 539 797 624 797 q 393 751 456 797 q 296 619 331 704 q 261 415 261 533 q 296 214 261 299 q 393 83 331 129 q 539 36 456 36 z "},"ò":{"ha":1079,"x_min":49,"x_max":1032,"o":"m 539 851 q 740 822 650 851 q 896 735 831 792 q 997 597 961 678 q 1032 415 1032 517 q 997 235 1032 315 q 896 99 961 156 q 740 12 831 42 q 539 -18 650 -18 q 339 12 429 -18 q 183 99 249 42 q 83 235 118 156 q 49 415 49 315 q 83 597 49 517 q 183 735 118 678 q 339 822 249 792 q 539 851 429 851 m 539 36 q 687 83 624 36 q 784 214 750 129 q 818 415 818 299 q 784 619 818 533 q 687 751 750 704 q 539 797 624 797 q 393 751 456 797 q 296 619 331 704 q 261 415 261 533 q 296 214 261 299 q 393 83 331 129 q 539 36 456 36 z "},"ő":{"ha":1079,"x_min":49,"x_max":1032,"o":"m 539 851 q 740 822 650 851 q 896 735 831 792 q 997 597 961 678 q 1032 415 1032 517 q 997 235 1032 315 q 896 99 961 156 q 740 12 831 42 q 539 -18 650 -18 q 339 12 429 -18 q 183 99 249 42 q 83 235 118 156 q 49 415 49 315 q 83 597 49 517 q 183 735 118 678 q 339 822 249 792 q 539 851 429 851 m 539 36 q 687 83 624 36 q 784 214 750 129 q 818 415 818 299 q 784 619 818 533 q 687 751 750 704 q 539 797 624 797 q 393 751 456 797 q 296 619 331 704 q 261 415 261 533 q 296 214 261 299 q 393 83 331 129 q 539 36 456 36 z "},"ō":{"ha":1079,"x_min":49,"x_max":1032,"o":"m 539 851 q 740 822 650 851 q 896 735 831 792 q 997 597 961 678 q 1032 415 1032 517 q 997 235 1032 315 q 896 99 961 156 q 740 12 831 42 q 539 -18 650 -18 q 339 12 429 -18 q 183 99 249 42 q 83 235 118 156 q 49 415 49 315 q 83 597 49 517 q 183 735 118 678 q 339 822 249 792 q 539 851 429 851 m 539 36 q 687 83 624 36 q 784 214 750 129 q 818 415 818 299 q 784 619 818 533 q 687 751 750 704 q 539 797 624 797 q 393 751 456 797 q 296 619 331 704 q 261 415 261 533 q 296 214 261 299 q 393 83 331 129 q 539 36 456 36 z "},"ø":{"ha":1079,"x_min":49,"x_max":1032,"o":"m 875 886 l 925 844 l 182 -40 l 132 1 l 875 886 m 539 851 q 736 822 646 851 q 893 735 826 792 q 996 597 960 678 q 1032 415 1032 517 q 997 235 1032 315 q 896 99 961 156 q 740 12 831 42 q 539 -18 650 -18 q 339 12 429 -18 q 183 99 249 42 q 83 235 118 156 q 49 415 49 315 q 83 597 49 517 q 183 735 118 678 q 339 822 249 792 q 539 851 429 851 m 539 36 q 687 83 624 36 q 784 214 750 129 q 818 415 818 299 q 784 619 818 533 q 687 751 750 704 q 539 797 624 797 q 393 751 456 797 q 296 619 331 704 q 261 415 261 533 q 296 214 261 299 q 393 83 331 129 q 539 36 456 36 z "},"õ":{"ha":1079,"x_min":49,"x_max":1032,"o":"m 539 851 q 740 822 650 851 q 896 735 831 792 q 997 597 961 678 q 1032 415 1032 517 q 997 235 1032 315 q 896 99 961 156 q 740 12 831 42 q 539 -18 650 -18 q 339 12 429 -18 q 183 99 249 42 q 83 235 118 156 q 49 415 49 315 q 83 597 49 517 q 183 735 118 678 q 339 822 249 792 q 539 851 429 851 m 539 36 q 687 83 624 36 q 784 214 750 129 q 818 415 818 299 q 784 619 818 533 q 687 751 750 704 q 539 797 624 797 q 393 751 456 797 q 296 619 331 704 q 261 415 261 533 q 296 214 261 299 q 393 83 331 129 q 539 36 456 36 z "},"œ":{"ha":1326,"x_min":49,"x_max":1299,"o":"m 533 853 q 601 849 568 853 q 671 842 635 846 q 712 837 690 839 q 757 835 733 835 l 758 0 q 731 0 746 0 q 689 -3 715 0 q 639 -8 664 -4 q 586 -15 614 -12 q 524 -18 558 -18 q 274 34 381 -18 q 108 184 167 86 q 49 419 49 282 q 108 651 49 554 q 275 801 167 749 q 533 853 383 853 m 535 36 q 610 47 578 36 q 663 77 643 58 q 682 115 682 96 l 682 721 q 663 758 682 740 q 612 788 644 776 q 536 799 579 799 q 391 755 454 799 q 291 626 328 711 q 253 418 254 542 q 288 212 253 297 q 388 81 324 126 q 535 36 451 36 m 878 835 l 878 0 l 683 1 l 683 835 l 878 835 m 1208 56 l 1240 0 l 875 0 l 872 56 l 1208 56 m 1163 440 l 1163 386 l 874 386 l 874 440 l 1163 440 m 1224 835 l 1224 779 l 874 779 l 874 835 l 1224 835 m 1299 253 l 1244 0 l 1006 0 l 1049 56 q 1154 80 1108 56 q 1233 148 1200 104 q 1285 253 1267 192 l 1299 253 m 1163 389 l 1163 269 l 1149 269 l 1149 279 q 1120 355 1149 325 q 1043 386 1092 385 l 1043 389 l 1163 389 m 1163 558 l 1163 439 l 1043 439 l 1043 440 q 1120 473 1092 443 q 1149 549 1149 503 l 1149 558 l 1163 558 m 1224 783 l 1224 639 l 1210 639 l 1210 651 q 1178 744 1210 710 q 1086 779 1146 779 l 1086 783 l 1224 783 m 1224 857 l 1224 821 l 1078 835 q 1163 842 1118 835 q 1224 857 1207 850 z "},"p":{"ha":814,"x_min":47,"x_max":785,"o":"m 325 833 l 458 833 q 640 803 571 833 q 744 720 710 772 q 782 603 779 668 q 749 460 785 521 q 654 367 714 399 q 524 338 594 335 q 383 388 453 342 l 383 400 q 398 400 383 400 q 435 405 413 400 q 481 424 457 410 q 528 465 506 438 q 563 540 550 493 q 569 577 567 557 q 569 613 571 597 q 524 734 568 689 q 403 779 481 779 l 338 779 q 335 792 338 779 q 328 819 332 806 q 325 833 325 833 m 340 833 l 340 0 l 140 0 l 140 833 l 340 833 m 144 88 l 149 0 l 49 0 l 49 14 q 57 14 50 14 q 65 14 64 14 q 118 35 96 14 q 140 88 140 57 l 144 88 m 143 747 l 140 747 q 118 799 140 779 q 65 819 96 819 q 56 819 63 819 q 47 819 50 819 l 47 833 l 149 833 l 143 747 m 338 88 l 340 88 q 363 35 342 57 q 415 14 383 14 q 424 14 418 14 q 432 14 431 14 l 432 0 l 331 0 l 338 88 z "},"þ":{"ha":793,"x_min":60,"x_max":792,"o":"m 326 665 l 467 665 q 648 635 578 665 q 752 551 718 604 q 788 433 786 499 q 756 290 792 350 q 661 197 721 229 q 531 169 601 165 q 392 218 461 172 l 392 229 q 406 229 392 229 q 442 234 419 229 q 490 253 465 239 q 538 295 515 267 q 574 371 560 324 q 580 409 578 389 q 582 444 582 429 q 535 566 579 521 q 414 611 492 611 l 340 611 q 337 624 340 611 q 330 651 333 638 q 326 665 326 665 m 349 833 l 349 0 l 153 0 l 153 833 l 349 833 m 156 88 l 163 0 l 60 0 l 61 14 q 69 14 61 14 q 76 14 76 14 q 130 35 108 14 q 153 88 151 57 l 156 88 m 156 746 l 153 746 q 130 799 151 778 q 76 819 108 819 q 69 819 76 819 q 61 819 61 819 l 60 833 l 163 833 l 156 746 m 344 88 l 349 88 q 371 35 349 57 q 425 14 393 14 q 433 14 425 14 q 440 14 440 14 l 440 0 l 339 0 l 344 88 m 344 746 l 339 833 l 440 833 l 440 819 q 433 819 440 819 q 425 819 425 819 q 371 799 393 819 q 349 746 349 778 l 344 746 z "},"q":{"ha":1065,"x_min":49,"x_max":1617,"o":"m 528 851 q 724 822 636 851 q 876 735 813 792 q 973 597 939 678 q 1007 415 1007 517 q 973 235 1007 315 q 876 99 939 156 q 724 12 813 42 q 528 -18 636 -18 q 331 12 419 -18 q 180 99 243 42 q 83 235 117 156 q 49 415 49 315 q 83 597 49 517 q 180 735 117 678 q 331 822 243 792 q 528 851 419 851 m 528 36 q 669 83 608 36 q 762 214 729 129 q 794 415 794 299 q 762 619 794 533 q 669 751 729 704 q 528 797 608 797 q 387 751 447 797 q 294 619 326 704 q 261 415 261 533 q 294 214 261 299 q 387 83 326 129 q 528 36 447 36 m 525 -17 l 483 33 q 619 20 560 28 q 729 1 679 13 q 829 -25 779 -10 q 936 -60 879 -40 q 1067 -110 993 -81 q 1226 -155 1149 -140 q 1372 -166 1303 -169 q 1502 -142 1442 -162 q 1610 -83 1563 -121 l 1617 -87 q 1582 -203 1614 -150 q 1492 -291 1550 -256 q 1356 -339 1435 -326 q 1183 -333 1278 -351 q 981 -260 1088 -315 q 855 -185 914 -225 q 742 -108 796 -144 q 635 -47 688 -71 q 525 -17 582 -22 z "},"r":{"ha":914,"x_min":57,"x_max":972,"o":"m 335 833 l 483 833 q 596 822 542 833 q 693 784 650 810 q 762 715 736 758 q 788 606 788 671 q 767 509 788 557 q 705 426 747 461 q 594 381 663 392 q 672 332 635 368 q 728 264 708 296 q 749 228 735 253 q 784 173 763 204 q 829 108 806 142 q 878 51 857 71 q 921 22 899 31 q 972 14 943 14 l 972 0 l 856 0 q 728 11 781 0 q 639 52 676 22 q 568 133 601 82 q 542 177 556 151 q 514 229 528 203 q 490 281 500 256 q 475 322 479 306 q 434 387 457 367 q 392 407 411 407 l 392 419 q 401 419 392 419 q 426 419 411 419 q 484 430 456 419 q 536 470 513 440 q 571 558 560 500 q 576 582 574 567 q 576 617 578 597 q 558 699 574 668 q 518 746 542 729 q 470 769 494 763 q 428 775 446 775 q 380 776 401 776 q 347 776 358 775 q 343 791 346 776 q 338 819 340 806 q 335 833 335 833 m 349 833 l 349 0 l 147 0 l 147 833 l 349 833 m 151 88 l 157 0 l 57 0 l 57 14 q 65 14 58 14 q 74 14 71 14 q 126 35 104 14 q 149 88 147 57 l 151 88 m 151 747 l 149 747 q 126 799 147 779 q 75 819 104 819 q 65 819 71 819 q 57 819 58 819 l 57 833 l 157 833 l 151 747 m 346 88 l 349 88 q 373 33 349 53 q 424 14 397 14 q 430 14 424 14 q 439 14 436 14 l 439 0 l 339 0 l 346 88 z "},"ŕ":{"ha":914,"x_min":57,"x_max":972,"o":"m 335 833 l 483 833 q 596 822 542 833 q 693 784 650 810 q 762 715 736 758 q 788 606 788 671 q 767 509 788 557 q 705 426 747 461 q 594 381 663 392 q 672 332 635 368 q 728 264 708 296 q 749 228 735 253 q 784 173 763 204 q 829 108 806 142 q 878 51 857 71 q 921 22 899 31 q 972 14 943 14 l 972 0 l 856 0 q 728 11 781 0 q 639 52 676 22 q 568 133 601 82 q 542 177 556 151 q 514 229 528 203 q 490 281 500 256 q 475 322 479 306 q 434 387 457 367 q 392 407 411 407 l 392 419 q 401 419 392 419 q 426 419 411 419 q 484 430 456 419 q 536 470 513 440 q 571 558 560 500 q 576 582 574 567 q 576 617 578 597 q 558 699 574 668 q 518 746 542 729 q 470 769 494 763 q 428 775 446 775 q 380 776 401 776 q 347 776 358 775 q 343 791 346 776 q 338 819 340 806 q 335 833 335 833 m 349 833 l 349 0 l 147 0 l 147 833 l 349 833 m 151 88 l 157 0 l 57 0 l 57 14 q 65 14 58 14 q 74 14 71 14 q 126 35 104 14 q 149 88 147 57 l 151 88 m 151 747 l 149 747 q 126 799 147 779 q 75 819 104 819 q 65 819 71 819 q 57 819 58 819 l 57 833 l 157 833 l 151 747 m 346 88 l 349 88 q 373 33 349 53 q 424 14 397 14 q 430 14 424 14 q 439 14 436 14 l 439 0 l 339 0 l 346 88 z "},"ř":{"ha":914,"x_min":57,"x_max":972,"o":"m 335 833 l 483 833 q 596 822 542 833 q 693 784 650 810 q 762 715 736 758 q 788 606 788 671 q 767 509 788 557 q 705 426 747 461 q 594 381 663 392 q 672 332 635 368 q 728 264 708 296 q 749 228 735 253 q 784 173 763 204 q 829 108 806 142 q 878 51 857 71 q 921 22 899 31 q 972 14 943 14 l 972 0 l 856 0 q 728 11 781 0 q 639 52 676 22 q 568 133 601 82 q 542 177 556 151 q 514 229 528 203 q 490 281 500 256 q 475 322 479 306 q 434 387 457 367 q 392 407 411 407 l 392 419 q 401 419 392 419 q 426 419 411 419 q 484 430 456 419 q 536 470 513 440 q 571 558 560 500 q 576 582 574 567 q 576 617 578 597 q 558 699 574 668 q 518 746 542 729 q 470 769 494 763 q 428 775 446 775 q 380 776 401 776 q 347 776 358 775 q 343 791 346 776 q 338 819 340 806 q 335 833 335 833 m 349 833 l 349 0 l 147 0 l 147 833 l 349 833 m 151 88 l 157 0 l 57 0 l 57 14 q 65 14 58 14 q 74 14 71 14 q 126 35 104 14 q 149 88 147 57 l 151 88 m 151 747 l 149 747 q 126 799 147 779 q 75 819 104 819 q 65 819 71 819 q 57 819 58 819 l 57 833 l 157 833 l 151 747 m 346 88 l 349 88 q 373 33 349 53 q 424 14 397 14 q 430 14 424 14 q 439 14 436 14 l 439 0 l 339 0 l 346 88 z "},"ŗ":{"ha":914,"x_min":57,"x_max":972,"o":"m 335 833 l 483 833 q 596 822 542 833 q 693 784 650 810 q 762 715 736 758 q 788 606 788 671 q 767 509 788 557 q 705 426 747 461 q 594 381 663 392 q 672 332 635 368 q 728 264 708 296 q 749 228 735 253 q 784 173 763 204 q 829 108 806 142 q 878 51 857 71 q 921 22 899 31 q 972 14 943 14 l 972 0 l 856 0 q 728 11 781 0 q 639 52 676 22 q 568 133 601 82 q 542 177 556 151 q 514 229 528 203 q 490 281 500 256 q 475 322 479 306 q 434 387 457 367 q 392 407 411 407 l 392 419 q 401 419 392 419 q 426 419 411 419 q 484 430 456 419 q 536 470 513 440 q 571 558 560 500 q 576 582 574 567 q 576 617 578 597 q 558 699 574 668 q 518 746 542 729 q 470 769 494 763 q 428 775 446 775 q 380 776 401 776 q 347 776 358 775 q 343 791 346 776 q 338 819 340 806 q 335 833 335 833 m 349 833 l 349 0 l 147 0 l 147 833 l 349 833 m 151 88 l 157 0 l 57 0 l 57 14 q 65 14 58 14 q 74 14 71 14 q 126 35 104 14 q 149 88 147 57 l 151 88 m 151 747 l 149 747 q 126 799 147 779 q 75 819 104 819 q 65 819 71 819 q 57 819 58 819 l 57 833 l 157 833 l 151 747 m 346 88 l 349 88 q 373 33 349 53 q 424 14 397 14 q 430 14 424 14 q 439 14 436 14 l 439 0 l 339 0 l 346 88 m 483 -157 q 503 -107 483 -125 q 551 -89 524 -89 q 616 -123 594 -89 q 638 -200 638 -157 q 595 -304 638 -264 q 488 -346 553 -344 l 483 -332 q 519 -307 506 -324 q 532 -269 532 -290 q 527 -242 532 -256 q 510 -217 522 -229 q 491 -189 499 -204 q 483 -157 483 -174 z "},"s":{"ha":715,"x_min":63,"x_max":660,"o":"m 331 851 q 398 849 358 851 q 476 842 438 846 q 545 834 515 839 q 586 825 575 829 l 568 656 l 556 656 q 511 757 556 719 q 383 794 467 794 q 276 765 317 794 q 232 688 235 736 q 241 642 229 663 q 274 607 253 622 q 322 576 296 592 l 540 442 q 628 361 596 414 q 656 233 660 308 q 610 99 651 156 q 498 12 569 42 q 329 -18 426 -18 q 218 -8 269 -18 q 130 18 167 1 q 74 56 93 35 q 64 123 63 83 q 76 202 65 163 q 104 268 88 242 l 115 268 q 138 153 111 206 q 217 69 164 100 q 344 38 271 38 q 465 75 425 38 q 506 164 506 113 q 481 230 506 200 q 401 289 457 260 l 204 414 q 103 510 135 450 q 81 640 72 569 q 120 754 88 707 q 207 826 153 801 q 331 851 261 851 m 586 839 l 585 814 l 436 814 l 436 839 l 586 839 z "},"ś":{"ha":715,"x_min":63,"x_max":660,"o":"m 331 851 q 398 849 358 851 q 476 842 438 846 q 545 834 515 839 q 586 825 575 829 l 568 656 l 556 656 q 511 757 556 719 q 383 794 467 794 q 276 765 317 794 q 232 688 235 736 q 241 642 229 663 q 274 607 253 622 q 322 576 296 592 l 540 442 q 628 361 596 414 q 656 233 660 308 q 610 99 651 156 q 498 12 569 42 q 329 -18 426 -18 q 218 -8 269 -18 q 130 18 167 1 q 74 56 93 35 q 64 123 63 83 q 76 202 65 163 q 104 268 88 242 l 115 268 q 138 153 111 206 q 217 69 164 100 q 344 38 271 38 q 465 75 425 38 q 506 164 506 113 q 481 230 506 200 q 401 289 457 260 l 204 414 q 103 510 135 450 q 81 640 72 569 q 120 754 88 707 q 207 826 153 801 q 331 851 261 851 m 586 839 l 585 814 l 436 814 l 436 839 l 586 839 z "},"š":{"ha":715,"x_min":63,"x_max":660,"o":"m 331 851 q 398 849 358 851 q 476 842 438 846 q 545 834 515 839 q 586 825 575 829 l 568 656 l 556 656 q 511 757 556 719 q 383 794 467 794 q 276 765 317 794 q 232 688 235 736 q 241 642 229 663 q 274 607 253 622 q 322 576 296 592 l 540 442 q 628 361 596 414 q 656 233 660 308 q 610 99 651 156 q 498 12 569 42 q 329 -18 426 -18 q 218 -8 269 -18 q 130 18 167 1 q 74 56 93 35 q 64 123 63 83 q 76 202 65 163 q 104 268 88 242 l 115 268 q 138 153 111 206 q 217 69 164 100 q 344 38 271 38 q 465 75 425 38 q 506 164 506 113 q 481 230 506 200 q 401 289 457 260 l 204 414 q 103 510 135 450 q 81 640 72 569 q 120 754 88 707 q 207 826 153 801 q 331 851 261 851 m 586 839 l 585 814 l 436 814 l 436 839 l 586 839 z "},"ş":{"ha":715,"x_min":63,"x_max":660,"o":"m 317 -12 l 383 -12 l 325 -81 q 370 -73 343 -74 q 424 -81 397 -72 q 467 -109 450 -89 q 482 -165 483 -129 q 444 -243 481 -211 q 353 -285 407 -275 q 247 -276 300 -294 l 247 -262 q 307 -253 276 -262 q 360 -222 338 -243 q 383 -164 382 -200 q 365 -120 386 -135 q 313 -104 343 -106 q 257 -114 282 -103 q 253 -107 257 -114 q 250 -100 250 -100 l 317 -12 m 331 851 q 398 849 358 851 q 476 842 438 846 q 545 834 515 839 q 586 825 575 829 l 568 656 l 556 656 q 511 757 556 719 q 383 794 467 794 q 275 765 317 794 q 232 688 233 736 q 241 642 229 663 q 274 607 253 622 q 321 576 294 592 l 542 442 q 628 361 596 414 q 656 233 660 308 q 610 99 651 156 q 497 12 569 42 q 328 -18 425 -18 q 218 -8 269 -18 q 130 18 167 1 q 72 56 93 35 q 64 123 63 83 q 76 202 65 163 q 104 268 88 242 l 114 268 q 138 153 111 206 q 217 69 164 100 q 344 38 271 38 q 465 75 425 38 q 504 164 504 113 q 481 230 504 200 q 401 289 457 260 l 204 414 q 103 510 135 450 q 81 640 72 569 q 119 754 88 707 q 206 826 151 801 q 331 851 260 851 m 588 839 l 585 814 l 438 814 l 438 839 l 588 839 z "},"ș":{"ha":715,"x_min":63,"x_max":660,"o":"m 331 851 q 398 849 358 851 q 476 842 438 846 q 545 834 515 839 q 586 825 575 829 l 568 656 l 556 656 q 511 757 556 719 q 383 794 467 794 q 276 765 317 794 q 232 688 235 736 q 241 642 229 663 q 274 607 253 622 q 322 576 296 592 l 540 442 q 628 361 596 414 q 656 233 660 308 q 610 99 651 156 q 498 12 569 42 q 329 -18 426 -18 q 218 -8 269 -18 q 130 18 167 1 q 74 56 93 35 q 64 123 63 83 q 76 202 65 163 q 104 268 88 242 l 115 268 q 138 153 111 206 q 217 69 164 100 q 344 38 271 38 q 465 75 425 38 q 506 164 506 113 q 481 230 506 200 q 401 289 457 260 l 204 414 q 103 510 135 450 q 81 640 72 569 q 120 754 88 707 q 207 826 153 801 q 331 851 261 851 m 586 839 l 585 814 l 436 814 l 436 839 l 586 839 m 289 -157 q 309 -107 289 -125 q 357 -89 329 -89 q 422 -123 400 -89 q 443 -200 443 -157 q 401 -304 443 -264 q 293 -346 358 -344 l 289 -332 q 324 -307 311 -324 q 338 -269 338 -290 q 333 -242 338 -256 q 315 -217 328 -229 q 297 -189 304 -204 q 289 -157 289 -174 z "},"ß":{"ha":1431,"x_min":63,"x_max":1375,"o":"m 331 851 q 398 849 358 851 q 476 842 438 846 q 545 834 515 839 q 586 825 575 829 l 568 656 l 556 656 q 511 757 556 719 q 383 794 467 794 q 276 765 317 794 q 232 688 235 736 q 241 642 229 663 q 274 607 253 622 q 322 576 296 592 l 540 442 q 628 361 596 414 q 656 233 660 308 q 610 99 651 156 q 498 12 569 42 q 329 -18 426 -18 q 218 -8 269 -18 q 130 18 167 1 q 74 56 93 35 q 64 123 63 83 q 76 202 65 163 q 104 268 88 242 l 115 268 q 138 153 111 206 q 217 69 164 100 q 344 38 271 38 q 465 75 425 38 q 506 164 506 113 q 481 230 506 200 q 401 289 457 260 l 204 414 q 103 510 135 450 q 81 640 72 569 q 120 754 88 707 q 207 826 153 801 q 331 851 261 851 m 586 839 l 585 814 l 436 814 l 436 839 l 586 839 m 1046 851 q 1113 849 1074 851 q 1192 842 1153 846 q 1260 834 1231 839 q 1301 825 1290 829 l 1283 656 l 1271 656 q 1226 757 1271 719 q 1099 794 1182 794 q 991 765 1032 794 q 947 688 950 736 q 956 642 944 663 q 990 607 968 622 q 1038 576 1011 592 l 1256 442 q 1343 361 1311 414 q 1371 233 1375 308 q 1326 99 1367 156 q 1213 12 1285 42 q 1044 -18 1142 -18 q 933 -8 985 -18 q 845 18 882 1 q 789 56 808 35 q 779 123 778 83 q 792 202 781 163 q 819 268 803 242 l 831 268 q 853 153 826 206 q 933 69 879 100 q 1060 38 986 38 q 1181 75 1140 38 q 1221 164 1221 113 q 1197 230 1221 200 q 1117 289 1172 260 l 919 414 q 819 510 850 450 q 796 640 788 569 q 835 754 803 707 q 922 826 868 801 q 1046 851 976 851 m 1301 839 l 1300 814 l 1151 814 l 1151 839 l 1301 839 z "},"t":{"ha":832,"x_min":14,"x_max":818,"o":"m 517 829 l 517 0 l 315 0 l 315 829 l 517 829 m 818 835 l 818 779 l 14 779 l 14 835 l 818 835 m 818 783 l 818 636 l 804 636 l 804 649 q 772 743 806 708 q 678 779 738 778 l 678 783 l 818 783 m 818 856 l 818 821 l 672 835 q 729 838 699 835 q 785 847 760 842 q 818 856 810 851 m 318 88 l 318 0 l 225 0 l 225 14 q 233 14 225 14 q 240 14 240 14 q 292 35 271 14 q 315 88 314 57 l 318 88 m 513 88 l 517 88 q 539 35 517 57 q 593 14 561 14 q 601 14 593 14 q 608 14 608 14 l 608 0 l 513 0 l 513 88 m 156 783 l 156 779 q 62 743 94 778 q 29 649 29 708 l 29 636 l 14 636 l 14 783 l 156 783 m 14 856 q 51 847 26 853 q 105 838 75 842 q 160 835 135 835 l 14 821 l 14 856 z "},"ŧ":{"ha":832,"x_min":14,"x_max":818,"o":"m 517 829 l 517 0 l 315 0 l 315 829 l 517 829 m 818 835 l 818 779 l 14 779 l 14 835 l 818 835 m 818 783 l 818 636 l 804 636 l 804 649 q 772 743 806 708 q 678 779 738 778 l 678 783 l 818 783 m 818 856 l 818 821 l 672 835 q 729 838 699 835 q 785 847 760 842 q 818 856 810 851 m 318 88 l 318 0 l 225 0 l 225 14 q 233 14 225 14 q 240 14 240 14 q 292 35 271 14 q 315 88 314 57 l 318 88 m 513 88 l 517 88 q 539 35 517 57 q 593 14 561 14 q 601 14 593 14 q 608 14 608 14 l 608 0 l 513 0 l 513 88 m 156 783 l 156 779 q 62 743 94 778 q 29 649 29 708 l 29 636 l 14 636 l 14 783 l 156 783 m 14 856 q 51 847 26 853 q 105 838 75 842 q 160 835 135 835 l 14 821 l 14 856 m 703 476 l 703 422 l 135 422 l 135 476 l 703 476 z "},"ť":{"ha":832,"x_min":14,"x_max":818,"o":"m 621 1142 l 611 1153 l 421 1063 l 217 1153 l 207 1142 l 413 929 l 428 929 l 621 1142 m 517 829 l 517 0 l 315 0 l 315 829 l 517 829 m 818 835 l 818 779 l 14 779 l 14 835 l 818 835 m 818 783 l 818 636 l 804 636 l 804 649 q 772 743 806 708 q 678 779 738 778 l 678 783 l 818 783 m 818 856 l 818 821 l 672 835 q 729 838 699 835 q 785 847 760 842 q 818 856 810 851 m 318 88 l 318 0 l 225 0 l 225 14 q 233 14 225 14 q 240 14 240 14 q 292 35 271 14 q 315 88 314 57 l 318 88 m 513 88 l 517 88 q 539 35 517 57 q 593 14 561 14 q 601 14 593 14 q 608 14 608 14 l 608 0 l 513 0 l 513 88 m 156 783 l 156 779 q 62 743 94 778 q 29 649 29 708 l 29 636 l 14 636 l 14 783 l 156 783 m 14 856 q 51 847 26 851 q 105 838 75 842 q 160 835 135 835 l 14 821 l 14 856 z "},"ţ":{"ha":832,"x_min":14,"x_max":818,"o":"m 517 829 l 517 0 l 315 0 l 315 829 l 517 829 m 818 835 l 818 779 l 14 779 l 14 835 l 818 835 m 818 783 l 818 636 l 804 636 l 804 649 q 772 743 806 708 q 678 779 738 778 l 678 783 l 818 783 m 818 856 l 818 821 l 672 835 q 729 838 699 835 q 785 847 760 842 q 818 856 810 851 m 318 88 l 318 0 l 225 0 l 225 14 q 233 14 225 14 q 240 14 240 14 q 292 35 271 14 q 315 88 314 57 l 318 88 m 513 88 l 517 88 q 539 35 517 57 q 593 14 561 14 q 601 14 593 14 q 608 14 608 14 l 608 0 l 513 0 l 513 88 m 156 783 l 156 779 q 62 743 94 778 q 29 649 29 708 l 29 636 l 14 636 l 14 783 l 156 783 m 14 856 q 51 847 26 853 q 105 838 75 842 q 160 835 135 835 l 14 821 l 14 856 z "},"ț":{"ha":832,"x_min":14,"x_max":818,"o":"m 517 829 l 517 0 l 315 0 l 315 829 l 517 829 m 818 835 l 818 779 l 14 779 l 14 835 l 818 835 m 818 783 l 818 636 l 804 636 l 804 649 q 772 743 806 708 q 678 779 738 778 l 678 783 l 818 783 m 818 856 l 818 821 l 672 835 q 729 838 699 835 q 785 847 760 842 q 818 856 810 851 m 318 88 l 318 0 l 225 0 l 225 14 q 233 14 225 14 q 240 14 240 14 q 292 35 271 14 q 315 88 314 57 l 318 88 m 513 88 l 517 88 q 539 35 517 57 q 593 14 561 14 q 601 14 593 14 q 608 14 608 14 l 608 0 l 513 0 l 513 88 m 156 783 l 156 779 q 62 743 94 778 q 29 649 29 708 l 29 636 l 14 636 l 14 783 l 156 783 m 14 856 q 51 847 26 853 q 105 838 75 842 q 160 835 135 835 l 14 821 l 14 856 m 346 -156 q 366 -106 346 -124 q 414 -87 386 -87 q 478 -122 457 -87 q 500 -199 500 -156 q 458 -303 500 -262 q 350 -344 415 -343 l 346 -331 q 381 -306 368 -322 q 394 -268 394 -289 q 390 -241 394 -254 q 372 -215 385 -228 q 353 -187 361 -203 q 346 -156 346 -172 z "},"u":{"ha":979,"x_min":38,"x_max":950,"o":"m 321 833 l 321 310 q 380 110 321 182 q 544 38 439 38 q 715 106 654 38 q 776 294 775 174 l 776 833 l 868 833 l 868 303 q 777 68 868 154 q 519 -18 686 -18 q 220 67 319 -18 q 121 301 121 153 l 121 833 l 321 833 m 124 833 l 124 761 l 121 761 q 101 804 119 788 q 57 821 83 821 q 47 821 57 821 q 38 821 38 821 l 38 833 l 124 833 m 403 833 l 403 821 q 393 821 403 821 q 383 821 383 821 q 339 804 357 821 q 321 761 321 788 l 318 761 l 318 833 l 403 833 m 779 833 l 779 761 l 776 761 q 757 804 775 788 q 714 821 739 821 q 704 821 714 821 q 694 821 694 821 l 694 833 l 779 833 m 950 833 l 950 821 q 941 821 950 821 q 932 821 932 821 q 887 804 906 821 q 868 761 868 788 l 865 761 l 865 833 l 950 833 z "},"ú":{"ha":979,"x_min":38,"x_max":950,"o":"m 321 833 l 321 310 q 380 110 321 182 q 544 38 439 38 q 715 106 654 38 q 776 294 775 174 l 776 833 l 868 833 l 868 303 q 777 68 868 154 q 519 -18 686 -18 q 220 67 319 -18 q 121 301 121 153 l 121 833 l 321 833 m 124 833 l 124 761 l 121 761 q 101 804 119 788 q 57 821 83 821 q 47 821 57 821 q 38 821 38 821 l 38 833 l 124 833 m 403 833 l 403 821 q 393 821 403 821 q 383 821 383 821 q 339 804 357 821 q 321 761 321 788 l 318 761 l 318 833 l 403 833 m 779 833 l 779 761 l 776 761 q 757 804 775 788 q 714 821 739 821 q 704 821 714 821 q 694 821 694 821 l 694 833 l 779 833 m 950 833 l 950 821 q 941 821 950 821 q 932 821 932 821 q 887 804 906 821 q 868 761 868 788 l 865 761 l 865 833 l 950 833 z "},"û":{"ha":979,"x_min":38,"x_max":950,"o":"m 321 833 l 321 310 q 380 110 321 182 q 544 38 439 38 q 715 106 654 38 q 776 294 775 174 l 776 833 l 868 833 l 868 303 q 777 68 868 154 q 519 -18 686 -18 q 220 67 319 -18 q 121 301 121 153 l 121 833 l 321 833 m 124 833 l 124 761 l 121 761 q 101 804 119 788 q 57 821 83 821 q 47 821 57 821 q 38 821 38 821 l 38 833 l 124 833 m 403 833 l 403 821 q 393 821 403 821 q 383 821 383 821 q 339 804 357 821 q 321 761 321 788 l 318 761 l 318 833 l 403 833 m 779 833 l 779 761 l 776 761 q 757 804 775 788 q 714 821 739 821 q 704 821 714 821 q 694 821 694 821 l 694 833 l 779 833 m 950 833 l 950 821 q 941 821 950 821 q 932 821 932 821 q 887 804 906 821 q 868 761 868 788 l 865 761 l 865 833 l 950 833 z "},"ü":{"ha":979,"x_min":38,"x_max":950,"o":"m 321 833 l 321 310 q 380 110 321 182 q 544 38 439 38 q 715 106 654 38 q 776 294 775 174 l 776 833 l 868 833 l 868 303 q 777 68 868 154 q 519 -18 686 -18 q 220 67 319 -18 q 121 301 121 153 l 121 833 l 321 833 m 124 833 l 124 761 l 121 761 q 101 804 119 788 q 57 821 83 821 q 47 821 57 821 q 38 821 38 821 l 38 833 l 124 833 m 403 833 l 403 821 q 393 821 403 821 q 383 821 383 821 q 339 804 357 821 q 321 761 321 788 l 318 761 l 318 833 l 403 833 m 779 833 l 779 761 l 776 761 q 757 804 775 788 q 714 821 739 821 q 704 821 714 821 q 694 821 694 821 l 694 833 l 779 833 m 950 833 l 950 821 q 941 821 950 821 q 932 821 932 821 q 887 804 906 821 q 868 761 868 788 l 865 761 l 865 833 l 950 833 z "},"ù":{"ha":979,"x_min":38,"x_max":950,"o":"m 321 833 l 321 310 q 380 110 321 182 q 544 38 439 38 q 715 106 654 38 q 776 294 775 174 l 776 833 l 868 833 l 868 303 q 777 68 868 154 q 519 -18 686 -18 q 220 67 319 -18 q 121 301 121 153 l 121 833 l 321 833 m 124 833 l 124 761 l 121 761 q 101 804 119 788 q 57 821 83 821 q 47 821 57 821 q 38 821 38 821 l 38 833 l 124 833 m 403 833 l 403 821 q 393 821 403 821 q 383 821 383 821 q 339 804 357 821 q 321 761 321 788 l 318 761 l 318 833 l 403 833 m 779 833 l 779 761 l 776 761 q 757 804 775 788 q 714 821 739 821 q 704 821 714 821 q 694 821 694 821 l 694 833 l 779 833 m 950 833 l 950 821 q 941 821 950 821 q 932 821 932 821 q 887 804 906 821 q 868 761 868 788 l 865 761 l 865 833 l 950 833 z "},"ű":{"ha":979,"x_min":38,"x_max":950,"o":"m 321 833 l 321 310 q 380 110 321 182 q 544 38 439 38 q 715 106 654 38 q 776 294 775 174 l 776 833 l 868 833 l 868 303 q 777 68 868 154 q 519 -18 686 -18 q 220 67 319 -18 q 121 301 121 153 l 121 833 l 321 833 m 124 833 l 124 761 l 121 761 q 101 804 119 788 q 57 821 83 821 q 47 821 57 821 q 38 821 38 821 l 38 833 l 124 833 m 403 833 l 403 821 q 393 821 403 821 q 383 821 383 821 q 339 804 357 821 q 321 761 321 788 l 318 761 l 318 833 l 403 833 m 779 833 l 779 761 l 776 761 q 757 804 775 788 q 714 821 739 821 q 704 821 714 821 q 694 821 694 821 l 694 833 l 779 833 m 950 833 l 950 821 q 941 821 950 821 q 932 821 932 821 q 887 804 906 821 q 868 761 868 788 l 865 761 l 865 833 l 950 833 z "},"ū":{"ha":979,"x_min":38,"x_max":950,"o":"m 321 833 l 321 310 q 380 110 321 182 q 544 38 439 38 q 715 106 654 38 q 776 294 775 174 l 776 833 l 868 833 l 868 303 q 777 68 868 154 q 519 -18 686 -18 q 220 67 319 -18 q 121 301 121 153 l 121 833 l 321 833 m 124 833 l 124 761 l 121 761 q 101 804 119 788 q 57 821 83 821 q 47 821 57 821 q 38 821 38 821 l 38 833 l 124 833 m 403 833 l 403 821 q 393 821 403 821 q 383 821 383 821 q 339 804 357 821 q 321 761 321 788 l 318 761 l 318 833 l 403 833 m 779 833 l 779 761 l 776 761 q 757 804 775 788 q 714 821 739 821 q 704 821 714 821 q 694 821 694 821 l 694 833 l 779 833 m 950 833 l 950 821 q 941 821 950 821 q 932 821 932 821 q 887 804 906 821 q 868 761 868 788 l 865 761 l 865 833 l 950 833 z "},"ų":{"ha":979,"x_min":38,"x_max":950,"o":"m 321 833 l 321 310 q 380 110 321 182 q 544 38 439 38 q 715 106 654 38 q 776 294 775 174 l 776 833 l 868 833 l 868 303 q 777 68 868 154 q 519 -18 686 -18 q 220 67 319 -18 q 121 301 121 153 l 121 833 l 321 833 m 124 833 l 124 761 l 121 761 q 101 804 119 788 q 57 821 83 821 q 47 821 57 821 q 38 821 38 821 l 38 833 l 124 833 m 403 833 l 403 821 q 393 821 403 821 q 383 821 383 821 q 339 804 357 821 q 321 761 321 788 l 318 761 l 318 833 l 403 833 m 779 833 l 779 761 l 776 761 q 757 804 775 788 q 714 821 739 821 q 704 821 714 821 q 694 821 694 821 l 694 833 l 779 833 m 950 833 l 950 821 q 941 821 950 821 q 932 821 932 821 q 887 804 906 821 q 868 761 868 788 l 865 761 l 865 833 l 950 833 z "},"ů":{"ha":979,"x_min":38,"x_max":950,"o":"m 321 833 l 321 310 q 380 110 321 182 q 544 38 439 38 q 715 106 654 38 q 776 294 775 174 l 776 833 l 868 833 l 868 303 q 777 68 868 154 q 519 -18 686 -18 q 220 67 319 -18 q 121 301 121 153 l 121 833 l 321 833 m 124 833 l 124 761 l 121 761 q 101 804 119 788 q 57 821 83 821 q 47 821 57 821 q 38 821 38 821 l 38 833 l 124 833 m 403 833 l 403 821 q 393 821 403 821 q 383 821 383 821 q 339 804 357 821 q 321 761 321 788 l 318 761 l 318 833 l 403 833 m 779 833 l 779 761 l 776 761 q 757 804 775 788 q 714 821 739 821 q 704 821 714 821 q 694 821 694 821 l 694 833 l 779 833 m 950 833 l 950 821 q 941 821 950 821 q 932 821 932 821 q 887 804 906 821 q 868 761 868 788 l 865 761 l 865 833 l 950 833 z "},"v":{"ha":885,"x_min":-37,"x_max":924,"o":"m 447 -18 l 39 826 l 275 826 l 528 238 l 447 -18 m 447 -18 l 442 144 l 743 829 l 844 829 l 524 151 q 511 123 521 144 q 490 74 501 101 q 470 22 479 47 q 460 -18 461 -3 l 447 -18 m 704 742 q 701 800 719 779 q 657 821 682 821 l 647 821 l 647 833 l 924 833 l 924 819 q 918 819 924 819 q 913 819 913 819 q 854 802 885 819 q 803 742 824 785 l 704 742 m 311 742 l 81 742 q 30 802 60 785 q -28 819 0 819 q -33 819 -28 819 q -37 819 -37 819 l -37 833 l 369 833 l 369 821 l 358 821 q 317 800 336 821 q 311 742 297 779 z "},"w":{"ha":1208,"x_min":-32,"x_max":1238,"o":"m 56 825 l 271 825 l 458 331 l 381 -15 l 56 825 m 676 853 l 701 725 l 425 125 q 417 104 425 125 q 401 51 410 83 q 393 -15 393 19 l 381 -15 l 343 139 l 665 853 l 676 853 m 676 853 l 949 304 l 883 -15 l 585 586 l 676 853 m 1146 825 l 918 125 q 912 103 918 125 q 900 48 906 81 q 896 -15 894 15 l 883 -15 l 846 110 l 1057 825 l 1146 825 m 1032 743 q 1027 801 1043 783 q 988 819 1011 819 l 976 819 l 976 833 l 1238 833 l 1238 819 q 1233 819 1238 819 q 1228 819 1228 819 q 1164 801 1196 819 q 1119 743 1132 782 l 1032 743 m 303 743 l 88 743 q 43 801 72 782 q -21 819 14 819 q -26 819 -21 819 q -32 819 -32 819 l -32 833 l 358 833 l 358 819 l 346 819 q 306 801 324 819 q 303 743 289 783 z "},"ẃ":{"ha":1208,"x_min":-32,"x_max":1238,"o":"m 56 825 l 271 825 l 458 331 l 381 -15 l 56 825 m 676 853 l 701 725 l 425 125 q 417 104 425 125 q 401 51 410 83 q 393 -15 393 19 l 381 -15 l 343 139 l 665 853 l 676 853 m 676 853 l 949 304 l 883 -15 l 585 586 l 676 853 m 1146 825 l 918 125 q 912 103 918 125 q 900 48 906 81 q 896 -15 894 15 l 883 -15 l 846 110 l 1057 825 l 1146 825 m 1032 743 q 1027 801 1043 783 q 988 819 1011 819 l 976 819 l 976 833 l 1238 833 l 1238 819 q 1233 819 1238 819 q 1228 819 1228 819 q 1164 801 1196 819 q 1119 743 1132 782 l 1032 743 m 303 743 l 88 743 q 43 801 72 782 q -21 819 14 819 q -26 819 -21 819 q -32 819 -32 819 l -32 833 l 358 833 l 358 819 l 346 819 q 306 801 324 819 q 303 743 289 783 z "},"ŵ":{"ha":1208,"x_min":-32,"x_max":1238,"o":"m 56 825 l 271 825 l 458 331 l 381 -15 l 56 825 m 676 853 l 701 725 l 425 125 q 417 104 425 125 q 401 51 410 83 q 393 -15 393 19 l 381 -15 l 343 139 l 665 853 l 676 853 m 676 853 l 949 304 l 883 -15 l 585 586 l 676 853 m 1146 825 l 918 125 q 912 103 918 125 q 900 48 906 81 q 896 -15 894 15 l 883 -15 l 846 110 l 1057 825 l 1146 825 m 1032 743 q 1027 801 1043 783 q 988 819 1011 819 l 976 819 l 976 833 l 1238 833 l 1238 819 q 1233 819 1238 819 q 1228 819 1228 819 q 1164 801 1196 819 q 1119 743 1132 782 l 1032 743 m 303 743 l 88 743 q 43 801 72 782 q -21 819 14 819 q -26 819 -21 819 q -32 819 -32 819 l -32 833 l 358 833 l 358 819 l 346 819 q 306 801 324 819 q 303 743 289 783 z "},"ẅ":{"ha":1208,"x_min":-32,"x_max":1238,"o":"m 56 825 l 271 825 l 458 331 l 381 -15 l 56 825 m 676 853 l 701 725 l 425 125 q 417 104 425 125 q 401 51 410 83 q 393 -15 393 19 l 381 -15 l 343 139 l 665 853 l 676 853 m 676 853 l 949 304 l 883 -15 l 585 586 l 676 853 m 1146 825 l 918 125 q 912 103 918 125 q 900 48 906 81 q 896 -15 894 15 l 883 -15 l 846 110 l 1057 825 l 1146 825 m 1032 743 q 1027 801 1043 783 q 988 819 1011 819 l 976 819 l 976 833 l 1238 833 l 1238 819 q 1233 819 1238 819 q 1228 819 1228 819 q 1164 801 1196 819 q 1119 743 1132 782 l 1032 743 m 303 743 l 88 743 q 43 801 72 782 q -21 819 14 819 q -26 819 -21 819 q -32 819 -32 819 l -32 833 l 358 833 l 358 819 l 346 819 q 306 801 324 819 q 303 743 289 783 z "},"ẁ":{"ha":1208,"x_min":-32,"x_max":1238,"o":"m 56 825 l 271 825 l 458 331 l 381 -15 l 56 825 m 676 853 l 701 725 l 425 125 q 417 104 425 125 q 401 51 410 83 q 393 -15 393 19 l 381 -15 l 343 139 l 665 853 l 676 853 m 676 853 l 949 304 l 883 -15 l 585 586 l 676 853 m 1146 825 l 918 125 q 912 103 918 125 q 900 48 906 81 q 896 -15 894 15 l 883 -15 l 846 110 l 1057 825 l 1146 825 m 1032 743 q 1027 801 1043 783 q 988 819 1011 819 l 976 819 l 976 833 l 1238 833 l 1238 819 q 1233 819 1238 819 q 1228 819 1228 819 q 1164 801 1196 819 q 1119 743 1132 782 l 1032 743 m 303 743 l 88 743 q 43 801 72 782 q -21 819 14 819 q -26 819 -21 819 q -32 819 -32 819 l -32 833 l 358 833 l 358 819 l 346 819 q 306 801 324 819 q 303 743 289 783 z "},"x":{"ha":903,"x_min":-26,"x_max":931,"o":"m 306 833 l 843 1 l 611 1 l 76 833 l 306 833 m 222 86 q 222 37 204 60 q 264 14 239 14 q 272 14 264 14 q 279 14 279 14 l 279 0 l -26 0 l -26 14 l -8 14 q 60 34 29 14 q 114 82 92 54 l 222 86 m 376 425 l 435 376 l 161 1 l 56 4 l 376 425 m 557 85 l 790 81 q 842 34 810 54 q 914 14 875 14 l 931 14 l 931 0 l 500 0 l 500 14 q 508 14 500 14 q 515 14 515 14 q 557 37 540 14 q 557 85 574 60 m 417 835 l 417 821 q 409 821 417 821 q 401 821 401 821 q 361 797 378 821 q 360 750 344 774 l 129 754 q 77 801 110 781 q 6 821 44 821 l -11 821 l -11 835 l 417 835 m 815 833 l 522 404 l 476 476 l 708 833 l 815 833 m 901 835 l 901 821 l 883 821 q 813 801 846 821 q 761 754 781 782 l 654 750 q 653 797 669 774 q 613 821 638 821 q 605 821 613 821 q 597 821 597 821 l 597 835 l 901 835 z "},"y":{"ha":883,"x_min":-43,"x_max":929,"o":"m 272 832 l 533 381 l 349 360 l 44 832 l 272 832 m 542 378 l 542 0 l 342 0 l 342 375 l 542 378 m 739 832 l 840 832 l 528 350 l 463 363 l 739 832 m 689 747 q 689 797 704 774 q 647 819 674 819 q 639 819 647 819 q 631 819 631 819 l 631 833 l 929 833 l 929 819 l 911 819 q 841 799 874 819 q 789 751 808 779 l 689 747 m 321 747 l 96 751 q 44 800 76 781 q -26 819 13 819 l -43 819 l -43 833 l 379 833 l 379 819 q 372 819 379 819 q 364 819 364 819 q 322 796 336 819 q 321 747 307 772 m 346 88 l 346 0 l 247 0 l 247 14 q 256 14 249 14 q 264 14 264 14 q 318 35 296 14 q 342 88 340 57 l 346 88 m 539 88 l 542 88 q 566 35 543 57 q 619 14 589 14 q 628 14 619 14 q 636 14 636 14 l 636 0 l 539 0 l 539 88 z "},"ý":{"ha":883,"x_min":-43,"x_max":929,"o":"m 272 832 l 533 381 l 349 360 l 44 832 l 272 832 m 542 378 l 542 0 l 342 0 l 342 375 l 542 378 m 739 832 l 840 832 l 528 350 l 463 363 l 739 832 m 689 747 q 689 797 704 774 q 647 819 674 819 q 639 819 647 819 q 631 819 631 819 l 631 833 l 929 833 l 929 819 l 911 819 q 841 799 874 819 q 789 751 808 779 l 689 747 m 321 747 l 96 751 q 44 800 76 781 q -26 819 13 819 l -43 819 l -43 833 l 379 833 l 379 819 q 372 819 379 819 q 364 819 364 819 q 322 796 336 819 q 321 747 307 772 m 346 88 l 346 0 l 247 0 l 247 14 q 256 14 249 14 q 264 14 264 14 q 318 35 296 14 q 342 88 340 57 l 346 88 m 539 88 l 542 88 q 566 35 543 57 q 619 14 589 14 q 628 14 619 14 q 636 14 636 14 l 636 0 l 539 0 l 539 88 z "},"ŷ":{"ha":883,"x_min":-43,"x_max":929,"o":"m 272 832 l 533 381 l 349 360 l 44 832 l 272 832 m 542 378 l 542 0 l 342 0 l 342 375 l 542 378 m 739 832 l 840 832 l 528 350 l 463 363 l 739 832 m 689 747 q 689 797 704 774 q 647 819 674 819 q 639 819 647 819 q 631 819 631 819 l 631 833 l 929 833 l 929 819 l 911 819 q 841 799 874 819 q 789 751 808 779 l 689 747 m 321 747 l 96 751 q 44 800 76 781 q -26 819 13 819 l -43 819 l -43 833 l 379 833 l 379 819 q 372 819 379 819 q 364 819 364 819 q 322 796 336 819 q 321 747 307 772 m 346 88 l 346 0 l 247 0 l 247 14 q 256 14 249 14 q 264 14 264 14 q 318 35 296 14 q 342 88 340 57 l 346 88 m 539 88 l 542 88 q 566 35 543 57 q 619 14 589 14 q 628 14 619 14 q 636 14 636 14 l 636 0 l 539 0 l 539 88 z "},"ÿ":{"ha":883,"x_min":-43,"x_max":929,"o":"m 272 832 l 533 381 l 349 360 l 44 832 l 272 832 m 542 378 l 542 0 l 342 0 l 342 375 l 542 378 m 739 832 l 840 832 l 528 350 l 463 363 l 739 832 m 689 747 q 689 797 704 774 q 647 819 674 819 q 639 819 647 819 q 631 819 631 819 l 631 833 l 929 833 l 929 819 l 911 819 q 841 799 874 819 q 789 751 808 779 l 689 747 m 321 747 l 96 751 q 44 800 76 781 q -26 819 13 819 l -43 819 l -43 833 l 379 833 l 379 819 q 372 819 379 819 q 364 819 364 819 q 322 796 336 819 q 321 747 307 772 m 346 88 l 346 0 l 247 0 l 247 14 q 256 14 249 14 q 264 14 264 14 q 318 35 296 14 q 342 88 340 57 l 346 88 m 539 88 l 542 88 q 566 35 543 57 q 619 14 589 14 q 628 14 619 14 q 636 14 636 14 l 636 0 l 539 0 l 539 88 z "},"ỳ":{"ha":883,"x_min":-43,"x_max":929,"o":"m 272 832 l 533 381 l 349 360 l 44 832 l 272 832 m 542 378 l 542 0 l 342 0 l 342 375 l 542 378 m 739 832 l 840 832 l 528 350 l 463 363 l 739 832 m 689 747 q 689 797 704 774 q 647 819 674 819 q 639 819 647 819 q 631 819 631 819 l 631 833 l 929 833 l 929 819 l 911 819 q 841 799 874 819 q 789 751 808 779 l 689 747 m 321 747 l 96 751 q 44 800 76 781 q -26 819 13 819 l -43 819 l -43 833 l 379 833 l 379 819 q 372 819 379 819 q 364 819 364 819 q 322 796 336 819 q 321 747 307 772 m 346 88 l 346 0 l 247 0 l 247 14 q 256 14 249 14 q 264 14 264 14 q 318 35 296 14 q 342 88 340 57 l 346 88 m 539 88 l 542 88 q 566 35 543 57 q 619 14 589 14 q 628 14 619 14 q 636 14 636 14 l 636 0 l 539 0 l 539 88 z "},"z":{"ha":843,"x_min":49,"x_max":822,"o":"m 771 851 q 771 846 771 851 q 771 840 771 840 l 288 0 l 49 0 l 49 11 l 506 779 l 68 779 l 68 835 l 629 835 q 685 837 656 835 q 739 843 715 839 q 771 851 763 847 m 757 54 l 747 0 l 140 0 l 140 54 l 757 54 m 822 256 l 763 0 l 511 0 l 558 54 q 672 78 624 54 q 755 148 721 103 q 808 256 789 193 l 822 256 m 68 783 l 210 783 l 210 779 q 116 744 150 779 q 82 647 82 708 l 82 636 l 68 636 l 68 783 m 68 856 q 105 847 79 851 q 162 838 131 842 q 219 835 193 835 l 68 821 l 68 856 z "},"ź":{"ha":843,"x_min":49,"x_max":822,"o":"m 771 851 q 771 846 771 851 q 771 840 771 840 l 288 0 l 49 0 l 49 11 l 506 779 l 68 779 l 68 835 l 629 835 q 685 837 656 835 q 739 843 715 839 q 771 851 763 847 m 757 54 l 747 0 l 140 0 l 140 54 l 757 54 m 822 256 l 763 0 l 511 0 l 558 54 q 672 78 624 54 q 755 148 721 103 q 808 256 789 193 l 822 256 m 68 783 l 210 783 l 210 779 q 116 744 150 779 q 82 647 82 708 l 82 636 l 68 636 l 68 783 m 68 856 q 105 847 79 851 q 162 838 131 842 q 219 835 193 835 l 68 821 l 68 856 z "},"ž":{"ha":843,"x_min":49,"x_max":822,"o":"m 771 851 q 771 846 771 851 q 771 840 771 840 l 288 0 l 49 0 l 49 11 l 506 779 l 68 779 l 68 835 l 629 835 q 685 837 656 835 q 739 843 715 839 q 771 851 763 847 m 757 54 l 747 0 l 140 0 l 140 54 l 757 54 m 822 256 l 763 0 l 511 0 l 558 54 q 672 78 624 54 q 755 148 721 103 q 808 256 789 193 l 822 256 m 68 783 l 210 783 l 210 779 q 116 744 150 779 q 82 647 82 708 l 82 636 l 68 636 l 68 783 m 68 856 q 105 847 79 851 q 162 838 131 842 q 219 835 193 835 l 68 821 l 68 856 z "},"ż":{"ha":843,"x_min":49,"x_max":822,"o":"m 771 851 q 771 846 771 851 q 771 840 771 840 l 288 0 l 49 0 l 49 11 l 506 779 l 68 779 l 68 835 l 629 835 q 685 837 656 835 q 739 843 715 839 q 771 851 763 847 m 757 54 l 747 0 l 140 0 l 140 54 l 757 54 m 822 256 l 763 0 l 511 0 l 558 54 q 672 78 624 54 q 755 148 721 103 q 808 256 789 193 l 822 256 m 68 783 l 210 783 l 210 779 q 116 744 150 779 q 82 647 82 708 l 82 636 l 68 636 l 68 783 m 68 856 q 105 847 79 851 q 162 838 131 842 q 219 835 193 835 l 68 821 l 68 856 z "},"ﬁ":{"ha":1232,"x_min":47,"x_max":1185,"o":"m 340 833 l 340 0 l 140 0 l 140 833 l 340 833 m 619 440 l 619 385 l 338 385 l 338 440 l 619 440 m 683 833 l 683 778 l 338 778 l 338 833 l 683 833 m 619 388 l 619 265 l 606 265 l 606 276 q 577 353 606 322 q 499 385 549 385 l 499 388 l 619 388 m 619 560 l 619 438 l 499 438 l 499 440 q 577 473 549 442 q 606 550 606 504 l 606 560 l 619 560 m 683 782 l 683 632 l 668 632 l 668 646 q 635 741 668 706 q 540 778 601 776 l 540 782 l 683 782 m 683 854 l 683 821 l 536 833 q 592 837 563 833 q 647 845 622 840 q 683 854 672 850 m 144 88 l 150 0 l 47 0 l 47 14 q 56 14 47 14 q 65 14 64 14 q 118 35 96 14 q 140 88 140 57 l 144 88 m 144 746 l 140 746 q 118 799 140 778 q 65 819 96 819 q 56 819 64 819 q 47 819 47 819 l 47 833 l 150 833 l 144 746 m 338 88 l 340 88 q 363 35 342 57 q 417 14 385 14 q 425 14 417 14 q 435 14 433 14 l 433 0 l 332 0 l 338 88 m 1088 833 l 1088 0 l 888 0 l 888 833 l 1088 833 m 892 88 l 892 0 l 790 0 l 790 14 q 799 14 790 14 q 808 14 807 14 q 864 35 840 14 q 888 88 888 57 l 892 88 m 1085 88 l 1088 88 q 1112 35 1089 57 q 1168 14 1135 14 q 1176 14 1168 14 q 1185 14 1183 14 l 1185 0 l 1085 0 l 1085 88 m 1085 746 l 1085 833 l 1185 833 l 1183 819 q 1176 819 1183 819 q 1168 819 1169 819 q 1112 799 1135 819 q 1088 746 1089 778 l 1085 746 m 892 746 l 888 746 q 864 799 888 778 q 807 819 840 819 q 799 819 807 819 q 790 819 790 819 l 790 833 l 892 833 l 892 746 z "},"ﬂ":{"ha":1504,"x_min":47,"x_max":1497,"o":"m 340 833 l 340 0 l 140 0 l 140 833 l 340 833 m 619 440 l 619 385 l 338 385 l 338 440 l 619 440 m 683 833 l 683 778 l 338 778 l 338 833 l 683 833 m 619 388 l 619 265 l 606 265 l 606 276 q 577 353 606 322 q 499 385 549 385 l 499 388 l 619 388 m 619 560 l 619 438 l 499 438 l 499 440 q 577 473 549 442 q 606 550 606 504 l 606 560 l 619 560 m 683 782 l 683 632 l 668 632 l 668 646 q 635 741 668 706 q 540 778 601 776 l 540 782 l 683 782 m 683 854 l 683 821 l 536 833 q 592 837 563 833 q 647 845 622 840 q 683 854 672 850 m 144 88 l 150 0 l 47 0 l 47 14 q 56 14 47 14 q 65 14 64 14 q 118 35 96 14 q 140 88 140 57 l 144 88 m 144 746 l 140 746 q 118 799 140 778 q 65 819 96 819 q 56 819 64 819 q 47 819 47 819 l 47 833 l 150 833 l 144 746 m 338 88 l 340 88 q 363 35 342 57 q 417 14 385 14 q 425 14 417 14 q 435 14 433 14 l 433 0 l 332 0 l 338 88 m 1083 833 l 1083 0 l 883 0 l 883 833 l 1083 833 m 1407 56 l 1440 0 l 1081 0 l 1081 56 l 1407 56 m 1499 256 l 1444 0 l 1204 0 l 1247 56 q 1353 80 1307 56 q 1433 149 1400 104 q 1485 256 1467 194 l 1499 256 m 888 88 l 893 0 l 790 0 l 790 14 q 799 14 790 14 q 808 14 807 14 q 861 35 839 14 q 883 88 883 57 l 888 88 m 1081 746 l 1081 833 l 1176 833 l 1176 819 q 1167 819 1175 819 q 1160 819 1160 819 q 1107 799 1129 819 q 1083 746 1085 778 l 1081 746 m 888 746 l 883 746 q 860 799 883 778 q 807 819 838 819 q 798 819 806 819 q 790 819 790 819 l 790 833 l 888 833 l 888 746 z "},"Δ":{"ha":906,"x_min":7,"x_max":899,"o":"m 460 992 l 899 14 l 899 0 l 7 0 l 7 14 l 446 992 l 460 992 m 413 782 l 93 58 l 725 58 l 413 782 z "},"Ω":{"ha":1182,"x_min":46,"x_max":1136,"o":"m 1053 0 l 660 0 l 643 183 q 745 240 697 206 q 831 323 793 275 q 890 433 868 371 q 913 572 911 496 q 890 715 914 649 q 823 830 867 781 q 721 906 779 879 q 594 933 663 933 q 467 906 525 933 q 364 828 408 878 q 294 713 319 779 q 269 569 269 646 q 306 393 269 469 q 401 265 342 317 q 535 183 461 213 l 518 0 l 126 0 l 126 178 l 450 178 q 286 227 360 190 q 162 318 213 264 q 83 437 111 372 q 54 572 56 501 q 94 739 54 663 q 207 872 133 815 q 379 960 281 929 q 594 992 478 992 q 806 960 708 992 q 975 871 903 928 q 1088 738 1047 814 q 1128 572 1128 661 q 1098 435 1128 501 q 1015 315 1068 369 q 888 225 961 261 q 728 178 815 189 l 1053 178 l 1053 0 m 60 296 q 106 226 85 251 q 154 189 126 200 q 222 178 182 178 l 238 178 l 238 0 l 113 0 l 46 296 l 60 296 m 1136 296 l 1069 0 l 944 0 l 944 178 l 958 178 q 1027 189 1000 178 q 1076 226 1054 200 q 1122 296 1097 251 l 1136 296 z "},"μ":{"ha":1199,"x_min":-11,"x_max":1211,"o":"m 979 851 l 990 708 l 617 115 q 604 92 617 115 q 580 38 592 69 q 567 -26 568 6 l 554 -26 l 500 88 l 979 851 m 125 89 l 125 0 l -11 0 l -11 14 q -2 14 -11 14 q 7 14 7 14 q 67 33 42 14 q 99 89 93 53 l 125 89 m 186 69 q 195 34 185 54 q 233 14 206 14 l 253 14 l 253 0 l 169 0 l 178 69 l 186 69 m 207 851 l 218 851 l 265 718 l 178 0 l 88 0 l 207 851 m 218 851 l 629 236 l 554 -26 l 185 533 l 218 851 m 992 851 l 1114 0 l 901 0 l 833 507 l 979 851 l 992 851 m 1075 89 l 1101 89 q 1134 33 1108 53 q 1192 14 1160 14 q 1201 14 1192 14 q 1211 14 1211 14 l 1211 0 l 1075 0 l 1075 89 m 892 69 l 900 69 l 908 0 l 825 0 l 825 14 l 844 14 q 885 34 875 14 q 892 69 894 54 z "},"π":{"ha":1044,"x_min":51,"x_max":994,"o":"m 350 833 l 350 0 l 143 0 l 143 833 l 350 833 m 147 89 l 147 0 l 51 0 l 51 14 q 59 14 51 14 q 67 14 67 14 q 121 36 99 14 q 143 89 143 58 l 147 89 m 347 89 l 350 89 q 374 36 351 58 q 428 14 396 14 q 435 14 428 14 q 442 14 442 14 l 443 0 l 347 0 l 347 89 m 147 744 l 143 744 q 121 798 143 776 q 67 819 99 819 q 59 819 67 819 q 51 819 51 819 l 51 833 l 147 833 l 147 744 m 903 833 l 903 0 l 696 0 l 696 833 l 903 833 m 699 89 l 699 0 l 603 0 l 604 14 q 611 14 604 14 q 618 14 618 14 q 672 36 650 14 q 696 89 694 58 l 699 89 m 899 89 l 903 89 q 926 36 903 58 q 979 14 949 14 q 987 14 979 14 q 994 14 994 14 l 994 0 l 899 0 l 899 89 m 899 744 l 899 833 l 994 833 l 994 819 q 987 819 994 819 q 979 819 979 819 q 926 798 949 819 q 903 744 903 776 l 899 744 m 728 775 l 699 775 l 699 700 l 696 700 q 673 753 694 731 q 621 775 651 775 l 425 775 q 373 753 394 775 q 350 700 351 731 l 347 700 l 347 775 l 314 775 l 314 833 l 728 833 l 728 775 z "},"⁄":{"ha":801,"x_min":28,"x_max":744,"o":"m 28 10 l 82 -25 l 744 963 l 692 999 l 28 10 z "},"½":{"ha":1156,"x_min":50,"x_max":1100,"o":"m 329 428 l 329 436 l 311 436 q 280 449 293 436 q 267 481 267 461 l 267 993 l 258 993 q 209 969 238 979 q 150 953 181 960 q 93 944 119 947 q 50 939 67 940 l 50 932 l 67 932 q 105 920 92 932 q 118 878 118 908 l 118 481 q 105 449 118 463 q 74 436 92 436 l 56 436 l 56 428 l 329 428 m 136 10 l 190 -25 l 853 963 l 800 999 l 136 10 m 685 368 l 638 506 q 726 552 671 536 q 836 568 781 568 q 951 549 900 568 q 1032 493 1001 529 q 1063 407 1063 457 q 1038 314 1063 357 q 976 235 1013 271 q 901 174 940 200 q 831 129 861 147 l 985 129 q 1047 149 1021 129 q 1093 213 1072 169 l 1101 213 l 1050 0 l 639 0 l 639 8 q 727 110 681 58 q 813 215 774 163 q 878 319 853 267 q 904 421 904 371 q 875 501 904 472 q 797 528 846 531 q 722 483 750 524 q 693 368 693 443 l 685 368 z "},"¼":{"ha":1035,"x_min":47,"x_max":997,"o":"m 326 428 l 326 436 l 308 436 q 277 449 290 436 q 264 481 264 461 l 264 993 l 256 993 q 206 969 235 979 q 147 953 178 960 q 90 944 117 947 q 47 939 64 940 l 47 932 l 64 932 q 102 920 89 932 q 115 878 115 908 l 115 481 q 102 449 115 463 q 71 436 89 436 l 53 436 l 53 428 l 326 428 m 153 10 l 207 -25 l 869 963 l 817 999 l 153 10 m 751 410 l 889 567 l 897 567 l 897 1 l 751 1 l 751 410 m 888 567 l 896 508 l 617 229 l 935 229 q 970 237 960 229 q 989 258 981 244 l 997 258 l 972 149 l 489 149 l 489 158 l 888 567 m 897 57 q 911 23 897 38 q 944 8 925 8 l 954 8 l 954 0 l 693 0 l 693 8 l 703 8 q 738 22 724 8 q 751 57 751 36 l 897 57 z "},"¾":{"ha":1092,"x_min":39,"x_max":1065,"o":"m 221 990 q 363 956 310 990 q 415 860 415 921 q 391 791 415 818 q 333 753 367 764 q 267 751 299 743 q 341 740 301 753 q 409 694 381 726 q 438 607 438 663 q 401 490 438 538 q 305 420 364 443 q 176 399 246 397 q 39 428 107 401 l 40 436 q 163 454 107 435 q 251 515 218 474 q 285 614 285 556 q 263 688 285 661 q 206 726 240 714 q 133 739 172 739 l 135 746 q 232 783 192 746 q 268 875 272 821 q 236 936 264 918 q 174 951 208 954 q 106 916 128 949 q 86 811 85 883 l 78 811 l 39 939 q 114 977 67 963 q 221 990 161 992 m 232 10 l 286 -25 l 949 963 l 896 999 l 232 10 m 819 410 l 957 567 l 965 567 l 965 1 l 819 1 l 819 410 m 956 567 l 964 508 l 685 229 l 1003 229 q 1038 237 1028 229 q 1057 258 1049 244 l 1065 258 l 1040 149 l 557 149 l 557 158 l 956 567 m 965 57 q 979 23 965 38 q 1013 8 993 8 l 1022 8 l 1022 0 l 761 0 l 761 8 l 771 8 q 806 22 792 8 q 819 57 819 36 l 965 57 z "},"¹":{"ha":361,"x_min":47,"x_max":326,"o":"m 326 428 l 326 436 l 308 436 q 277 449 290 436 q 264 481 264 461 l 264 993 l 256 993 q 206 969 235 979 q 147 953 178 960 q 90 944 117 947 q 47 939 64 940 l 47 932 l 64 932 q 102 920 89 932 q 115 878 115 908 l 115 481 q 102 449 115 463 q 71 436 89 436 l 53 436 l 53 428 l 326 428 z "},"²":{"ha":558,"x_min":47,"x_max":511,"o":"m 94 796 l 47 933 q 135 980 81 964 q 246 996 190 996 q 360 976 310 996 q 442 921 411 957 q 472 835 472 885 q 447 742 472 785 q 386 663 422 699 q 310 601 350 628 q 240 557 271 575 l 394 557 q 456 577 431 557 q 503 640 482 597 l 511 640 l 460 428 l 49 428 l 49 436 q 137 538 90 486 q 223 642 183 590 q 288 747 263 694 q 314 849 314 799 q 285 929 314 900 q 207 956 256 958 q 131 911 160 951 q 103 796 103 871 l 94 796 z "},"³":{"ha":483,"x_min":39,"x_max":438,"o":"m 221 990 q 363 956 310 990 q 415 860 415 921 q 391 791 415 818 q 333 753 367 764 q 267 751 299 743 q 341 740 301 753 q 409 694 381 726 q 438 607 438 663 q 401 490 438 538 q 305 420 364 443 q 176 399 246 397 q 39 428 107 401 l 40 436 q 163 454 107 435 q 251 515 218 474 q 285 614 285 556 q 263 688 285 661 q 206 726 240 714 q 133 739 172 739 l 135 746 q 232 783 192 746 q 268 875 272 821 q 236 936 264 918 q 174 951 208 954 q 106 916 128 949 q 86 811 85 883 l 78 811 l 39 939 q 114 977 67 963 q 221 990 161 992 z "},"ª":{"ha":529,"x_min":-4,"x_max":533,"o":"m 261 989 l 492 528 l 346 528 l 213 835 l 261 989 m 121 574 q 122 542 111 553 q 147 531 133 531 l 153 531 l 153 524 l -4 524 l -4 531 q -1 531 -4 531 q 1 531 1 531 q 35 541 18 531 q 63 574 51 551 l 121 574 m 261 989 l 263 882 l 99 525 l 39 525 l 218 893 q 229 918 221 900 q 246 957 238 936 q 254 989 254 978 l 261 989 m 325 671 l 325 635 l 129 635 l 129 671 l 325 671 m 326 574 l 468 574 q 497 541 481 551 q 528 531 513 531 q 531 531 528 531 q 533 531 533 531 l 533 524 l 294 524 l 294 531 l 301 531 q 325 542 314 531 q 326 574 336 553 z "},"º":{"ha":563,"x_min":33,"x_max":529,"o":"m 281 989 q 413 960 357 989 q 499 878 468 931 q 529 754 529 825 q 499 630 529 683 q 413 548 468 576 q 281 519 357 519 q 150 548 206 519 q 64 630 94 576 q 33 754 33 683 q 64 878 33 825 q 150 960 94 931 q 281 989 206 989 m 281 553 q 367 608 338 553 q 397 754 397 663 q 367 901 397 846 q 281 956 338 956 q 218 931 244 956 q 178 860 192 906 q 164 754 164 815 q 178 647 164 692 q 218 578 192 603 q 281 553 244 553 z "},"*":{"ha":539,"x_min":51,"x_max":490,"o":"m 406 658 l 344 638 l 285 747 l 271 833 l 279 840 l 357 800 l 446 711 l 406 658 m 136 657 l 97 710 l 183 800 l 261 840 l 271 833 l 256 747 l 199 638 l 136 657 m 51 914 l 90 968 l 201 913 l 265 851 l 261 840 l 174 828 l 51 849 l 51 914 m 271 1074 l 333 1054 l 315 931 l 276 851 l 265 851 l 226 931 l 207 1054 l 271 1074 m 489 915 l 490 849 l 367 828 l 279 840 l 276 851 l 339 913 l 451 969 l 489 915 m 275 853 l 279 850 l 281 842 l 279 839 l 272 833 q 269 833 271 833 q 268 833 268 833 l 261 839 l 261 843 l 263 851 l 267 853 l 275 853 z "},"\\":{"ha":592,"x_min":13,"x_max":581,"o":"m 79 999 l 581 14 l 514 -19 l 13 968 l 79 999 z "},"•":{"ha":511,"x_min":76,"x_max":432,"o":"m 281 292 q 232 292 256 283 q 170 315 193 304 q 133 339 147 325 q 109 376 119 353 q 85 438 99 400 q 85 486 76 461 q 109 549 99 525 q 133 585 119 572 q 170 610 147 599 q 232 633 193 621 q 281 633 256 643 q 342 610 319 621 q 379 585 365 599 q 403 549 393 572 q 426 486 414 525 q 431 462 432 474 q 426 435 431 450 q 403 374 414 397 q 379 338 393 351 q 342 314 365 324 q 281 292 319 304 z "},":":{"ha":308,"x_min":54,"x_max":256,"o":"m 154 518 q 83 547 113 518 q 54 618 54 576 q 83 690 54 661 q 154 719 113 719 q 226 690 197 719 q 256 618 256 661 q 226 547 256 576 q 154 518 197 518 m 154 -14 q 83 15 113 -14 q 54 86 54 44 q 83 158 54 129 q 154 188 113 188 q 226 158 197 188 q 256 86 256 129 q 226 15 256 44 q 154 -14 197 -14 z "},",":{"ha":321,"x_min":58,"x_max":272,"o":"m 88 161 q 142 185 111 183 q 204 172 174 188 q 249 121 235 156 q 266 16 272 68 q 231 -78 260 -36 q 158 -142 201 -119 q 64 -157 115 -164 l 60 -142 q 107 -105 90 -129 q 122 -49 124 -81 q 92 14 119 -17 q 66 63 74 36 q 63 116 58 89 q 88 161 68 143 z "},"…":{"ha":935,"x_min":54,"x_max":881,"o":"m 469 -14 q 399 15 428 -14 q 369 86 369 44 q 399 158 369 129 q 469 188 428 188 q 542 158 513 188 q 571 86 571 129 q 542 15 571 44 q 469 -14 513 -14 m 781 -14 q 710 15 739 -14 q 681 86 681 44 q 710 158 681 129 q 781 188 739 188 q 853 158 824 188 q 882 86 882 129 q 853 15 882 44 q 781 -14 824 -14 m 154 -14 q 83 15 113 -14 q 54 86 54 44 q 83 158 54 129 q 154 188 113 188 q 226 158 197 188 q 256 86 256 129 q 226 15 256 44 q 154 -14 197 -14 z "},"!":{"ha":374,"x_min":81,"x_max":293,"o":"m 185 -14 q 114 15 143 -14 q 85 86 85 44 q 114 158 85 129 q 185 188 143 188 q 257 158 228 188 q 286 86 286 129 q 257 15 286 44 q 185 -14 228 -14 m 218 286 l 154 286 l 106 526 l 81 975 l 293 975 l 268 526 l 218 286 z "},"¡":{"ha":374,"x_min":81,"x_max":294,"o":"m 189 989 q 260 959 231 989 q 290 889 290 929 q 260 817 290 847 q 189 788 231 788 q 118 817 147 788 q 89 889 89 847 q 118 959 89 929 q 189 989 147 989 m 156 686 l 221 686 l 269 449 l 294 0 l 81 0 l 107 449 l 156 686 z "},"#":{"ha":799,"x_min":28,"x_max":742,"o":"m 294 972 l 364 972 l 193 0 l 124 0 l 294 972 m 572 972 l 642 972 l 471 0 l 401 0 l 572 972 m 742 690 l 742 624 l 89 624 l 89 690 l 742 690 m 681 368 l 681 301 l 28 301 l 28 368 l 681 368 z "},".":{"ha":308,"x_min":54,"x_max":256,"o":"m 154 -14 q 83 15 113 -14 q 54 86 54 44 q 83 158 54 129 q 154 188 113 188 q 226 158 197 188 q 256 86 256 129 q 226 15 256 44 q 154 -14 197 -14 z "},"·":{"ha":304,"x_min":51,"x_max":253,"o":"m 151 390 q 81 419 110 390 q 51 490 51 449 q 81 562 51 533 q 151 590 110 590 q 224 562 194 590 q 253 490 253 533 q 224 419 253 449 q 151 390 194 390 z "},"?":{"ha":642,"x_min":11,"x_max":589,"o":"m 11 868 q 113 958 43 924 q 278 992 182 992 q 508 928 428 992 q 589 750 589 864 q 576 672 589 706 q 540 608 563 638 q 488 550 517 578 q 428 493 460 522 q 368 429 397 464 q 333 387 349 408 q 314 340 317 365 q 331 282 311 315 l 319 274 q 238 336 269 296 q 211 431 207 376 q 230 494 214 467 q 269 548 246 522 q 315 601 292 574 q 352 667 338 629 q 367 757 367 706 q 328 888 365 842 q 224 933 292 933 q 113 880 153 933 q 72 719 72 826 l 58 719 l 11 868 m 289 -14 q 217 15 247 -14 q 188 86 188 44 q 217 158 188 129 q 289 188 247 188 q 360 158 331 188 q 389 86 389 129 q 360 15 389 44 q 289 -14 331 -14 z "},"¿":{"ha":678,"x_min":53,"x_max":631,"o":"m 631 104 q 530 15 600 49 q 364 -19 460 -19 q 133 44 214 -19 q 53 222 53 108 q 66 300 53 265 q 101 365 79 335 q 152 422 124 394 q 212 479 181 450 q 274 543 243 508 q 309 585 293 564 q 328 632 325 607 q 311 690 331 657 l 321 699 q 403 636 372 676 q 431 542 435 596 q 412 478 428 506 q 373 424 396 450 q 327 371 350 399 q 289 306 304 343 q 275 215 274 268 q 313 85 275 131 q 418 39 351 39 q 529 92 489 39 q 568 253 569 146 l 582 253 l 631 104 m 353 986 q 424 957 394 986 q 454 886 454 928 q 424 815 454 844 q 353 785 394 785 q 282 815 311 785 q 253 886 253 844 q 282 957 253 928 q 353 986 311 986 z "},"\"":{"ha":504,"x_min":53,"x_max":453,"o":"m 86 972 l 235 992 q 229 922 236 965 q 204 834 222 879 q 154 751 186 789 q 72 694 122 713 l 53 701 q 82 804 74 763 q 91 884 90 846 q 86 972 92 922 m 303 972 l 451 992 q 446 922 453 965 q 422 834 439 879 q 372 751 404 789 q 289 694 340 713 l 271 701 q 299 804 290 763 q 309 884 308 846 q 303 972 310 922 z "},"'":{"ha":278,"x_min":44,"x_max":228,"o":"m 78 972 l 226 992 q 221 922 228 965 q 196 834 214 879 q 146 751 178 789 q 64 694 114 713 l 44 701 q 74 804 65 763 q 83 884 82 846 q 78 972 83 922 z "},";":{"ha":321,"x_min":54,"x_max":272,"o":"m 88 161 q 142 185 111 183 q 204 172 174 188 q 249 121 235 156 q 266 16 272 68 q 231 -78 260 -36 q 158 -142 201 -119 q 64 -157 115 -164 l 60 -142 q 107 -105 90 -129 q 122 -49 124 -81 q 92 14 119 -17 q 66 63 74 36 q 63 116 58 89 q 88 161 68 143 m 154 557 q 83 586 113 557 q 54 657 54 615 q 83 729 54 700 q 154 758 113 758 q 226 729 197 758 q 256 657 256 700 q 226 586 256 615 q 154 557 197 557 z "},"/":{"ha":592,"x_min":13,"x_max":581,"o":"m 513 999 l 581 968 l 79 -19 l 13 14 l 513 999 z "},"_":{"ha":694,"x_min":0,"x_max":694,"o":"m 0 -83 l 694 -83 l 694 -142 l 0 -142 l 0 -83 z "},"{":{"ha":526,"x_min":118,"x_max":490,"o":"m 183 472 q 183 531 190 490 q 165 622 175 571 q 156 721 156 674 q 190 869 156 801 q 297 977 224 936 q 488 1018 369 1018 l 490 1007 q 400 952 426 990 q 369 858 374 914 q 364 735 364 803 q 356 599 364 651 q 330 516 347 547 q 286 468 313 485 q 221 439 260 451 q 287 410 260 429 q 331 357 314 390 q 356 275 349 324 q 364 156 364 226 q 363 56 364 103 q 370 -27 363 10 q 401 -90 378 -64 q 472 -128 424 -115 l 469 -139 q 284 -98 353 -139 q 185 10 215 -57 q 156 156 156 76 q 165 256 156 206 q 181 347 174 307 q 179 406 188 386 q 154 428 174 422 q 118 436 135 435 l 118 450 q 156 454 138 451 q 183 472 175 457 z "},"}":{"ha":526,"x_min":39,"x_max":410,"o":"m 42 1018 q 232 977 160 1018 q 338 869 304 936 q 372 721 372 801 q 363 622 374 674 q 346 531 353 571 q 346 472 339 490 q 372 454 353 457 q 410 450 392 451 l 410 436 q 375 428 393 435 q 350 406 357 422 q 349 347 343 386 q 365 256 356 307 q 372 156 374 206 q 342 10 372 76 q 244 -98 313 -57 q 58 -139 176 -139 l 56 -128 q 128 -90 104 -115 q 158 -27 151 -64 q 165 56 165 10 q 164 156 164 103 q 172 275 164 226 q 198 357 181 324 q 242 410 215 390 q 307 439 269 429 q 242 468 269 451 q 198 516 215 485 q 172 599 181 547 q 164 735 164 651 q 159 858 164 803 q 128 952 154 914 q 39 1007 103 990 l 42 1018 z "},"[":{"ha":579,"x_min":167,"x_max":524,"o":"m 167 1003 l 519 1003 l 519 989 l 375 936 l 375 -58 l 524 -111 l 524 -125 l 167 -125 l 167 1003 z "},"]":{"ha":579,"x_min":56,"x_max":413,"o":"m 413 1003 l 413 -125 l 56 -125 l 56 -111 l 204 -58 l 204 936 l 60 989 l 60 1003 l 413 1003 z "},"(":{"ha":588,"x_min":125,"x_max":547,"o":"m 547 1006 q 431 899 481 974 q 356 715 382 825 q 332 467 331 606 q 362 199 335 317 q 436 -1 389 81 q 544 -126 483 -83 l 536 -139 q 359 -49 436 -108 q 231 92 282 11 q 152 269 179 174 q 125 464 125 364 q 151 663 125 569 q 230 829 178 756 q 360 951 282 903 q 539 1017 438 1000 l 547 1006 z "},")":{"ha":588,"x_min":42,"x_max":464,"o":"m 42 1006 l 50 1017 q 228 951 151 1000 q 358 829 306 903 q 438 663 411 756 q 464 464 464 569 q 437 269 464 364 q 358 92 410 174 q 229 -49 306 11 q 53 -139 153 -108 l 44 -126 q 153 -1 106 -83 q 227 199 200 81 q 257 467 254 317 q 233 715 260 606 q 158 899 207 825 q 42 1006 108 974 z "},"—":{"ha":1111,"x_min":0,"x_max":1111,"o":"m 0 440 l 1111 440 l 1111 368 l 0 368 l 0 440 z "},"–":{"ha":694,"x_min":0,"x_max":694,"o":"m 0 440 l 694 440 l 694 368 l 0 368 l 0 440 z "},"-":{"ha":528,"x_min":44,"x_max":483,"o":"m 56 451 l 472 451 l 483 406 l 472 358 l 56 358 l 44 406 l 56 451 z "},"­":{"ha":528,"x_min":44,"x_max":483,"o":"m 56 451 l 472 451 l 483 406 l 472 358 l 56 358 l 44 406 l 56 451 z "},"«":{"ha":703,"x_min":56,"x_max":621,"o":"m 56 406 l 340 124 l 353 132 l 222 406 l 351 674 l 340 681 l 56 406 m 324 406 l 608 124 l 621 132 l 490 406 l 619 674 l 608 681 l 324 406 z "},"»":{"ha":703,"x_min":83,"x_max":649,"o":"m 649 406 l 364 681 l 353 674 l 483 406 l 351 132 l 364 124 l 649 406 m 381 406 l 96 681 l 85 674 l 215 406 l 83 132 l 96 124 l 381 406 z "},"‹":{"ha":435,"x_min":56,"x_max":353,"o":"m 56 406 l 340 124 l 353 132 l 222 406 l 351 674 l 340 681 l 56 406 z "},"›":{"ha":435,"x_min":83,"x_max":381,"o":"m 381 406 l 96 681 l 85 674 l 215 406 l 83 132 l 96 124 l 381 406 z "},"„":{"ha":610,"x_min":58,"x_max":564,"o":"m 361 174 q 421 199 386 196 q 488 184 456 201 q 538 129 521 167 q 556 15 564 72 q 517 -89 549 -43 q 438 -159 486 -135 q 335 -176 390 -183 l 331 -158 q 383 -118 364 -146 q 399 -56 401 -90 q 365 13 396 -22 q 338 65 347 35 q 335 124 329 94 q 361 174 340 153 m 90 174 q 150 199 115 196 q 217 184 185 201 q 267 129 250 167 q 285 15 293 72 q 247 -89 278 -43 q 167 -159 215 -135 q 64 -176 119 -183 l 60 -158 q 112 -118 93 -146 q 128 -56 131 -90 q 94 13 125 -22 q 67 65 76 35 q 64 124 58 94 q 90 174 69 153 z "},"“":{"ha":619,"x_min":47,"x_max":560,"o":"m 528 789 q 469 763 504 765 q 401 778 433 761 q 351 833 368 796 q 333 948 326 890 q 372 1051 340 1006 q 451 1122 403 1097 q 554 1139 499 1146 l 558 1121 q 506 1081 525 1108 q 490 1019 488 1053 q 524 950 493 985 q 551 898 543 928 q 555 839 560 868 q 528 789 550 810 m 249 789 q 190 763 225 765 q 122 778 154 761 q 72 833 89 796 q 54 948 47 890 q 92 1051 61 1006 q 172 1122 124 1097 q 275 1139 219 1146 l 279 1121 q 227 1081 246 1108 q 211 1019 208 1053 q 244 950 214 985 q 272 898 264 928 q 276 839 281 868 q 249 789 271 810 z "},"”":{"ha":610,"x_min":58,"x_max":564,"o":"m 361 1115 q 421 1140 386 1138 q 488 1126 456 1143 q 538 1071 521 1108 q 556 956 564 1014 q 517 853 549 899 q 438 783 486 807 q 335 765 390 758 l 331 783 q 383 824 364 796 q 399 885 401 851 q 365 954 396 919 q 338 1006 347 976 q 335 1065 329 1036 q 361 1115 340 1094 m 90 1115 q 150 1140 115 1138 q 217 1126 185 1143 q 267 1071 250 1108 q 285 956 293 1014 q 247 853 278 899 q 167 783 215 807 q 64 765 119 758 l 60 783 q 112 824 93 796 q 128 885 131 851 q 94 954 125 919 q 67 1006 76 976 q 64 1065 58 1036 q 90 1115 69 1094 z "},"‘":{"ha":340,"x_min":49,"x_max":282,"o":"m 250 789 q 191 763 226 765 q 123 778 156 761 q 74 833 90 796 q 56 948 49 890 q 94 1051 63 1006 q 173 1122 125 1097 q 276 1139 221 1146 l 281 1121 q 228 1081 247 1108 q 213 1019 210 1053 q 246 950 215 985 q 274 898 265 928 q 277 839 282 868 q 250 789 272 810 z "},"’":{"ha":340,"x_min":58,"x_max":293,"o":"m 90 1115 q 150 1140 115 1138 q 217 1126 185 1143 q 267 1071 250 1108 q 285 956 293 1014 q 247 853 278 899 q 167 783 215 807 q 64 765 119 758 l 60 783 q 112 824 93 796 q 128 885 131 851 q 94 954 125 919 q 67 1006 76 976 q 64 1065 58 1036 q 90 1115 69 1094 z "},"‚":{"ha":340,"x_min":58,"x_max":293,"o":"m 90 178 q 150 203 115 200 q 217 188 185 206 q 267 133 250 171 q 285 19 293 76 q 247 -85 278 -39 q 167 -155 215 -131 q 64 -172 119 -179 l 60 -154 q 112 -114 93 -142 q 128 -52 131 -86 q 94 17 125 -18 q 67 69 76 39 q 64 128 58 99 q 90 178 69 157 z "}," ":{"ha":347,"x_min":0,"x_max":0,"o":""}}}
